<svg width="747" height="387" viewBox="0 0 747 387" fill="none" xmlns="http://www.w3.org/2000/svg">
<path d="M374.791 47.1656C374.791 47.1656 374.761 47.1156 374.751 47.0856C374.241 46.2356 373.411 45.6656 372.581 45.1456C370.841 44.0456 368.821 43.1756 366.741 43.1056C365.791 43.0756 365.021 43.2656 364.141 43.6256C363.411 43.9156 362.641 44.2556 361.841 44.2256C360.331 44.1556 359.481 42.5656 358.881 41.3756C358.511 40.6556 358.161 39.9056 357.971 39.1156C357.731 38.1256 357.651 37.1056 357.381 36.1256C356.871 34.2656 355.321 33.0856 353.891 31.9256C353.261 31.4156 352.671 30.8256 351.991 30.3756C351.371 29.9656 350.701 29.6356 350.031 29.3456C347.641 28.3056 344.661 27.5156 343.881 24.6656C343.691 23.9656 343.661 23.2256 343.651 22.4956C343.651 22.0956 343.731 21.6256 343.361 21.3656C342.801 20.9756 341.791 20.9656 341.141 20.9256C340.231 20.8756 339.291 20.8956 338.391 21.0756C337.541 21.2456 336.901 21.6456 336.281 22.2456C335.691 22.8156 335.121 23.4556 334.371 23.8256C332.661 24.6656 331.131 23.3756 329.561 22.8556C327.951 22.3156 326.171 22.6256 324.511 22.5356C322.781 22.4356 321.301 21.7756 319.981 20.6656C318.381 19.3256 316.341 18.3956 314.931 16.8456C314.371 16.2256 313.861 15.4856 313.051 15.1656C312.331 14.8856 311.491 14.8356 310.731 14.8056C308.951 14.7456 307.111 14.9656 305.421 15.5456C304.041 16.0156 302.311 16.9956 302.241 18.6356C302.181 19.9956 302.791 21.3056 302.711 22.6856C302.661 23.6356 302.441 25.0756 301.371 25.4056C300.491 25.6756 299.591 25.0456 298.941 24.5256C298.061 23.8256 297.291 22.9856 296.491 22.1956C296.221 21.9256 295.941 21.6256 295.611 21.4156C294.861 20.9456 293.861 20.8256 292.991 20.8556C291.031 20.9156 289.101 21.7556 287.501 22.8556C287.181 23.0756 286.911 23.2556 286.761 23.6156C286.671 23.8356 286.621 24.0656 286.461 24.2456C286.031 24.7356 285.241 24.5356 284.731 24.2856C284.071 23.9656 283.971 23.3956 283.791 22.7556C283.651 22.2656 283.301 21.8656 283.011 21.4556C282.671 20.9856 282.331 20.5256 281.971 20.0756C280.741 18.5656 279.231 17.2756 277.711 16.0656C276.301 14.9456 274.701 13.7556 272.931 13.3156C271.391 12.9356 269.641 12.9456 268.121 13.4356C267.471 13.6456 266.701 13.9956 266.301 14.5756C266.021 14.9756 265.871 15.4756 265.621 15.8956C264.971 16.9656 263.941 17.3456 262.931 16.4656C262.491 16.0856 262.171 15.5956 262.121 15.0056C262.101 14.7356 262.321 14.1056 262.201 13.8756C262.011 13.5056 260.681 13.6756 260.321 13.6956C259.631 13.7356 258.961 13.8656 258.291 14.0156C257.321 14.2256 256.351 14.3956 255.441 13.8956C254.171 13.1956 253.341 11.7356 252.631 10.5356C251.761 9.06562 250.981 7.49562 249.801 6.24562C248.581 4.96562 247.031 4.44562 245.301 4.27562C244.411 4.18562 243.491 4.16562 242.601 4.29562C241.741 4.42562 241.221 4.86562 240.591 5.41562C240.151 5.79562 239.661 6.21562 239.051 6.24562C238.351 6.27562 237.771 5.73562 237.411 5.17562C236.581 3.88562 237.471 2.14562 236.501 0.99562C235.211 2.25562 231.921 -1.29438 230.421 1.81562C229.621 3.61562 229.521 5.21562 227.421 6.01562C226.121 6.51562 224.821 7.01562 226.721 8.31562C228.821 9.61562 227.621 10.7156 226.321 12.3156C224.121 15.0156 225.821 17.2156 221.521 15.7156C217.221 14.2156 216.121 21.2156 213.321 18.8156C211.421 17.2156 209.521 17.7156 207.421 16.6156C206.121 15.9156 205.821 17.5156 205.021 18.0156C204.121 18.7156 204.221 19.4156 203.021 19.7156C202.121 19.9156 201.321 19.7156 200.421 19.9156C198.521 20.4156 197.621 18.6156 195.921 19.9156C195.221 20.5156 194.021 21.4156 193.021 20.9156C190.921 19.9156 191.021 20.9156 189.021 21.2156C186.721 21.6156 187.921 24.1156 186.521 25.6156C185.321 27.0156 181.321 33.0156 180.021 32.6156C179.021 32.3156 177.921 31.3156 177.621 33.3156C177.121 36.2156 177.621 36.5156 174.721 38.7156C173.221 40.5156 171.121 39.9156 169.321 39.0156C167.321 37.9156 167.221 41.4156 166.521 42.4156C165.621 43.6156 164.221 44.1156 163.421 45.3156L159.621 51.0156C157.621 54.0156 155.621 52.9156 158.721 56.3156C159.721 57.4156 157.321 59.2156 156.621 59.8156H160.921C162.921 59.5156 164.121 59.8156 165.221 61.6156C165.921 62.8156 166.021 63.7156 167.521 64.2156C169.521 64.8156 172.321 64.2156 174.021 65.1156C175.721 66.0156 175.521 68.9156 175.521 70.6156C175.321 72.5156 174.521 78.2156 176.821 78.9156C179.421 79.6156 181.821 80.4156 184.421 80.8156C185.721 81.0156 187.121 81.1156 187.521 82.6156C187.721 83.7156 185.521 84.0156 184.821 84.1156C183.221 84.5156 181.521 85.3156 180.921 87.0156C180.221 88.9156 178.521 90.5156 176.821 91.6156C174.521 93.2156 172.021 98.0156 172.021 100.816C172.021 103.616 174.921 108.116 173.621 111.616C172.921 112.316 172.421 113.216 171.521 113.816C169.721 114.816 167.921 114.816 169.821 117.116C171.421 119.016 175.421 122.316 176.421 118.116C176.621 117.216 176.421 116.016 177.421 115.716C179.821 115.016 179.621 112.916 182.021 113.116C184.321 113.316 183.821 112.716 184.621 114.816L186.021 118.416C186.721 120.416 188.321 119.916 188.221 122.316C188.221 124.616 188.521 125.416 190.721 126.416C191.421 126.616 192.121 126.416 192.821 126.616C194.021 126.916 194.621 127.516 195.521 128.216C196.721 129.216 197.221 129.816 198.821 130.216C199.221 129.016 198.721 127.616 199.121 126.516C199.421 125.616 205.221 125.116 206.321 125.116C207.421 125.116 209.521 127.216 210.921 128.016C212.521 128.916 216.121 131.916 218.121 131.116C220.121 130.316 219.921 130.416 219.921 129.116C219.921 128.616 219.321 128.316 219.221 127.916C219.121 127.516 220.221 126.816 220.521 126.516C221.421 125.816 221.721 124.916 222.521 124.316C223.921 123.216 225.821 124.816 227.621 122.916C228.721 121.716 228.921 120.716 230.521 119.816C231.521 119.216 232.621 118.916 233.621 118.116C234.721 117.216 234.321 115.416 235.021 114.116C235.921 112.616 237.421 111.916 238.321 110.316C239.721 108.716 239.321 109.116 241.321 108.416C242.421 108.016 243.521 102.516 244.221 101.216C245.321 99.2156 247.121 98.0156 249.221 97.1156C250.921 96.4156 252.521 96.8156 254.321 97.0156C256.621 97.1156 257.821 94.9156 259.921 94.2156C262.521 93.4156 262.921 95.3156 264.821 96.4156C266.221 97.7156 268.121 98.7156 269.721 99.7156C272.321 101.216 275.121 101.716 277.721 103.516C280.011 105.106 282.391 106.296 285.271 106.316C286.001 103.626 283.881 99.8656 286.421 97.7156C287.221 97.0156 289.021 97.4156 290.121 97.1156C291.921 96.6156 293.421 96.6156 295.321 96.5156C297.121 96.6156 298.421 98.0156 300.121 97.5156C302.821 96.8156 303.821 94.7156 304.921 92.3156C305.421 91.1156 305.821 89.8156 306.321 88.5156C306.921 87.2156 307.721 86.0156 308.321 84.7156C309.721 83.8156 311.221 80.0156 312.421 78.5156C314.821 75.7156 317.121 73.0156 317.121 69.2156C317.121 64.8156 321.821 65.7156 324.821 65.1156C327.721 64.9156 331.121 62.4156 333.621 64.8156C335.821 66.9156 340.421 65.0156 339.121 69.8156C335.221 74.8156 343.221 80.7156 346.421 83.7156C349.821 87.0156 348.821 81.0156 352.221 80.4156C353.221 80.2156 354.421 81.8156 354.921 82.4156C356.421 83.9156 357.021 83.4156 358.521 82.1156C358.821 81.7156 359.721 80.0156 360.421 81.1156C362.021 83.4156 363.221 82.9156 363.521 80.2156C363.721 78.7156 362.921 77.8156 362.921 76.5156C362.921 75.2156 363.721 74.5156 363.821 73.4156C363.821 72.6156 363.821 72.1156 363.321 71.4156C362.621 70.5156 361.821 70.2156 362.621 69.1156C363.621 67.9156 363.321 67.3156 362.521 66.0156C361.721 65.4156 359.921 64.8156 359.621 63.8156C359.621 63.6156 360.321 61.6156 360.321 61.0156C360.321 58.1156 361.021 58.0156 363.421 58.3156C365.721 58.6156 371.521 60.7156 371.521 56.4156C371.521 52.1156 375.021 52.5156 376.921 50.6156C376.181 50.2456 375.101 48.4856 374.811 47.1656H374.791Z" stroke="#5E83AF" stroke-opacity="0.3" stroke-miterlimit="10"/>
<path fill-rule="evenodd" clip-rule="evenodd" d="M384.901 49.1256V53.7256C385.601 54.6256 387.101 55.3256 387.401 56.1256C387.901 57.4256 387.401 60.7256 387.001 62.0256C386.501 63.6256 386.301 64.5256 385.101 65.7256C382.101 68.9256 386.501 68.0256 386.401 70.7256C386.401 71.8256 385.901 72.9256 386.701 73.8256C387.601 75.0256 389.201 74.6256 390.401 75.3256C392.101 76.4256 392.401 76.7256 392.401 78.7256C392.401 80.7256 393.101 80.7256 393.801 81.7256C395.501 84.1256 395.001 90.3256 394.601 93.1256C394.301 94.3256 393.701 95.5256 393.401 96.6256C392.701 99.2256 392.401 100.926 389.501 101.226C388.301 101.326 387.301 101.226 386.101 101.526C384.701 102.026 385.601 105.626 386.201 106.526C386.801 107.426 387.801 107.926 388.101 109.026C388.401 110.026 388.101 111.226 388.401 112.226V115.826H388.301L387.101 118.226C386.301 120.926 386.501 124.126 385.701 127.026C385.101 129.126 384.501 133.626 382.501 134.826C380.501 135.826 377.601 134.826 375.801 136.026C373.701 137.426 374.601 138.926 371.701 138.926C368.801 138.926 369.201 139.426 368.301 138.426C365.501 135.726 366.901 137.626 363.001 138.426C360.301 139.026 358.101 138.126 356.301 136.226C353.601 136.226 354.501 140.426 353.701 141.526L352.201 146.026C351.901 146.826 352.001 147.626 351.701 148.426C350.801 150.626 350.501 150.426 348.401 151.626C345.101 153.426 351.501 157.726 350.701 160.326C350.701 163.126 352.001 165.326 353.601 167.526C355.101 169.626 355.401 172.526 356.801 174.426C357.801 175.826 359.801 175.526 361.301 175.626C364.501 176.026 363.701 178.326 361.901 179.726C360.901 180.926 359.201 183.526 357.801 182.126C356.901 181.226 356.001 179.026 355.001 181.426C354.601 182.326 352.901 182.126 352.001 182.326C350.201 182.626 348.501 181.426 347.401 183.826C346.401 186.026 346.501 188.326 343.901 188.826C340.701 189.426 338.101 188.226 336.001 191.026C336.501 192.726 335.801 193.426 337.301 194.926L339.701 197.426C341.701 199.426 341.601 200.626 341.501 203.426C341.501 204.226 340.601 205.726 340.801 206.326C341.501 208.026 342.801 208.726 343.701 210.126C344.901 211.326 344.401 213.426 345.601 214.626C346.801 215.826 347.101 217.226 347.301 218.926C347.301 220.026 347.001 221.126 347.301 222.226C347.601 222.926 349.501 223.726 350.101 224.126C351.801 225.126 355.001 227.826 355.501 229.626C356.801 231.326 356.101 233.526 357.401 235.026C358.501 236.326 357.101 238.526 358.501 239.626C359.201 240.226 359.801 240.526 359.801 241.626C359.801 243.226 360.501 245.826 360.201 247.326C359.901 248.826 357.801 250.926 356.401 251.626L355.801 254.926C355.501 255.426 354.801 255.626 354.401 256.126C354.101 256.426 353.901 256.726 353.501 256.926C352.601 257.426 351.701 258.126 351.101 258.926C349.301 261.126 350.401 263.226 349.601 265.726L348.301 266.226C347.401 267.226 346.301 268.126 344.901 268.226C343.801 268.226 342.301 268.226 341.801 269.326C340.101 272.926 336.501 267.026 336.001 272.426C335.801 274.826 333.901 273.226 332.401 274.026C331.601 274.426 331.701 275.926 330.701 274.526C330.301 273.926 329.201 272.726 329.201 272.026C329.201 271.326 328.901 270.126 328.401 269.626C327.801 268.926 326.701 268.726 326.001 268.026C325.701 267.626 324.701 266.626 324.201 266.626C323.301 266.626 322.101 267.226 321.201 267.426L313.501 267.626C311.501 267.626 310.801 269.226 309.401 270.326C308.301 271.226 302.301 265.826 301.401 265.026C300.001 263.926 297.001 260.526 295.501 261.926C294.501 262.826 293.101 262.626 293.201 264.326C293.301 267.226 293.901 271.626 293.101 274.426L293.801 281.526C293.301 281.326 292.801 281.226 292.201 281.026C291.901 281.026 291.501 280.826 291.201 280.626C290.601 280.326 290.301 279.626 289.901 279.026C288.201 276.726 286.701 277.126 283.901 277.326C281.101 277.526 279.901 277.026 277.901 274.826C276.601 273.426 276.301 272.926 274.101 273.326C272.101 273.626 270.701 272.526 269.101 272.826C268.401 272.926 266.801 273.426 266.301 272.926C265.401 272.126 265.401 270.426 264.601 269.826C263.801 269.126 262.001 268.826 262.401 267.326C262.401 266.126 262.001 264.326 261.001 263.526C259.701 262.326 259.201 261.926 258.801 260.126C258.401 258.526 256.801 252.726 255.301 252.226C252.701 251.526 251.701 251.526 249.501 249.626C247.901 248.626 247.501 246.626 246.801 245.026C245.901 243.026 243.601 244.526 243.101 242.726C242.901 241.926 242.601 240.426 241.501 240.726C240.101 241.126 238.401 242.226 236.901 242.726C234.901 243.426 231.901 241.826 231.701 239.726C230.301 238.926 227.401 239.926 225.701 239.726C223.201 240.126 221.701 241.226 220.701 243.526C220.501 244.026 220.101 244.526 219.501 244.726C218.101 245.026 217.701 243.926 216.901 243.226L218.001 238.426V229.226L217.701 222.126C216.601 221.326 213.701 219.326 213.701 217.726C213.701 216.126 216.201 215.426 216.801 214.926C219.401 212.726 222.701 211.026 225.101 208.626C227.301 206.226 226.501 205.926 225.101 203.626C224.501 202.626 224.901 201.226 224.901 200.126L226.101 193.526C227.801 193.326 228.201 193.526 229.801 192.726C231.301 192.026 233.101 189.626 234.801 190.726C236.501 191.826 236.101 192.026 237.901 190.826C239.701 189.626 241.601 192.026 243.701 190.726C244.501 190.226 244.201 189.126 245.001 188.726C245.901 188.226 246.801 187.826 247.801 187.826C249.601 187.826 250.001 188.326 251.801 187.326C252.701 186.826 253.701 186.826 254.501 186.426C255.601 185.926 252.201 184.126 253.501 182.926C254.801 181.726 256.501 183.026 257.401 183.026C258.301 183.026 259.501 182.726 260.401 181.926C261.101 181.226 263.701 180.226 263.701 179.326C263.701 177.726 262.701 176.726 263.701 174.926C264.701 174.326 267.901 172.626 268.201 171.526C268.801 169.326 267.701 169.526 269.401 167.626C272.901 163.426 277.501 160.826 280.801 156.526C281.101 155.326 281.701 154.326 282.001 153.026C282.401 151.026 285.701 152.326 287.301 151.626C288.901 150.926 288.601 149.426 289.601 148.226C290.901 146.626 293.401 144.826 291.501 142.726C290.201 141.226 287.601 139.426 286.901 137.526C286.201 136.726 286.201 136.126 285.001 136.026C284.501 136.026 283.401 135.926 282.901 136.126C282.201 136.526 282.201 137.126 281.201 137.126C280.001 137.126 277.901 136.526 276.901 135.826C275.001 134.426 275.701 132.126 275.901 129.926C276.101 127.526 275.901 124.626 278.301 123.226C280.401 122.726 280.901 121.426 282.001 119.826C282.701 118.826 284.301 118.226 285.001 117.226C286.901 114.626 285.601 110.726 285.501 107.826V106.226H285.401C286.301 103.526 284.001 99.6256 286.601 97.4256C287.401 96.7256 289.201 97.1256 290.301 96.8256C292.101 96.3256 293.601 96.3256 295.501 96.2256C297.301 96.3256 298.601 97.7256 300.301 97.2256C303.001 96.5256 304.001 94.4256 305.101 92.0256C305.601 90.8256 306.001 89.5256 306.501 88.2256C307.101 86.9256 307.901 85.7256 308.501 84.4256C309.901 83.5256 311.401 79.7256 312.601 78.2256C315.001 75.4256 317.301 72.7256 317.301 68.9256C317.301 64.5256 322.001 65.4256 325.001 64.8256C327.901 64.6256 331.301 62.1256 333.801 64.5256C336.001 66.6256 340.601 64.7256 339.301 69.5256C335.401 74.5256 343.401 80.4256 346.601 83.4256C350.001 86.7256 349.001 80.7256 352.401 80.1256C353.401 79.9256 354.601 81.5256 355.101 82.1256C356.601 83.6256 357.201 83.1256 358.701 81.8256C359.001 81.4256 359.901 79.7256 360.601 80.8256C362.201 83.1256 363.401 82.6256 363.701 79.9256C363.901 78.4256 363.101 77.5256 363.101 76.2256C363.101 74.9256 363.901 74.2256 364.001 73.1256C364.001 72.3256 364.001 71.8256 363.501 71.1256C362.801 70.2256 362.001 69.9256 362.801 68.8256C363.801 67.6256 363.501 67.0256 362.701 65.7256C361.901 65.1256 360.101 64.5256 359.801 63.5256C359.801 63.3256 360.501 61.3256 360.501 60.7256C360.501 57.8256 361.201 57.7256 363.601 58.0256C365.901 58.3256 371.701 60.4256 371.701 56.1256C371.701 51.8256 375.201 52.2256 377.101 50.3256C378.001 50.7256 378.701 50.0256 379.501 49.9256C381.101 49.6256 382.201 49.9256 383.801 49.4256C384.301 49.2256 384.701 49.0256 385.201 48.7256V48.8256L384.901 49.1256Z" stroke="#5E83AF" stroke-opacity="0.3" stroke-miterlimit="10"/>
<path fill-rule="evenodd" clip-rule="evenodd" d="M198.801 130.426C199.201 129.226 198.701 127.826 199.101 126.726C199.401 125.826 205.201 125.326 206.301 125.326C207.401 125.326 209.501 127.426 210.901 128.226C212.501 129.126 216.101 132.126 218.101 131.326C220.101 130.526 219.901 130.626 219.901 129.326C219.901 128.826 219.301 128.526 219.201 128.126C219.101 127.726 220.201 127.026 220.501 126.726C221.401 126.026 221.701 125.126 222.501 124.526C223.901 123.426 225.801 125.026 227.601 123.126C228.701 121.926 228.901 120.926 230.501 120.026C231.501 119.426 232.601 119.126 233.601 118.326C234.701 117.426 234.301 115.626 235.001 114.326C235.901 112.826 237.401 112.126 238.301 110.526C239.701 108.926 239.301 109.326 241.301 108.626C242.401 108.226 243.501 102.726 244.201 101.426C245.301 99.4256 247.101 98.2256 249.201 97.3256C250.901 96.6256 252.501 97.0256 254.301 97.2256C256.601 97.3256 257.801 95.1256 259.901 94.4256C262.501 93.6256 262.901 95.5256 264.801 96.6256C266.201 97.9256 268.101 98.9256 269.701 99.9256C272.301 101.426 275.101 101.926 277.701 103.726C280.001 105.326 282.401 106.526 285.301 106.526V108.126C285.601 111.026 286.901 115.026 285.001 117.526C284.201 118.526 282.701 119.126 282.001 120.126C280.901 121.726 280.401 123.026 278.301 123.526C275.901 124.926 276.101 127.826 275.901 130.226C275.701 132.426 275.001 134.726 276.901 136.126C277.901 136.826 280.001 137.426 281.201 137.426C282.201 137.426 282.101 136.826 282.901 136.426C283.401 136.126 284.401 136.226 285.001 136.326C286.201 136.426 286.201 137.026 286.901 137.826C287.601 139.826 290.201 141.526 291.501 143.026C293.301 145.226 290.901 146.926 289.601 148.526C288.601 149.726 288.901 151.226 287.301 151.926C285.701 152.626 282.401 151.326 282.001 153.326C281.701 154.626 281.101 155.626 280.801 156.826C277.501 161.126 272.901 163.726 269.401 167.926C267.701 169.926 268.801 169.726 268.201 171.826C267.901 172.826 264.801 174.526 263.701 175.226C262.701 177.026 263.701 177.926 263.701 179.626C263.701 181.326 261.101 181.526 260.401 182.226C259.501 183.126 258.601 183.326 257.401 183.326C256.201 183.326 254.201 182.426 253.501 183.226C252.301 184.426 255.601 186.226 254.501 186.726C253.601 187.126 252.601 187.226 251.801 187.626C250.101 188.626 249.601 188.126 247.801 188.126C246.001 188.126 245.901 188.526 245.001 189.026C244.201 189.526 244.501 190.626 243.701 191.026C241.701 192.326 239.801 190.026 237.901 191.126C236.101 192.326 236.501 192.026 234.801 191.026C233.001 189.926 231.301 192.326 229.801 193.026C228.201 193.726 227.801 193.626 226.101 193.826L220.101 188.126C218.401 186.726 216.601 185.226 215.401 183.326C214.101 181.226 214.601 179.526 213.901 177.426C213.601 176.426 212.601 175.326 212.401 174.326C212.001 172.326 211.901 172.126 209.901 171.726C207.901 171.326 207.101 167.926 207.301 166.126C206.601 163.226 203.001 161.326 201.701 158.426C200.401 155.626 202.801 153.026 201.701 150.126C200.901 148.026 202.001 147.626 202.201 145.726C202.401 144.426 202.201 143.026 202.201 141.726C202.201 140.426 202.401 140.326 202.401 139.526C202.401 138.726 202.801 136.526 202.101 135.826C201.401 135.126 200.501 134.826 199.701 134.126C198.501 132.926 199.001 131.626 198.701 130.126L198.801 130.426Z" stroke="#5E83AF" stroke-opacity="0.3" stroke-miterlimit="10"/>
<path fill-rule="evenodd" clip-rule="evenodd" d="M133.301 256.726H139.701C143.701 256.926 149.401 254.926 153.101 256.726C156.901 258.526 159.801 261.326 164.401 260.626C166.401 260.826 168.201 262.526 170.301 262.226C171.201 262.126 173.301 260.026 172.801 259.026C172.301 258.126 171.301 257.826 171.001 256.726C170.801 255.926 170.601 253.326 170.801 252.626C171.001 251.926 172.201 252.026 172.601 251.226C173.001 250.426 173.001 249.626 173.101 249.026V245.526C173.101 243.726 176.201 242.026 176.701 240.226C177.301 238.226 176.701 236.226 177.001 234.326L178.501 232.026C178.501 230.226 179.801 228.426 179.601 226.626C179.301 224.326 176.701 223.426 174.901 222.426C173.601 221.726 172.201 220.626 171.301 219.426C170.701 217.826 170.301 216.626 170.801 214.926C171.301 213.426 172.901 212.626 173.701 211.426C175.901 208.026 168.901 206.526 167.101 205.826C164.201 204.726 164.101 203.426 164.101 200.526L163.801 194.426C163.801 192.426 165.301 191.026 165.301 189.226C165.301 185.426 165.301 181.826 168.201 179.026C169.601 177.926 174.501 178.026 175.101 176.426C175.701 174.826 174.001 171.026 172.801 169.926C172.201 169.326 171.601 169.126 170.801 168.726C167.601 168.026 163.901 169.926 163.301 165.326C162.801 161.426 160.201 160.926 157.901 158.226C156.801 156.926 155.101 154.926 154.601 153.226C153.901 151.826 152.701 148.526 151.501 147.626C149.901 146.526 146.401 149.826 145.701 148.426C145.301 147.626 146.201 146.026 146.701 145.426C147.801 143.826 148.901 143.726 150.501 142.826C151.201 142.426 150.901 140.826 150.901 140.126C150.901 138.626 149.701 138.326 149.001 137.026C148.201 135.326 147.901 134.926 148.701 133.126C149.401 131.326 148.801 131.226 148.101 129.726C147.701 128.826 148.601 128.426 148.701 127.626C148.801 126.726 148.701 125.226 148.601 124.326C148.201 122.526 148.101 122.426 146.201 122.726C144.601 123.026 142.301 124.726 141.101 125.926C140.101 126.926 139.601 128.326 137.901 127.826C135.701 127.426 137.901 124.826 134.201 125.726C132.001 126.226 130.001 126.226 130.701 129.026C131.501 132.526 119.901 129.026 118.501 127.226C117.701 126.326 117.101 125.526 115.901 125.226C114.701 125.026 113.301 125.126 112.401 124.026L109.801 120.826L104.701 117.726C104.201 118.626 104.701 119.726 103.901 120.826C102.101 123.126 106.701 124.826 104.401 126.726C102.201 128.426 106.001 128.126 104.401 130.426C102.501 133.326 99.701 130.626 98.101 133.126C98.001 136.426 97.001 138.526 94.701 140.926C93.701 141.926 94.701 142.126 94.501 143.126C94.201 144.526 92.901 145.326 91.701 146.026C89.701 147.226 87.801 149.226 86.001 150.626C85.701 151.226 86.001 151.726 86.001 152.226C85.001 152.826 83.301 152.626 83.301 154.226V157.526C83.301 158.126 83.001 158.526 82.701 158.726L86.401 160.226C88.501 161.426 90.401 161.426 91.601 163.926C94.101 169.126 98.401 165.226 102.201 167.026C103.201 167.526 103.801 169.326 104.601 170.126C105.401 170.926 107.301 168.926 108.301 168.526C110.001 168.526 110.601 168.726 110.501 170.626C110.401 175.426 113.901 178.426 113.901 183.026C114.401 184.826 114.601 187.626 115.701 189.126C116.801 190.626 117.901 191.626 119.401 192.726C122.101 194.726 122.101 194.926 122.101 198.226C122.101 201.526 124.901 200.726 124.901 203.026C125.001 205.226 127.301 205.226 128.101 207.126C129.601 210.626 131.201 215.426 133.501 218.426C135.401 220.826 138.601 220.026 138.401 223.626C138.601 225.326 138.801 226.826 140.301 227.926C141.001 228.426 142.501 229.226 143.001 229.826C143.501 230.326 140.801 233.726 140.201 234.226C138.901 235.426 137.901 237.526 136.201 238.126C135.301 238.426 134.001 237.826 133.301 238.426C130.401 240.726 131.601 243.326 131.801 246.426V254.626C131.701 254.626 133.201 257.126 133.201 257.126L133.301 256.726Z" stroke="#5E83AF" stroke-opacity="0.3" stroke-miterlimit="10"/>
<path fill-rule="evenodd" clip-rule="evenodd" d="M156.601 60.2254H160.901C162.901 59.9254 164.101 60.2254 165.201 62.0254C165.901 63.2254 166.001 64.1254 167.501 64.6254C169.501 65.2254 172.301 64.6254 174.001 65.5254C175.701 66.4254 175.501 69.3254 175.501 71.0254C175.301 72.9254 174.501 78.6254 176.801 79.3254C179.401 80.0254 181.801 80.8254 184.401 81.2254C185.701 81.4254 187.101 81.5254 187.501 83.0254C187.701 84.1254 185.501 84.4254 184.801 84.5254C183.201 84.9254 181.501 85.7254 180.901 87.4254C180.201 89.3254 178.501 90.9254 176.801 92.0254C174.501 93.6254 172.001 98.4254 172.001 101.225C172.001 104.025 174.901 108.525 173.601 112.025C172.901 112.725 172.401 113.625 171.501 114.225C169.701 115.225 167.901 115.225 169.801 117.525C171.401 119.425 175.401 122.725 176.401 118.525C176.601 117.625 176.401 116.425 177.401 116.125C179.801 115.425 179.601 113.325 182.001 113.525C184.301 113.725 183.801 113.125 184.601 115.225L186.001 118.825C186.701 120.825 188.301 120.325 188.201 122.725C188.201 125.025 188.501 125.825 190.701 126.825C191.401 127.025 192.101 126.825 192.801 127.025C194.001 127.325 194.601 127.925 195.501 128.625C196.701 129.625 197.201 130.225 198.801 130.625C199.101 132.125 198.601 133.325 199.801 134.625C200.501 135.325 201.501 135.625 202.201 136.325C202.901 137.025 202.501 139.025 202.501 140.025C202.501 141.025 202.301 141.425 202.301 142.225C202.301 143.525 202.501 144.925 202.301 146.225C202.101 148.025 201.101 148.525 201.801 150.625C202.901 153.525 200.501 156.125 201.801 158.925C203.101 161.825 206.601 163.725 207.401 166.625C207.201 168.425 207.901 171.725 210.001 172.225C212.001 172.725 212.101 172.925 212.501 174.825C212.901 176.725 213.701 176.925 214.001 177.925C214.701 180.025 214.301 181.725 215.501 183.825C216.601 185.625 218.501 187.225 220.201 188.625L226.201 194.325L225.001 200.925C225.001 202.125 224.601 203.425 225.201 204.425C226.501 206.825 227.401 207.125 225.201 209.425C222.801 211.825 219.601 213.525 216.901 215.725C216.301 216.225 213.801 217.825 213.801 218.525C213.801 220.125 216.601 222.225 217.801 222.925L218.201 230.025V239.225L217.001 244.025C216.201 244.725 215.201 245.425 214.801 246.425C214.401 247.525 214.401 248.625 213.501 249.525C211.701 251.225 209.801 252.925 207.601 254.025C206.201 254.725 204.301 254.025 203.001 255.025C202.301 255.525 202.001 256.525 201.301 256.925C201.001 258.825 201.101 260.925 200.501 262.725C200.101 264.125 198.601 264.525 198.901 266.225C199.001 267.125 199.801 267.425 200.101 268.125C200.601 269.225 199.401 270.325 198.801 271.225V273.825H198.701C197.301 273.825 196.101 274.525 194.701 274.425C193.201 274.325 191.801 273.625 191.001 272.325C189.701 270.925 189.001 270.825 187.301 270.125C185.501 269.425 185.901 268.325 185.101 267.025C183.201 264.025 186.701 263.825 187.101 260.825C187.401 258.825 187.201 257.025 187.601 255.025C188.101 252.325 192.001 252.625 193.301 250.925C194.001 250.025 196.401 249.025 196.201 247.625C195.901 246.025 194.001 245.825 192.701 245.725C191.101 245.525 191.501 245.125 190.301 244.525C189.701 244.225 188.901 244.225 188.201 244.225C185.801 244.525 185.201 244.525 184.701 242.025C184.301 239.925 184.001 236.325 182.601 234.625C181.501 233.325 180.201 233.025 178.801 232.125C178.801 230.325 180.101 228.525 179.901 226.725C179.601 224.425 177.001 223.525 175.201 222.525C173.901 221.825 172.501 220.725 171.601 219.525C171.001 217.925 170.601 216.725 171.101 215.025C171.601 213.525 173.201 212.725 174.001 211.525C176.201 208.125 169.201 206.625 167.401 205.925C164.501 204.825 164.401 203.525 164.401 200.625L164.101 194.525C164.101 192.525 165.601 191.125 165.601 189.325C165.601 185.525 165.601 181.925 168.501 179.125C169.901 178.025 174.801 178.125 175.401 176.525C176.001 174.925 174.301 171.125 173.101 170.025C172.501 169.425 171.901 169.225 171.101 168.825C167.901 168.125 164.201 170.025 163.601 165.425C163.101 161.525 160.501 161.025 158.201 158.325C157.101 157.025 155.401 155.025 154.901 153.325C154.201 151.925 153.001 148.625 151.801 147.725C150.201 146.625 146.701 149.925 146.001 148.525C145.601 147.725 146.501 146.125 147.001 145.525C148.101 143.925 149.201 143.825 150.801 142.925C151.501 142.525 151.201 140.925 151.201 140.225C151.201 138.725 150.001 138.425 149.301 137.125C148.501 135.425 148.201 135.025 149.001 133.225C149.701 131.425 149.101 131.325 148.401 129.825C148.001 128.925 148.901 128.525 149.001 127.725C149.101 126.825 149.001 125.325 148.901 124.425C148.501 122.625 148.401 122.525 146.501 122.825C144.901 123.125 142.601 124.825 141.401 126.025C140.401 127.025 139.901 128.425 138.201 127.925C136.001 127.525 138.201 124.925 134.501 125.825C132.301 126.325 130.301 126.325 131.001 129.125C131.801 132.625 120.201 129.125 118.801 127.325C118.001 126.425 117.401 125.625 116.201 125.325C115.001 125.125 113.601 125.225 112.701 124.125L110.101 120.925L105.001 117.825C105.301 117.425 105.701 117.025 106.101 116.725C106.601 116.225 106.801 115.525 107.101 114.925C107.301 114.025 107.201 113.125 107.501 112.325C107.501 112.325 107.601 112.325 107.601 112.225C108.801 111.825 114.401 111.525 114.401 109.125C114.401 105.225 115.401 106.925 117.201 104.125C118.501 102.025 121.901 98.3254 124.601 98.9254C126.501 99.4254 127.501 99.8254 129.001 98.1254C129.901 97.1254 132.801 96.5254 134.001 95.7254C137.101 95.4254 136.801 93.1254 138.901 91.8254C142.001 89.7254 141.801 88.2254 143.001 85.0254C143.701 83.4254 144.301 83.1254 145.901 82.6254C146.701 82.3254 147.201 80.2254 146.501 79.7254C147.001 78.5254 147.501 77.8254 148.701 77.1254C150.301 76.1254 152.301 76.2254 152.301 73.7254C152.301 71.2254 153.001 71.3254 154.301 70.5254C155.701 69.6254 155.401 67.0254 155.101 65.5254C154.701 63.0254 155.301 62.3254 156.901 60.5254L156.601 60.2254Z" stroke="#5E83AF" stroke-opacity="0.3" stroke-miterlimit="10"/>
<path fill-rule="evenodd" clip-rule="evenodd" d="M293.901 281.825L293.201 274.725C294.001 271.925 293.401 267.625 293.301 264.625C293.301 262.825 294.601 263.025 295.601 262.225C297.101 260.825 300.101 264.225 301.501 265.325C302.501 266.125 308.401 271.525 309.501 270.625C310.901 269.525 311.601 267.925 313.601 267.925L321.301 267.725C322.201 267.525 323.501 266.925 324.301 266.925C325.101 266.925 325.701 267.925 326.101 268.325C326.801 269.025 327.901 269.225 328.501 269.925C329.001 270.425 329.201 271.625 329.301 272.325C329.301 273.025 330.301 274.225 330.801 274.825C331.901 276.225 331.701 274.825 332.501 274.325C334.001 273.525 335.901 275.125 336.101 272.725C336.601 267.325 340.201 273.225 341.901 269.625C342.501 268.425 343.901 268.625 345.001 268.525C346.401 268.425 347.501 267.525 348.401 266.525L349.701 266.025C351.001 266.625 352.601 266.225 353.301 267.825C354.001 269.625 353.101 271.525 352.801 273.325C352.601 274.825 352.501 275.225 350.901 274.225C349.301 273.125 348.101 273.425 346.601 274.525C345.901 275.025 344.701 276.525 343.901 276.525L341.801 279.525C341.301 280.225 340.101 280.625 339.301 281.025C336.401 282.625 338.801 285.125 338.601 287.425C338.401 289.425 336.601 290.225 336.101 291.925C335.501 293.925 337.001 295.925 334.801 297.325C330.801 300.525 333.401 304.725 332.101 308.725C331.701 310.025 330.701 310.525 329.901 311.425C329.401 311.925 329.401 312.725 328.901 313.225C328.301 313.825 327.301 313.925 326.501 314.225C325.501 314.625 325.501 315.225 324.901 315.925C324.401 317.525 323.901 317.725 322.701 318.725C321.801 319.525 322.001 320.625 322.101 321.725C322.101 324.525 323.901 325.825 320.201 326.725C318.301 327.225 317.701 327.425 316.501 329.025C315.601 330.225 313.601 333.825 311.901 334.025C311.201 335.225 310.101 336.225 310.201 337.725C310.201 338.925 310.701 339.225 309.901 340.325C308.201 342.425 309.901 345.825 308.801 347.525C308.101 348.625 305.701 347.825 304.601 348.525C303.501 349.225 302.801 350.225 301.501 349.225C300.701 348.625 300.201 348.025 299.201 348.725C298.501 349.325 297.401 350.925 297.001 351.825C295.901 354.425 293.401 357.725 290.201 355.125L287.601 354.125C286.501 354.125 284.701 354.725 283.701 354.125C282.801 353.625 281.901 351.025 281.801 350.025C281.801 349.025 281.001 348.825 280.901 348.025C280.801 347.425 280.701 346.625 280.901 346.025C281.601 345.025 283.401 343.925 280.901 343.325C278.301 342.625 280.101 341.825 279.001 340.225C278.201 339.025 280.501 338.725 280.901 338.225C281.701 337.225 279.701 335.325 280.401 334.425C280.901 333.725 281.401 333.725 281.801 332.825C282.801 330.225 285.501 333.325 286.401 331.025C287.001 329.525 287.001 328.325 288.001 326.925C288.901 325.525 291.101 324.425 291.701 322.825C292.401 321.025 291.901 319.025 292.801 317.425C293.501 316.225 292.701 315.025 292.801 313.925C292.601 310.325 293.201 306.925 293.201 303.425C293.201 299.925 293.501 301.525 293.801 300.525C294.101 299.525 294.701 298.325 294.601 297.325C294.601 296.625 293.501 296.825 293.101 296.525C292.501 296.025 292.801 294.725 292.801 294.025C293.101 292.925 294.201 292.625 294.601 291.625C295.001 290.525 294.601 289.825 293.901 288.925C292.501 286.725 293.901 284.425 293.901 282.025V281.825Z" stroke="#5E83AF" stroke-opacity="0.3" stroke-miterlimit="10"/>
<path fill-rule="evenodd" clip-rule="evenodd" d="M216.801 243.826C217.601 244.526 218.001 245.626 219.401 245.326C220.001 245.226 220.301 244.626 220.601 244.126C221.601 241.826 223.101 240.826 225.601 240.326C227.301 240.526 230.201 239.626 231.601 240.326C231.901 242.526 234.901 244.126 236.801 243.326C238.301 242.726 240.001 241.726 241.401 241.326C242.501 241.026 242.701 242.526 243.001 243.326C243.501 245.126 245.901 243.626 246.701 245.626C247.401 247.226 247.801 249.226 249.401 250.226C251.601 252.026 252.601 252.026 255.201 252.826C256.701 253.326 258.301 259.126 258.701 260.726C259.101 262.526 259.601 263.026 260.901 264.126C261.801 264.926 262.301 266.726 262.301 267.926C262.001 269.426 263.701 269.726 264.501 270.426C265.401 271.126 265.301 272.826 266.201 273.526C266.801 274.026 268.401 273.526 269.001 273.426C270.601 273.026 272.001 274.226 274.001 273.926C276.201 273.526 276.501 273.926 277.801 275.426C279.801 277.626 281.001 278.126 283.801 277.926C286.501 277.726 288.101 277.326 289.801 279.626C290.201 280.126 290.501 280.826 291.101 281.226C291.401 281.426 291.801 281.526 292.101 281.626C292.601 281.726 293.101 281.926 293.701 282.126C293.701 284.526 292.301 286.826 293.701 289.026C294.301 289.926 294.801 290.626 294.401 291.726C294.001 292.726 292.901 293.026 292.601 294.126C292.601 294.826 292.301 296.126 292.901 296.626C293.301 296.926 294.301 296.726 294.401 297.426C294.401 298.426 293.901 299.726 293.601 300.626C293.301 301.626 293.001 302.426 293.001 303.526C293.001 307.126 292.401 310.426 292.601 314.026C292.401 315.126 293.201 316.326 292.601 317.526C291.701 319.126 292.201 321.226 291.501 322.926C290.901 324.426 288.601 325.526 287.801 327.026C286.801 328.426 286.801 329.626 286.201 331.126C285.301 333.326 282.701 330.326 281.601 332.926C281.301 333.726 280.701 333.826 280.201 334.526C279.601 335.426 281.501 337.226 280.701 338.326C279.901 339.426 278.001 339.226 278.801 340.326C279.901 341.926 278.101 342.726 280.701 343.426C283.201 344.126 281.401 345.126 280.701 346.126C280.601 346.726 280.701 347.526 280.701 348.126C280.801 348.926 281.601 349.126 281.601 350.126C281.601 351.126 282.601 353.726 283.501 354.226C284.501 354.826 286.301 354.226 287.401 354.226C287.701 354.926 287.501 356.026 287.501 356.826C287.501 358.026 288.601 358.826 288.701 360.026C289.001 362.226 288.501 364.326 288.501 366.426C289.301 368.326 287.901 370.226 286.001 368.726C284.801 367.726 284.101 366.526 283.401 368.726C283.101 369.526 283.001 370.726 282.501 371.426C280.701 373.626 279.901 377.426 279.401 380.226H278.101C275.801 380.326 273.801 381.526 271.501 381.626L264.901 381.826H254.801C252.901 381.626 251.201 381.126 249.401 380.426C248.501 380.026 246.701 378.426 246.001 378.426C243.601 379.826 248.101 386.826 243.601 386.226C238.301 385.526 235.001 384.026 229.601 385.726C227.601 386.326 227.001 386.226 226.201 385.526C225.801 385.226 225.701 384.626 225.301 384.126C224.901 383.626 224.201 383.126 223.801 382.326C222.801 381.226 221.501 380.126 220.801 379.426C221.101 378.226 221.301 375.626 221.201 374.426C221.001 372.926 220.001 371.726 219.701 370.226C219.501 369.126 220.001 368.126 219.901 367.126C220.701 365.526 221.501 363.426 222.401 361.926C223.101 360.826 225.301 362.926 224.901 359.926C224.701 358.126 226.301 359.726 226.901 358.926C227.301 358.426 227.201 357.526 227.101 356.926C226.701 354.626 227.401 354.326 229.101 353.126C230.501 352.126 227.301 349.126 229.701 347.226C230.201 346.826 230.001 346.526 230.201 346.026C230.601 344.626 230.701 343.426 230.701 342.026C230.701 341.026 230.001 339.826 231.401 339.926C232.501 340.026 239.101 341.126 239.201 339.426C239.201 338.126 237.501 336.226 236.601 335.326C235.201 333.826 233.701 331.326 233.901 329.126C234.001 327.626 234.901 327.426 233.901 325.826C232.101 323.326 229.401 322.126 229.101 318.626C228.901 316.526 229.701 311.626 228.701 310.026C227.801 308.626 226.301 307.226 225.201 305.826C224.701 304.726 224.201 300.926 223.501 300.726C221.501 300.026 218.201 300.526 216.001 300.226C214.101 300.026 213.601 301.526 212.001 301.926C209.901 302.426 208.501 301.326 208.901 299.126C209.201 296.926 210.901 295.426 210.301 293.126C209.001 288.326 204.701 294.026 203.501 290.826C202.701 288.826 203.201 286.326 202.301 284.326C201.801 283.226 201.801 281.826 201.401 280.626C200.901 279.226 200.101 278.126 199.401 276.926C198.901 276.026 198.701 275.026 198.101 274.226V271.626C198.801 270.726 200.001 269.726 199.601 268.526C199.301 267.826 198.601 267.426 198.401 266.626C198.101 264.826 199.601 264.426 200.001 263.126C200.401 261.826 200.401 259.226 200.801 257.326C201.501 256.926 201.801 255.926 202.501 255.426C203.801 254.426 205.601 255.126 207.101 254.426C209.301 253.326 211.201 251.526 213.001 249.926C213.901 249.026 213.901 248.026 214.301 246.826C214.701 245.826 215.701 245.126 216.501 244.426L216.801 243.826Z" stroke="#5E83AF" stroke-opacity="0.3" stroke-miterlimit="10"/>
<path fill-rule="evenodd" clip-rule="evenodd" d="M394.101 275.626C395.701 274.526 395.601 272.426 398.101 272.426C400.601 272.426 401.501 273.426 401.501 271.526C401.501 269.626 401.701 268.426 403.001 268.026C404.701 267.526 404.701 268.026 406.201 266.626C408.501 264.626 410.101 267.026 411.501 268.626C413.601 271.026 414.401 268.726 416.601 268.526C417.401 268.426 423.901 269.526 422.701 267.726L418.801 261.826C418.201 259.626 415.501 258.226 414.901 256.026C414.301 253.826 423.101 250.226 425.001 249.926C427.701 249.526 429.501 250.126 431.901 248.626C433.301 247.826 435.601 245.426 436.501 244.126C437.901 242.626 437.101 239.826 436.801 238.026C436.601 236.626 436.201 235.526 437.301 234.426C438.701 232.926 440.901 230.426 441.301 228.326C441.701 225.926 441.501 223.626 441.501 221.226L440.301 216.826C441.901 216.526 441.701 216.126 442.301 214.926C442.801 213.926 450.401 213.826 451.701 213.826L455.301 217.526C456.401 218.626 456.001 219.226 456.501 220.526C457.101 221.926 458.301 224.626 459.801 225.326C461.801 226.126 463.101 224.626 465.201 225.326C468.801 228.026 468.701 222.926 471.601 222.526C474.501 222.126 477.701 223.426 478.101 221.526C479.001 218.226 479.201 220.226 481.201 220.226C483.201 220.226 482.501 217.426 483.701 215.926C484.901 214.326 487.701 214.926 489.701 214.726C490.101 216.826 489.601 219.826 489.601 222.026C489.601 224.226 491.701 222.526 491.701 223.626C491.701 225.426 491.701 228.126 492.201 229.826C492.401 230.626 493.101 231.726 493.501 232.426C494.001 233.326 494.001 234.226 494.201 235.226C494.201 236.126 495.401 236.726 495.501 237.826C495.501 238.726 496.001 240.026 496.501 240.726C497.601 242.426 499.701 242.326 500.301 244.526C500.601 245.526 501.101 246.926 500.701 247.826C500.001 249.426 499.001 251.126 500.701 252.426C502.301 253.726 503.901 254.226 503.501 256.626C503.201 260.326 504.301 264.726 501.401 267.326C498.301 270.126 499.201 272.826 498.801 276.526C498.801 278.126 498.901 278.026 498.301 279.326C497.401 281.226 499.901 282.426 501.301 282.926C504.701 284.126 504.701 287.526 505.101 290.626C505.201 291.826 504.601 293.326 505.601 294.326C506.801 295.526 508.701 295.426 510.201 296.126C511.401 296.626 517.301 300.126 517.501 301.126C517.801 302.826 517.701 304.626 517.701 306.326C517.701 308.026 519.101 308.426 518.801 310.026C517.601 318.026 524.601 312.226 527.401 316.726C527.801 317.426 528.201 318.026 528.501 318.826C529.201 320.526 531.001 321.526 532.601 322.026C533.401 322.326 534.001 323.326 534.701 323.826L536.101 324.326C536.201 324.926 536.601 325.126 537.001 325.526C537.301 325.826 537.501 326.126 537.701 326.526C538.101 327.526 536.801 327.626 536.301 328.126C535.301 328.926 533.301 332.726 533.701 334.326C534.301 336.226 533.401 339.926 530.801 339.726C528.901 339.526 528.801 339.526 528.001 341.526C527.101 343.726 523.801 342.526 522.701 341.226C520.101 338.326 518.601 343.026 517.201 340.426C516.901 339.826 515.601 340.926 514.901 340.926C513.501 342.226 508.901 344.826 506.801 344.926C504.301 344.926 502.701 343.226 501.501 346.526C501.101 347.526 499.001 348.726 499.301 349.626C499.501 350.126 500.201 350.626 499.801 351.226C499.301 351.826 498.401 351.926 498.001 352.526C497.001 354.526 500.001 358.426 499.701 360.526L500.201 364.826C499.101 364.626 498.001 364.526 496.901 364.526C493.601 364.826 490.901 366.926 488.001 365.526L488.301 360.326C488.301 359.426 487.901 358.426 487.401 357.726C486.401 356.526 485.001 358.226 484.201 357.726C483.301 357.126 484.101 356.026 484.201 355.226C484.201 354.426 483.601 353.626 484.201 352.926C485.201 351.726 485.501 351.826 485.501 350.126C484.601 349.226 481.301 350.626 480.301 351.026C477.901 352.026 475.501 351.926 472.901 351.926C470.301 351.926 468.801 352.326 467.301 351.626C465.301 351.626 463.501 350.926 461.801 350.926C460.101 350.926 457.701 352.626 457.101 353.626C456.501 354.726 456.301 355.426 455.201 356.026C453.201 357.126 451.201 356.526 449.001 356.926C446.501 357.426 445.501 356.726 445.101 354.026C443.601 354.026 442.801 355.226 441.501 355.726C439.701 356.426 437.901 356.626 436.001 356.526C430.201 357.326 429.401 348.726 423.101 348.726C416.801 348.726 418.601 348.226 416.401 347.726C414.701 347.326 414.601 342.526 414.801 341.226C414.801 338.926 415.601 339.126 417.401 338.326C419.901 337.326 418.501 336.126 419.801 334.826C420.601 333.926 421.401 333.526 422.301 332.826C423.401 331.926 422.601 329.926 423.001 328.826C423.701 326.826 425.401 325.126 427.001 323.826C428.401 322.726 431.801 320.226 430.101 318.426C429.101 316.826 427.701 316.226 428.101 313.926C428.401 311.926 429.801 311.926 430.501 310.426C431.101 309.126 430.201 308.826 429.801 307.726C429.201 306.326 429.501 304.526 429.501 303.026C429.501 300.826 425.601 301.326 426.101 299.026C425.601 297.226 427.801 295.326 426.601 293.726C425.201 291.926 424.801 291.126 422.201 290.826C420.201 290.626 420.201 288.926 417.901 289.426C415.001 290.026 415.401 292.626 412.101 291.226C411.101 290.826 410.201 291.426 409.201 290.426C408.101 289.226 406.801 289.426 405.301 289.226C403.501 288.926 403.501 288.026 402.401 286.926C401.801 286.326 398.701 286.526 398.901 285.026C398.701 283.826 399.201 282.626 397.901 281.926C396.001 280.926 395.201 280.526 394.301 278.426C393.401 276.326 394.501 275.926 393.801 275.126L394.101 275.626Z" stroke="#5E83AF" stroke-opacity="0.3" stroke-miterlimit="10"/>
<path fill-rule="evenodd" clip-rule="evenodd" d="M394.101 275.626C394.801 276.426 394.101 277.926 394.601 278.926C395.501 281.026 396.301 281.426 398.201 282.426C399.501 283.126 399.001 284.326 399.201 285.526C399.001 287.026 402.101 286.826 402.701 287.426C403.801 288.426 403.801 289.426 405.601 289.726C407.001 289.926 408.401 289.726 409.501 290.926C410.401 291.926 411.301 291.326 412.401 291.726C415.701 293.126 415.301 290.526 418.201 289.926C420.501 289.426 420.601 291.126 422.501 291.326C425.101 291.626 425.501 292.426 426.901 294.226C428.101 295.826 426.001 297.726 426.401 299.526C425.801 301.826 429.801 301.326 429.801 303.526C429.801 305.726 429.501 306.826 430.101 308.226C430.601 309.326 431.401 309.626 430.801 310.926C430.101 312.426 428.701 312.326 428.401 314.426C428.001 316.726 429.401 317.326 430.401 318.926C432.101 320.726 428.701 323.226 427.301 324.326C425.701 325.726 424.001 327.326 423.301 329.326C422.901 330.426 423.701 332.426 422.601 333.326C421.701 334.026 420.901 334.426 420.101 335.326C418.801 336.726 420.201 337.826 417.701 338.826C415.901 339.526 415.101 339.426 415.101 341.726C414.901 343.026 415.101 347.826 416.701 348.226C418.901 348.726 421.201 349.226 423.401 349.226C429.701 349.226 430.401 357.726 436.301 357.026C438.201 357.026 440.001 356.926 441.801 356.226C443.101 355.726 444.001 354.426 445.401 354.426C445.701 357.126 446.801 357.926 449.301 357.326C451.501 356.826 453.501 357.526 455.501 356.426C456.601 355.826 456.801 355.026 457.401 354.026C458.001 353.026 460.801 351.326 462.101 351.326C463.401 351.326 465.501 352.126 467.601 352.026C469.101 352.726 471.601 352.326 473.201 352.326C475.801 352.326 478.201 352.426 480.601 351.426C481.501 351.026 484.901 349.626 485.801 350.526C485.801 352.226 485.401 352.126 484.501 353.326C483.901 354.026 484.501 354.826 484.501 355.626C484.501 356.426 483.701 357.526 484.501 358.126C485.401 358.726 486.701 356.926 487.701 358.126C488.201 358.826 488.601 359.826 488.601 360.726L488.301 365.926C487.601 365.626 486.601 365.926 485.901 365.926L476.001 367.026L469.701 367.926L460.901 368.626L443.001 369.126C439.601 369.826 433.901 370.726 430.501 369.826C427.601 369.026 428.501 365.926 425.001 366.926C423.801 367.226 420.501 368.126 419.401 367.926C417.201 367.626 418.201 364.426 415.401 363.826L408.901 362.426C404.801 361.626 400.301 360.426 396.901 357.826L385.901 349.626C384.101 348.226 379.901 345.826 378.601 344.226C376.901 342.526 375.001 341.326 373.101 339.926C372.101 339.126 370.001 337.026 368.801 337.026H363.901C361.801 337.226 358.901 337.226 356.901 337.726C353.101 339.326 355.301 343.126 352.301 345.026C349.501 346.926 345.201 350.626 341.701 350.026C338.901 349.626 335.901 348.026 333.101 348.026C329.001 348.026 326.501 350.326 323.301 352.426C320.901 353.926 318.101 359.426 317.701 362.226C317.301 364.926 321.301 368.626 317.801 370.826L294.501 377.726C291.901 378.526 289.601 379.526 286.901 379.526L279.901 379.826C280.401 377.126 281.101 373.226 283.001 371.026C283.501 370.326 283.701 369.126 283.901 368.326C284.701 366.126 285.301 367.326 286.501 368.326C288.401 369.826 289.701 367.926 289.001 366.026C289.001 363.926 289.401 361.726 289.201 359.626C289.101 358.326 288.001 357.626 288.001 356.426C288.001 355.226 288.101 354.526 287.901 353.826L290.501 354.826C293.701 357.426 296.201 354.126 297.301 351.526C297.701 350.626 298.701 349.026 299.501 348.426C300.501 347.626 301.001 348.326 301.801 348.926C303.201 349.926 303.901 348.926 304.901 348.226C306.001 347.526 308.401 348.426 309.101 347.226C310.101 345.526 308.501 342.126 310.201 340.026C311.101 338.926 310.601 338.626 310.501 337.426C310.501 336.026 311.501 334.926 312.201 333.726C313.801 333.626 315.901 330.026 316.801 328.726C318.001 327.126 318.601 326.826 320.501 326.426C324.201 325.526 322.501 324.326 322.401 321.426C322.401 320.326 322.101 319.226 323.001 318.426C324.201 317.426 324.701 317.226 325.201 315.626C325.801 314.926 325.801 314.326 326.801 313.926C327.501 313.626 328.601 313.526 329.201 312.926C329.601 312.426 329.701 311.726 330.201 311.126C331.001 310.126 332.001 309.726 332.401 308.426C333.701 304.426 331.101 300.226 335.101 297.026C337.301 295.626 335.801 293.626 336.401 291.626C336.901 289.926 338.701 289.026 338.901 287.126C339.101 284.826 336.701 282.326 339.601 280.726C340.401 280.326 341.601 279.926 342.101 279.226L344.201 276.226C345.001 276.226 346.201 274.826 346.901 274.226C348.401 273.126 349.601 272.826 351.201 273.926C352.801 274.926 352.901 274.526 353.101 273.026C353.301 271.226 354.301 269.326 353.601 267.526C352.901 265.926 351.401 266.326 350.001 265.726C350.701 263.126 349.601 261.126 351.501 258.926C352.101 258.126 353.001 257.526 353.901 256.926C354.301 256.726 354.501 256.426 354.801 256.126C355.201 255.626 355.901 255.326 356.201 254.926C358.001 256.226 360.001 256.326 361.701 257.526L365.501 260.526C367.201 261.826 369.501 262.326 371.401 263.626C373.401 265.026 375.001 267.426 376.801 269.126C378.101 270.626 380.101 271.326 381.701 272.226C382.501 272.726 383.701 274.826 384.901 274.426C385.801 274.126 386.101 273.326 387.301 273.226C389.701 273.126 391.601 276.526 394.401 275.426L394.101 275.626Z" stroke="#5E83AF" stroke-opacity="0.3" stroke-miterlimit="10"/>
<path fill-rule="evenodd" clip-rule="evenodd" d="M356.001 255.125L356.601 251.825C358.001 251.225 360.101 249.025 360.401 247.525C360.701 246.025 360.001 243.525 360.001 241.825C360.001 240.725 359.401 240.525 358.701 239.825C357.301 238.625 358.701 236.425 357.601 235.225C356.301 233.725 356.901 231.625 355.701 229.825C355.201 228.025 352.001 225.325 350.301 224.325C349.601 223.925 347.701 223.225 347.501 222.425C347.101 221.325 347.501 220.225 347.501 219.125C347.401 217.425 347.001 216.025 345.801 214.825C344.601 213.625 345.201 211.525 343.901 210.325C342.901 208.825 341.701 208.225 341.001 206.525C340.701 205.925 341.601 204.425 341.701 203.625C341.701 200.925 341.901 199.725 339.901 197.625L337.501 195.125C336.001 193.625 336.701 192.925 336.201 191.225C338.301 188.525 341.001 189.625 344.101 189.025C346.701 188.525 346.601 186.225 347.601 184.025C348.701 181.625 350.401 182.825 352.201 182.525C353.101 182.325 354.801 182.525 355.201 181.625C356.201 179.225 357.101 181.425 358.001 182.325C359.401 183.725 361.001 181.125 362.101 179.925C363.901 178.425 364.701 176.125 361.501 175.825C360.101 175.625 358.001 175.925 357.001 174.625C355.601 172.725 355.301 169.825 353.801 167.725C352.301 165.525 350.901 163.325 350.901 160.525C351.701 157.925 345.301 153.625 348.601 151.825C350.701 150.725 351.001 150.825 351.901 148.625C352.201 147.825 352.201 147.025 352.401 146.225L353.901 141.725C354.601 140.625 353.901 136.425 356.501 136.425C358.301 138.225 360.501 139.125 363.201 138.625C367.201 137.725 365.701 135.925 368.501 138.625C369.501 139.525 370.801 139.125 371.901 139.125C374.801 139.125 373.901 137.525 376.001 136.225C377.801 135.025 380.701 136.025 382.701 135.025C384.801 133.825 385.401 129.325 385.901 127.225C386.701 124.325 386.501 121.225 387.301 118.425L388.501 116.025C390.801 116.425 393.301 116.025 395.601 116.325C397.901 116.525 400.201 121.225 401.001 123.125C402.001 125.825 402.801 129.525 403.001 132.425C402.801 133.725 402.201 134.125 401.301 134.925C400.001 136.025 403.801 138.025 400.901 138.625C399.201 138.925 398.601 138.825 398.901 140.925C399.201 142.725 399.701 146.525 398.501 148.025C398.001 148.725 397.301 151.225 398.501 151.325C399.701 151.325 399.901 151.825 400.201 152.925C399.801 154.225 400.301 156.625 400.301 158.125C400.301 159.625 400.401 161.525 401.101 162.625C401.901 163.025 402.101 162.925 403.001 162.925C403.401 163.225 403.201 167.225 403.301 168.025C403.301 169.725 404.501 171.125 404.501 172.725C404.501 173.725 404.601 175.225 404.901 176.225C405.201 177.625 407.101 177.825 407.101 179.525C407.101 180.625 406.901 182.025 407.201 183.025C407.401 183.725 408.401 184.225 408.501 185.025C408.601 185.925 408.901 188.125 408.101 188.825C407.301 189.625 407.601 191.725 407.701 192.825C408.001 196.325 409.801 197.825 413.301 197.625C416.601 197.425 416.401 197.325 418.001 200.125C419.101 202.125 421.501 200.825 423.201 201.925L429.701 206.025C431.401 207.125 432.901 209.525 434.401 211.025L440.301 217.025L441.501 221.425C441.501 223.825 441.701 226.125 441.301 228.525C441.001 230.625 438.701 233.125 437.301 234.625C436.201 235.825 436.601 236.825 436.801 238.225C437.101 240.025 437.901 242.825 436.501 244.325C435.601 245.725 433.301 248.025 431.901 248.825C429.501 250.225 427.701 249.725 425.001 250.125C423.001 250.425 414.301 254.025 414.901 256.225C415.501 258.425 418.201 259.925 418.801 262.025L422.701 267.925C423.901 269.725 417.401 268.625 416.601 268.725C414.401 269.025 413.601 271.225 411.501 268.825C410.001 267.225 408.501 264.725 406.201 266.825C404.701 268.125 404.601 267.725 403.001 268.225C401.601 268.625 401.501 270.525 401.501 271.725C401.501 273.525 399.101 272.625 398.101 272.625C395.601 272.625 395.801 274.725 394.101 275.825C391.301 276.925 389.501 273.425 387.001 273.625C385.801 273.625 385.501 274.525 384.601 274.825C383.401 275.225 382.201 273.125 381.401 272.625C379.701 271.725 377.701 271.025 376.501 269.525C374.701 267.725 373.201 265.425 371.101 264.025C369.301 262.725 366.901 262.225 365.201 260.925L361.401 257.925C359.801 256.625 357.701 256.625 355.901 255.325H356.001V255.125Z" stroke="#5E83AF" stroke-opacity="0.3" stroke-miterlimit="10"/>
<path fill-rule="evenodd" clip-rule="evenodd" d="M384.901 49.1254V53.7254C385.601 54.6254 387.101 55.3254 387.401 56.1254C387.901 57.4254 387.401 60.7254 387.001 62.0254C386.501 63.6254 386.301 64.5254 385.101 65.7254C382.101 68.9254 386.501 68.0254 386.401 70.7254C386.401 71.8254 385.901 72.9254 386.701 73.8254C387.601 75.0254 389.201 74.6254 390.401 75.3254C392.101 76.4254 392.401 76.7254 392.401 78.7254C392.401 80.7254 393.101 80.7254 393.801 81.7254C395.501 84.1254 395.001 90.3254 394.601 93.1254C394.301 94.3254 393.701 95.5254 393.401 96.6254C392.701 99.2254 392.401 100.925 389.501 101.225C388.301 101.325 387.301 101.225 386.101 101.525C384.701 102.025 385.601 105.625 386.201 106.525C386.801 107.425 387.801 107.925 388.101 109.025C388.401 110.025 388.101 111.225 388.401 112.225V115.825H388.301C390.601 116.225 393.101 115.825 395.401 116.125C397.701 116.325 400.001 121.025 400.801 122.925C401.801 125.625 402.601 129.325 402.801 132.225C402.601 133.525 402.001 133.925 401.101 134.725C399.801 135.825 403.601 137.825 400.701 138.425C399.001 138.725 398.401 138.625 398.701 140.725C399.001 142.525 399.501 146.325 398.301 147.825C397.801 148.525 397.101 151.025 398.301 151.125C399.501 151.125 399.701 151.625 400.001 152.725C399.601 154.025 400.101 156.425 400.101 157.925C400.101 159.425 400.201 161.325 400.901 162.425C401.701 162.825 401.901 162.725 402.801 162.725C403.201 163.025 403.001 167.025 403.101 167.825C403.101 169.525 404.301 170.925 404.301 172.525C404.301 173.525 404.401 175.025 404.701 176.025C405.001 177.425 406.901 177.625 406.901 179.325C406.901 180.425 406.701 181.825 407.001 182.825C407.201 183.525 408.201 184.025 408.301 184.825C408.401 185.725 408.701 187.925 407.901 188.625C407.101 189.425 407.401 191.525 407.501 192.625C407.801 196.125 409.601 197.625 413.101 197.425C416.401 197.225 416.201 197.125 417.801 199.925C418.901 201.925 421.301 200.625 423.001 201.725L429.501 205.825C431.201 206.925 432.701 209.325 434.201 210.825L440.101 216.825C441.701 216.525 441.501 216.125 442.101 214.925C442.601 213.925 450.201 213.825 451.501 213.825L455.101 217.525C456.201 218.625 455.801 219.225 456.301 220.525C456.901 221.925 458.101 224.625 459.601 225.325C461.601 226.125 462.901 224.625 465.001 225.325C468.601 228.025 468.501 222.925 471.401 222.525C474.301 222.125 477.501 223.425 477.901 221.525C478.801 218.225 479.001 220.225 481.001 220.225C483.001 220.225 482.301 217.425 483.501 215.925C484.701 214.325 487.501 214.925 489.501 214.725C490.201 214.425 490.801 214.125 491.201 213.425C491.301 213.125 491.501 212.825 491.701 212.625C492.301 212.225 492.701 212.125 493.301 212.025C494.001 212.025 494.701 212.025 495.501 211.925L497.301 211.025L496.101 205.425C495.501 204.525 494.701 204.125 494.101 203.325C493.501 202.425 493.401 200.325 494.301 199.625C496.501 198.125 497.301 195.725 498.401 193.425C499.001 192.225 499.701 191.225 500.701 190.225C501.701 189.225 499.301 186.925 498.601 185.825C497.801 184.325 495.901 184.525 494.601 184.225C493.101 183.825 492.401 181.625 492.601 180.325C492.901 178.725 495.501 177.325 494.601 175.625C494.301 175.125 494.301 174.525 494.301 173.925C494.201 172.325 494.301 171.425 493.701 169.925C492.801 167.925 491.101 166.825 492.201 164.525C495.901 162.925 491.901 159.725 494.201 157.725C495.101 156.925 495.101 156.725 495.301 155.525C495.601 154.125 497.301 153.425 497.301 151.925C497.301 151.325 497.001 148.625 496.601 148.125C495.801 147.125 495.001 147.325 494.701 145.925C494.501 145.025 494.401 143.825 494.701 143.025C495.701 139.725 495.601 137.825 492.801 135.725C490.501 133.925 487.901 129.325 485.001 128.825C484.101 128.625 482.501 129.025 481.901 128.425C481.401 127.825 481.601 126.725 481.401 126.025C481.101 124.925 482.201 124.525 482.801 123.925C484.801 122.325 483.101 120.925 482.301 119.425C481.501 117.925 482.201 116.725 481.701 115.225C481.201 113.725 480.201 114.225 479.901 113.025C479.701 112.325 479.701 111.625 479.701 110.925C479.701 109.525 476.601 109.525 476.001 108.025C474.901 105.625 469.801 108.225 469.701 104.425C469.701 102.925 469.301 101.325 467.801 100.625C465.801 99.7254 466.401 98.9254 466.201 97.1254C466.101 96.0254 464.701 95.7254 465.301 94.4254C465.601 93.9254 465.401 91.9254 465.401 91.2254C464.801 90.9254 464.001 91.0254 463.301 90.8254C462.501 90.6254 462.001 90.1254 461.401 89.6254C459.901 88.3254 459.801 87.1254 460.001 85.2254C460.201 84.0254 460.301 83.3254 459.201 82.8254C458.001 82.2254 456.401 81.8254 455.101 81.5254C452.801 81.0254 448.601 79.8254 448.301 77.1254C448.101 75.3254 450.101 74.3254 449.701 72.8254C449.301 71.4254 449.401 71.5254 450.201 70.3254C450.801 69.2254 451.101 68.8254 452.401 68.4254C453.501 68.1254 454.201 68.1254 454.901 67.0254C456.901 64.6254 452.901 61.7254 455.001 59.8254C456.401 58.6254 456.101 58.3254 455.001 57.1254C453.901 55.9254 454.101 55.8254 453.801 54.7254L454.801 50.8254H454.701C452.001 50.8254 448.201 54.9254 447.601 50.1254C446.701 49.6254 445.501 52.3254 443.501 51.2254L439.601 49.1254C436.801 47.6254 435.801 45.4254 432.601 45.4254C429.401 45.4254 431.201 41.5254 429.201 42.9254C428.001 43.7254 427.301 45.2254 426.001 45.8254C425.001 46.6254 424.401 47.2254 423.601 48.0254C422.801 48.8254 421.901 48.2254 421.101 48.6254C418.601 49.9254 417.701 51.7254 414.601 50.9254C412.401 50.3254 412.101 51.9254 410.501 53.1254C409.601 53.8254 406.101 57.6254 404.901 56.6254C402.801 54.8254 401.801 51.6254 399.101 50.7254C397.201 50.1254 395.101 50.1254 393.301 49.1254C392.101 48.6254 390.901 48.1254 390.001 47.2254C389.301 46.6254 388.901 46.2254 388.101 46.6254C386.701 47.2254 385.701 48.3254 384.401 49.0254L384.901 49.1254Z" stroke="#5E83AF" stroke-opacity="0.3" stroke-miterlimit="10"/>
<path fill-rule="evenodd" clip-rule="evenodd" d="M130.201 297.426C131.601 300.026 131.601 301.926 129.801 304.326C127.401 307.526 126.001 311.326 123.501 314.526C122.501 315.826 121.301 317.026 119.501 317.226C117.901 317.426 116.301 317.926 116.301 319.826C117.001 322.626 116.701 325.926 118.801 328.026C119.101 328.426 120.101 329.526 120.601 329.626C122.001 329.926 121.701 325.526 123.701 327.626C124.801 328.826 126.001 329.926 127.501 330.626C129.601 331.626 130.801 331.426 130.201 333.926C129.701 336.326 133.301 335.326 131.601 338.826C131.201 340.426 131.101 342.726 133.501 341.826C134.701 341.326 139.301 337.126 140.101 339.626C140.401 340.526 140.201 341.826 140.101 342.726C139.901 343.826 140.101 345.326 140.101 346.426C139.101 346.426 137.901 346.826 137.001 347.126L130.001 349.426C127.601 350.226 128.301 348.026 125.501 349.226C121.301 351.026 117.101 353.426 114.001 357.026C113.401 357.726 106.501 355.626 104.901 355.626C102.201 355.826 99.401 358.726 97.201 356.526C95.001 354.326 89.901 357.026 88.501 357.226C85.601 357.526 86.101 357.926 84.301 355.726C83.001 354.026 80.101 353.626 78.701 351.726C78.701 349.726 79.401 346.426 78.601 344.526C77.301 343.526 76.001 343.226 76.701 341.126C76.801 340.426 77.401 338.126 76.701 337.726C75.701 337.226 73.501 337.326 72.801 336.426C72.201 335.626 72.401 335.026 71.301 335.026C70.201 335.026 68.301 335.926 67.401 335.826C66.601 335.726 67.001 332.826 66.901 332.126C66.801 331.326 66.301 330.626 66.201 329.826C65.001 329.226 63.101 329.626 61.701 329.026C59.901 327.626 61.101 324.826 57.201 327.826C55.801 328.826 52.401 331.126 50.901 330.226L46.301 327.726C44.101 326.526 45.601 325.826 46.001 323.526C46.301 321.926 45.501 317.026 44.201 316.226C42.701 315.326 41.701 314.026 40.601 312.726C39.401 311.326 32.401 320.226 31.301 321.726C31.001 322.126 29.601 322.026 29.301 321.926C29.301 320.826 29.101 319.726 28.901 318.626C28.001 314.126 27.401 309.726 28.401 305.226C29.301 301.326 28.401 296.126 28.201 292.026C28.201 289.426 26.801 286.326 26.201 283.926C25.801 283.926 25.201 284.226 24.601 284.126L21.901 283.826C21.201 283.326 21.201 282.826 20.301 282.426L18.001 281.526C16.601 281.026 14.201 280.026 13.401 278.726C13.001 278.126 12.901 276.826 12.501 276.326C12.001 275.726 9.10101 276.726 8.30101 276.826C5.90101 277.126 4.40101 275.626 2.00101 275.626C-0.198994 275.626 0.301006 273.626 1.70101 272.726C3.50101 271.526 2.10101 270.726 2.70101 269.426C3.00101 268.126 4.00101 266.326 5.30101 265.726C6.60101 265.126 8.40101 266.126 8.90101 264.726C10.101 261.526 11.801 258.526 11.901 255.026C11.901 254.126 11.901 249.526 12.201 249.126C12.901 248.426 14.301 248.626 15.101 247.726C16.801 247.326 17.001 247.326 17.501 245.826C17.701 245.126 20.001 245.426 20.501 245.326C22.701 245.026 26.601 246.526 28.401 245.726C29.801 245.026 30.601 243.826 32.201 243.226C32.901 243.026 34.001 241.926 34.701 240.926L40.201 241.926C42.301 242.126 45.801 243.526 47.101 245.126C48.501 246.926 49.001 249.626 50.601 251.426C51.801 254.826 56.001 256.226 56.101 260.426C56.101 262.326 55.601 264.026 55.501 265.926L55.201 272.226C54.601 273.226 54.801 277.826 54.801 279.226C54.801 281.426 55.601 282.926 57.901 283.126C61.801 283.626 63.601 285.526 66.701 287.526C68.901 288.926 71.801 290.526 72.601 293.126C73.301 296.026 78.501 297.926 80.901 299.326C81.901 299.926 82.701 300.326 83.101 301.526C84.101 304.826 82.201 305.026 86.801 305.026C91.401 305.026 93.101 305.426 93.501 302.726C93.801 300.626 94.401 297.326 96.601 296.426C99.501 296.426 99.701 297.426 101.801 299.226C103.201 300.426 104.301 300.726 104.701 302.626C105.201 304.826 105.701 306.726 107.501 308.126C110.301 310.326 111.501 302.126 112.101 300.726C115.001 294.026 117.701 298.626 123.101 298.026L130.001 297.426H130.201Z" stroke="#5E83AF" stroke-opacity="0.3" stroke-miterlimit="10"/>
<path fill-rule="evenodd" clip-rule="evenodd" d="M178.601 232.125C180.001 233.025 181.201 233.225 182.401 234.625C183.801 236.325 184.101 239.825 184.501 242.025C185.001 244.525 185.501 244.425 188.001 244.225C188.701 244.225 189.501 244.225 190.101 244.525C191.301 245.125 190.901 245.525 192.501 245.725C193.801 245.825 195.701 246.125 196.001 247.625C196.301 249.025 193.801 250.025 193.101 250.925C191.701 252.725 187.901 252.325 187.401 255.025C187.001 257.025 187.201 258.826 186.901 260.826C186.501 263.826 183.001 264.025 184.901 267.025C185.801 268.325 185.301 269.325 187.101 270.125C188.801 270.825 189.501 270.926 190.801 272.326C191.601 273.626 193.001 274.226 194.501 274.426C195.901 274.526 197.201 273.826 198.501 273.826C199.001 274.626 199.301 275.725 199.801 276.525C200.501 277.725 201.301 278.925 201.801 280.225C202.201 281.425 202.301 282.826 202.701 283.926C203.601 285.926 203.101 288.326 203.901 290.426C205.101 293.726 209.401 287.825 210.701 292.725C211.301 295.025 209.601 296.625 209.301 298.725C209.001 300.825 210.301 302.025 212.401 301.525C214.001 301.125 214.501 299.626 216.401 299.826C218.601 300.126 221.901 299.626 223.901 300.326C224.601 300.526 225.101 304.326 225.601 305.426C226.701 306.826 228.201 308.225 229.101 309.625C230.101 311.225 229.301 316.125 229.501 318.225C229.801 321.725 232.501 322.926 234.301 325.426C235.301 327.026 234.501 327.225 234.301 328.725C234.101 330.925 235.501 333.326 237.001 334.926C237.801 335.826 239.601 337.725 239.601 339.025C239.601 340.725 232.901 339.625 231.801 339.525C230.501 339.425 231.101 340.625 231.101 341.625C231.101 343.025 231.101 344.225 230.601 345.625C230.301 346.125 230.601 346.526 230.101 346.826C227.701 348.726 231.001 351.725 229.501 352.725C227.801 353.925 227.101 354.125 227.501 356.525C227.601 357.125 227.701 358.025 227.301 358.525C226.701 359.325 225.101 357.825 225.301 359.525C225.701 362.625 223.501 360.425 222.801 361.525C221.801 363.025 221.101 365.125 220.301 366.725C220.301 367.725 219.901 368.726 220.101 369.826C220.301 371.326 221.401 372.525 221.601 374.025C221.701 375.225 221.601 377.825 221.201 379.025C219.201 379.025 218.701 380.426 216.901 380.926C215.601 381.326 212.201 379.525 211.101 378.725C209.501 377.525 209.001 379.125 207.201 378.725C205.301 378.225 204.401 376.526 203.201 378.826C202.001 381.126 200.301 383.325 197.501 381.725C194.001 379.725 187.601 380.626 192.101 377.426L196.101 374.525C197.101 373.725 198.201 370.126 198.101 368.926L195.701 366.926C195.401 366.226 191.201 366.925 189.901 366.125L181.301 363.025C179.001 362.225 180.101 358.626 177.101 359.426C175.201 359.926 174.401 359.025 172.401 359.025C169.101 359.025 167.901 359.925 164.901 361.225C162.801 362.125 156.101 361.225 155.801 358.225C154.401 357.225 154.401 355.725 154.601 354.125C154.701 352.925 152.701 352.926 151.901 352.326C151.101 351.726 150.501 352.725 149.801 353.025C148.001 353.825 147.801 351.925 146.401 351.625C145.001 351.325 144.401 351.525 143.501 351.625C140.601 352.025 140.101 349.326 140.101 346.926H140.001C140.001 345.726 139.701 344.225 140.001 343.125C140.201 342.225 140.301 340.925 140.001 340.025C139.201 337.525 134.601 341.725 133.401 342.225C131.001 343.125 131.101 340.825 131.501 339.225C133.201 335.725 129.701 336.726 130.101 334.326C130.601 331.826 129.401 332.025 127.401 331.025C125.901 330.325 124.701 329.225 123.601 328.025C121.601 325.925 122.001 330.325 120.501 330.025C120.001 330.025 119.101 328.826 118.701 328.426C116.601 326.226 116.901 322.925 116.201 320.225C116.201 318.325 117.901 317.825 119.401 317.625C121.201 317.425 122.301 316.226 123.401 314.926C126.001 311.726 127.401 307.925 129.701 304.725C131.401 302.325 131.501 300.426 130.101 297.826L129.001 295.225C129.001 293.625 129.001 291.326 128.501 289.826C128.001 288.226 127.301 287.126 127.501 285.326C127.801 281.526 130.801 281.325 133.301 279.525C134.101 278.925 132.901 275.326 133.801 273.926C134.801 271.926 140.401 268.326 138.301 265.826C136.701 263.926 133.001 259.825 133.401 257.025H139.801C143.801 257.225 149.501 255.225 153.201 257.025C157.001 258.825 159.901 261.626 164.501 260.926C166.501 261.126 168.301 262.825 170.401 262.525C171.301 262.425 173.401 260.326 172.901 259.326C172.401 258.426 171.401 258.125 171.101 257.025C170.901 256.225 170.701 253.625 170.901 252.925C171.101 252.225 172.301 252.325 172.701 251.525C173.101 250.725 173.101 249.926 173.201 249.326V245.826C173.201 244.026 176.301 242.325 176.801 240.525C177.401 238.525 176.801 236.525 177.101 234.625L178.601 232.326H178.501L178.601 232.125Z" stroke="#5E83AF" stroke-opacity="0.3" stroke-miterlimit="10"/>
<path fill-rule="evenodd" clip-rule="evenodd" d="M82.701 158.426C81.601 159.126 79.101 157.426 78.201 156.926C77.501 156.526 76.801 156.726 76.201 156.426C74.201 155.426 71.301 157.726 69.301 158.626C65.101 160.426 64.501 163.326 62.401 166.826C61.901 168.926 59.601 168.026 58.101 168.226C57.101 168.326 55.101 171.826 55.401 172.626C55.801 173.726 56.501 174.326 55.701 175.526C54.901 176.626 53.201 178.926 51.901 179.326C51.101 179.626 50.001 179.926 49.501 180.626C48.801 181.626 48.801 182.726 48.901 183.926C49.201 185.526 51.601 187.826 51.301 189.226C50.701 191.426 47.301 192.626 47.301 194.726C47.301 196.826 47.901 197.626 47.301 199.126C46.201 201.926 44.301 201.426 46.501 204.226C46.501 205.126 47.301 205.426 47.201 206.526C47.201 207.426 46.901 207.726 46.201 208.226C45.301 208.926 45.001 209.226 45.001 209.626C47.001 211.326 49.001 213.126 49.001 215.226C49.001 216.926 49.901 218.226 50.001 219.626C50.301 223.826 51.201 223.126 54.501 225.426C55.501 226.126 56.201 228.026 56.001 229.326C56.001 229.826 55.901 230.326 55.801 230.826C55.501 231.026 55.401 231.226 55.101 231.226C53.501 231.726 51.901 232.526 50.601 233.626C49.301 234.726 49.301 235.326 49.001 235.226C47.501 234.826 45.201 232.126 44.101 231.026C42.601 229.626 43.301 228.926 41.001 228.426C38.301 227.926 38.801 228.826 36.701 230.126L35.701 232.626C34.901 234.226 34.601 234.126 34.601 236.126C34.601 238.126 35.201 238.426 35.201 239.526C35.201 240.626 34.901 240.526 34.501 241.226L40.001 242.226C42.101 242.426 45.601 243.826 46.901 245.426C48.301 247.226 48.801 249.926 50.401 251.726C51.601 255.126 55.801 256.526 55.901 260.726C55.901 262.626 55.401 264.326 55.301 266.226L55.001 272.526C54.401 273.526 54.601 278.126 54.601 279.526C54.601 281.726 55.401 283.226 57.701 283.426C61.601 283.926 63.401 285.826 66.501 287.826C68.701 289.226 71.601 290.826 72.401 293.426C73.101 296.326 78.301 298.226 80.701 299.626C81.701 300.226 82.501 300.626 82.901 301.826C83.901 305.126 82.001 305.326 86.601 305.326C91.201 305.326 92.901 305.726 93.301 303.026C93.601 300.926 94.201 297.626 96.401 296.726C99.301 296.726 99.501 297.726 101.601 299.526C103.001 300.726 104.101 301.026 104.501 302.926C105.001 305.126 105.501 307.026 107.301 308.426C110.101 310.626 111.301 302.426 111.901 301.026C114.801 294.326 117.501 298.926 122.901 298.326L129.801 297.726L128.701 295.126C128.701 293.526 128.701 291.226 128.201 289.726C127.701 288.126 127.001 287.026 127.201 285.226C127.501 281.426 130.501 281.226 133.001 279.426C133.801 278.826 132.601 275.226 133.501 273.826C134.501 271.826 140.101 268.226 138.001 265.726C136.401 263.826 132.701 259.726 133.101 256.926L131.501 254.426V246.226C131.501 243.126 130.201 240.426 133.101 238.226C133.801 237.626 135.101 238.226 136.001 237.926C137.701 237.326 138.701 235.226 140.001 234.026C140.601 233.526 143.301 230.126 142.801 229.626C142.301 229.026 140.801 228.226 140.101 227.726C138.601 226.626 138.401 225.126 138.201 223.426C138.401 219.926 135.201 220.726 133.301 218.226C131.001 215.326 129.401 210.426 127.901 206.926C127.101 205.026 124.801 205.126 124.701 202.826C124.701 200.426 121.901 200.326 121.901 198.026C121.901 195.726 121.901 194.526 119.201 192.526C117.701 191.426 116.701 190.426 115.501 188.926C114.401 187.426 114.201 184.626 113.701 182.826C113.701 178.226 110.201 175.126 110.301 170.426C110.301 168.526 109.701 168.426 108.101 168.326C107.201 168.726 105.201 170.726 104.401 169.926C103.601 169.026 103.001 167.326 102.001 166.826C98.301 164.926 93.901 168.826 91.401 163.726C90.201 161.226 88.301 161.226 86.201 160.026L82.501 158.526L82.701 158.426Z" stroke="#5E83AF" stroke-opacity="0.3" stroke-miterlimit="10"/>
<path fill-rule="evenodd" clip-rule="evenodd" d="M592.5 205.9C598.2 208.1 601.9 211.7 608.2 212.1C611.7 212.3 613.4 213.6 616.3 215.3C619 216.8 621.6 215.9 624.1 214.8C626.8 213.9 628.6 211.1 630.4 209C631.7 207.4 632.4 205.8 634.7 205.9H639.9C642.7 206.1 642.5 201.8 644.9 202.1C646 202.2 646.9 202.8 647.9 201.9C648.6 201.2 649.8 200.8 650.8 200.7L652.7 200.5C654.1 200.4 655.1 198.8 656.7 198.6C658.8 198.3 660.4 199.7 662.5 198.6C663.8 197.9 665.2 195.1 666.3 194C663.1 192.7 658.8 195.7 655.1 194.6C652.7 193.9 656.2 189.5 654.1 188C653.7 187.7 652.6 188 652 187.9C650 187.4 650.3 185.9 648.5 188.1C647.2 189.7 643.4 191.9 641.4 191.9C639.4 191.9 640.4 188.6 638.9 187.3C637 185 634.7 185.6 634.2 182.1C634 180.8 633.9 177.6 632.6 177C631.3 176.4 630 177.3 629 177.2C628.3 177.2 626 174.6 625.9 173.8C625.9 173.1 626.2 172.1 625.9 171.5C625.3 170.5 624.6 169.8 624 168.8C623.7 167.8 623 166.6 622.9 165.6C622.7 164.5 625.6 162.3 626.4 161.6C627.6 160.5 625.7 160.1 625.1 159.4C623.9 158.1 621.8 156.2 621.9 154.4C621.9 153.7 622.7 152.7 622.9 152L623.8 148.8C625 147.9 625.8 146.9 627.3 146.5C627.9 146.4 629.9 145.9 630.1 145.2C630.4 144.2 630.1 143.8 630.6 142.8C631.1 141.9 632.8 140.6 633.5 139.8C634.3 138.9 636 139 636.8 138.1C638.2 136.7 635.9 135.2 637 133.6C637.4 133 638.2 132.4 638.5 131.8C638.9 131 638.6 129.8 638.7 129C638.5 128.3 638.2 127.3 638.4 126.6C638.6 125.8 639 125 639.3 124.3L639.6 122.3L639.8 119.7C638.5 117.8 637.8 115.9 637.8 113.6C637.8 111.3 635.6 108.8 633.5 107.9C632 107 631.5 107.3 630.4 108.4C629.3 109.4 628.8 107.5 627.6 108.8C627.1 109.3 626.6 110.3 625.7 110C623.5 109.1 621.5 103.7 620.8 101.6C619.8 98.5 622.2 99.7 623.6 100.8C624.9 101.7 624.8 98.8 624.8 98.2C624.8 96.4 626.6 98.1 627.7 97.9C628.7 98.2 630.2 99.3 630.6 97.6C630.9 96.4 631.3 95.9 632 97.1C633.6 99.7 634.7 96.2 635.1 94.9C635.5 93.7 634.7 92 635.6 90.9C636 90.4 636.6 89.4 635.5 89.4C634.4 89.4 633 89.3 632 88.4C631 87.8 629.5 85.8 628.3 86.1C626.7 86.4 625.2 86.8 624 87.7C619 91.2 620.4 82.3 617.2 82.7C614.5 83 612.9 80.5 611.1 78.8C609.3 77.1 608.1 78.8 606.9 78.3C605 77.4 605.4 75.3 605.9 73.7C607.2 71.4 606.8 71.1 605.9 69.1C604.9 67 602.9 68.2 602.2 66.1C602.2 65.9 602 65.7 601.9 65.5C601.2 66.1 598.9 68 598.1 68.4C597.2 68.8 596.7 67.9 595.9 67.8C591.8 67 591.4 72.1 588.7 73.4C587 75.5 585.2 78.1 582.2 77.8C579.5 77.5 580 80.1 580.3 82C580.7 84.1 580.2 84.8 580 86.8C580 88.1 580.4 90.9 579.9 92C579.6 92.7 578.5 93.3 577.9 94C577.2 96.2 577.7 98.2 578.7 100.1C579.9 102.5 578.5 104.4 578.1 106.7C577.9 107.9 576.8 108.8 576.5 110C576.1 111.5 577.6 112.5 577.5 114.1C577.5 115.5 577.2 116.5 576.5 117.8C575.8 119 573.9 120.7 573.9 122C573.9 123.9 573.5 127.8 574.3 129.4C575.2 131.1 575.8 132.3 574.7 134.1C574.1 134.5 573.8 136.8 573.7 137.6C573.5 138.8 573.8 139.7 574.2 140.9C574.7 142.8 575.4 145.2 574.9 147.2C574.4 149.2 575.4 149.2 575.7 151C576 152.9 574 154.2 573.2 155.8L572.5 159.5C573.5 160.1 574.2 161.4 575.2 162.1C577.3 163.5 577.1 164.5 577.1 166.7C577.1 168.9 578.7 170 580.2 171.5C581.6 173.4 581.9 175.4 583.7 177.1C586.4 179.5 588.3 181.5 589.6 185C590.1 186.5 591.1 188.2 592.4 189.1C593.3 189.8 593.9 190.4 593.4 191.6C593.9 193 593.6 193 595 193.4C596 193.7 595.4 194.8 595.4 195.5C595.4 196.7 596 198 596.5 199.1C596.7 199.6 597.6 201.4 596.7 201.7C595.5 202.2 594 201.5 593.6 203.1C593.3 204 593.1 205.4 593.1 206.3L592.5 205.9Z" stroke="#5E83AF" stroke-opacity="0.3" stroke-miterlimit="10"/>
<path fill-rule="evenodd" clip-rule="evenodd" d="M489.901 214.625C490.301 216.725 489.801 219.725 489.801 221.925C489.801 224.125 491.901 222.425 491.901 223.525C491.901 225.325 491.901 228.025 492.401 229.725C492.601 230.525 493.301 231.625 493.701 232.325C494.201 233.225 494.201 234.125 494.401 235.125C494.401 236.025 495.601 236.625 495.701 237.725C495.701 238.625 496.201 239.925 496.701 240.625C497.801 242.325 499.901 242.225 500.501 244.425C500.801 245.425 501.301 246.825 500.901 247.725C500.201 249.325 499.201 251.025 500.901 252.325C502.501 253.625 504.101 254.125 503.701 256.525C503.401 260.225 504.501 264.625 501.601 267.225C498.501 270.025 499.401 272.725 499.001 276.425C499.001 278.025 499.101 277.925 498.501 279.225C497.601 281.125 500.101 282.325 501.501 282.825C504.901 284.025 504.901 287.425 505.301 290.525C505.401 291.725 504.801 293.225 505.801 294.225C507.001 295.425 508.901 295.325 510.401 296.025C511.601 296.525 517.501 300.025 517.701 301.025C518.001 302.725 517.901 304.525 517.901 306.225C517.901 307.925 519.301 308.325 519.001 309.925C517.801 317.925 524.801 312.125 527.601 316.625C528.001 317.325 528.401 317.925 528.701 318.725C529.401 320.425 531.201 321.425 532.801 321.925C533.601 322.225 534.201 323.225 534.901 323.725L536.301 324.225C538.001 323.425 534.701 319.725 537.201 319.125C539.901 318.425 540.901 318.125 540.401 315.225C539.701 310.825 542.101 312.425 544.101 309.625C545.001 308.325 544.001 307.425 544.501 306.525C544.801 306.025 545.701 305.625 546.101 305.225C546.801 304.625 546.801 302.925 546.901 302.125C547.201 301.825 547.401 300.925 547.901 300.925C550.701 300.925 547.601 297.725 551.601 297.325C553.701 297.125 555.501 295.325 557.801 294.825C561.601 294.025 564.101 289.425 567.901 289.925C571.501 290.425 574.101 287.325 574.301 283.725C574.801 282.925 574.501 282.125 575.201 281.325C575.901 280.525 578.001 278.925 577.901 277.825C577.701 276.225 576.601 275.025 576.901 273.425C577.201 271.925 578.501 271.025 578.501 269.425C578.501 268.225 579.901 266.925 580.801 266.225V263.325C581.201 262.925 581.301 262.325 581.701 262.125C582.301 261.625 584.201 260.825 584.401 260.125C584.601 259.325 584.001 258.725 583.801 258.125C583.501 256.925 583.701 255.525 583.901 254.325C584.201 253.125 583.401 251.425 583.401 250.025C584.501 248.825 585.901 248.025 586.901 246.725C588.301 244.925 589.801 241.825 592.001 241.125C592.901 240.825 593.901 241.125 594.701 240.725C595.801 240.125 597.101 238.525 598.201 237.725C601.701 235.125 606.301 236.125 607.101 230.625C607.001 229.225 607.101 228.025 606.001 226.925C605.001 225.925 605.001 225.825 605.001 224.425C605.001 222.725 603.201 220.525 601.501 220.525C599.801 220.525 599.101 221.025 597.301 219.525C595.801 218.225 595.401 215.825 593.501 215.025C590.701 213.925 590.001 213.725 592.001 211.125L593.001 205.325C593.001 204.325 593.301 203.025 593.501 202.125C593.901 200.425 595.401 201.125 596.601 200.725C597.501 200.325 596.601 198.625 596.401 198.125C595.901 197.025 595.201 195.725 595.301 194.525C595.301 193.825 596.001 192.625 594.901 192.425C593.501 192.125 593.701 192.125 593.301 190.625C593.701 189.425 593.101 188.825 592.301 188.125C591.001 187.125 590.101 185.425 589.501 184.025C588.201 180.525 586.301 178.525 583.601 176.125C581.801 174.425 581.501 172.425 580.101 170.525C578.601 169.025 577.001 168.125 577.001 165.725C577.001 163.325 577.201 162.525 575.101 161.125C574.101 160.425 573.401 159.125 572.401 158.525L571.301 159.925C571.001 161.625 570.401 162.225 569.201 163.425C568.001 164.625 568.301 165.025 569.101 166.025C570.501 167.625 570.601 170.025 569.201 171.625C567.801 173.225 565.801 172.625 564.401 174.025C564.401 175.025 563.201 176.125 562.601 176.825C562.001 177.625 561.401 177.325 560.701 177.725C559.101 178.625 559.501 181.725 559.701 183.225C560.001 187.025 564.601 188.825 562.401 193.125C561.201 195.125 560.201 197.025 559.701 199.225C559.101 202.225 555.601 200.125 554.001 201.725C552.401 203.325 553.001 203.525 551.201 204.025C548.901 204.525 547.901 204.825 546.401 206.825C545.601 207.925 544.601 207.325 543.401 207.325C542.201 207.325 542.101 208.725 541.301 209.525C540.301 210.525 539.301 208.625 538.501 207.825C537.401 206.325 537.001 204.425 536.901 202.625C536.801 200.525 535.101 200.925 533.501 200.625C532.501 200.425 531.501 199.625 530.701 199.525C529.701 199.425 528.701 199.525 527.701 199.425C526.301 199.325 523.901 198.425 522.601 198.725C520.101 199.225 517.701 202.625 515.601 202.725C514.201 204.125 512.601 205.225 511.501 206.925C510.601 208.225 509.101 209.025 508.701 210.525C508.401 211.625 508.401 212.625 507.001 212.625C505.301 212.625 504.601 211.825 503.301 211.025C501.801 210.025 499.201 210.625 497.701 210.725L495.901 211.625C495.201 211.725 494.501 211.625 493.701 211.725C493.001 211.725 492.701 211.925 492.101 212.325C491.501 212.725 491.801 212.925 491.601 213.125C491.201 213.825 490.601 214.125 489.901 214.425V214.625Z" stroke="#5E83AF" stroke-opacity="0.3" stroke-miterlimit="10"/>
<path fill-rule="evenodd" clip-rule="evenodd" d="M572.701 158.925L573.401 155.225C574.201 153.625 576.201 152.325 575.901 150.425C575.601 148.625 574.501 148.625 575.101 146.625C575.601 144.625 575.001 142.225 574.401 140.325C574.101 139.125 573.701 138.325 573.901 137.025C574.001 136.325 574.301 133.925 574.901 133.525C575.901 131.725 575.401 130.525 574.501 128.825C573.601 127.225 574.101 123.325 574.101 121.425C574.101 119.525 576.001 118.525 576.701 117.225C577.401 116.025 577.701 115.025 577.701 113.525C577.801 111.925 576.301 111.025 576.701 109.425C577.001 108.225 578.101 107.325 578.301 106.125C578.701 103.825 580.101 101.825 578.901 99.5254C577.901 97.6254 577.501 95.6254 578.101 93.4254C578.601 92.6254 579.801 92.1254 580.101 91.4254C580.601 90.3254 580.101 87.5254 580.201 86.2254C580.301 84.3254 580.901 83.5254 580.501 81.4254C580.101 79.5254 579.601 76.9254 582.401 77.2254C585.301 77.6254 587.201 74.9254 588.901 72.8254C591.601 71.5254 592.001 66.4254 596.101 67.2254C596.901 67.3254 597.401 68.2254 598.301 67.8254C599.101 67.5254 601.501 65.5254 602.101 64.9254C601.601 64.0254 600.901 63.2254 600.901 62.3254C600.901 61.4254 601.401 60.9254 601.201 60.5254C600.101 60.4254 598.601 60.7254 597.601 60.1254C595.901 59.2254 596.401 61.6254 595.401 61.6254C594.701 61.6254 594.101 60.5254 593.901 59.9254C593.401 58.1254 593.501 58.4254 592.001 57.7254C590.901 57.0254 589.301 57.2254 588.001 56.7254C586.601 56.2254 586.001 55.1254 584.701 54.5254C583.701 54.0254 582.701 54.5254 581.801 54.0254C580.601 53.4254 579.601 52.2254 578.701 51.2254C578.001 50.5254 577.201 50.4254 576.401 50.0254C575.301 50.0254 574.001 50.6254 573.401 49.4254C572.901 48.4254 573.401 47.4254 573.101 46.5254C572.901 45.8254 567.901 47.0254 567.101 47.0254C565.301 47.1254 565.201 45.5254 563.601 46.0254C561.001 46.9254 559.101 47.1254 556.901 45.2254C555.401 44.0254 551.001 47.4254 552.401 48.7254C553.601 49.8254 553.301 51.0254 551.901 51.8254C550.501 52.9254 551.201 54.3254 550.001 55.3254C549.201 56.0254 547.801 57.0254 546.801 57.3254C544.201 58.0254 546.701 63.2254 544.301 65.0254C542.601 66.3254 539.401 66.6254 537.701 65.1254C534.201 62.0254 534.601 62.8254 530.901 65.1254C530.001 65.7254 527.601 64.1254 526.201 64.2254C524.401 64.3254 521.601 65.8254 521.101 63.1254C520.601 60.4254 518.901 63.3254 518.201 63.3254C515.701 63.8254 514.901 59.3254 513.901 63.7254C513.501 65.6254 509.601 62.8254 509.001 62.0254C507.801 60.5254 507.401 61.6254 506.201 60.5254C504.801 59.2254 503.901 56.8254 501.701 57.1254C498.401 57.7254 496.601 56.2254 494.901 59.9254C492.801 64.4254 488.001 58.9254 486.101 56.6254C485.301 55.8254 486.501 54.8254 485.701 54.0254C484.901 53.3254 483.701 53.0254 482.901 52.2254C480.401 49.6254 480.401 54.7254 479.301 55.4254C478.001 56.3254 476.001 55.9254 474.701 55.2254C473.701 54.7254 474.701 53.8254 474.601 53.2254C474.201 52.0254 468.801 50.1254 467.601 49.4254C465.701 48.4254 465.901 48.6254 465.201 50.4254C464.901 51.2254 461.801 49.9254 460.601 50.9254C458.601 52.5254 457.401 50.5254 455.101 50.2254H455.201L454.201 54.0254C454.501 55.2254 454.501 55.6254 455.401 56.4254C456.601 57.6254 456.901 57.9254 455.401 59.1254C453.301 61.0254 457.301 63.9254 455.301 66.3254C454.601 67.4254 453.801 67.4254 452.801 67.7254C451.501 68.1254 451.201 68.5254 450.601 69.6254C449.901 70.8254 449.801 70.7254 450.101 72.1254C450.501 73.5254 448.501 74.6254 448.701 76.4254C449.001 79.2254 453.201 80.3254 455.501 80.8254C456.801 81.1254 458.401 81.5254 459.601 82.1254C460.701 82.6254 460.601 83.3254 460.401 84.5254C460.201 86.4254 460.301 87.6254 461.801 88.9254C462.401 89.4254 462.901 89.9254 463.701 90.1254C464.401 90.3254 465.201 90.1254 465.801 90.5254C465.801 91.2254 465.901 93.2254 465.701 93.7254C465.101 94.9254 466.501 95.3254 466.601 96.4254C466.801 98.2254 466.201 99.0254 468.201 99.9254C469.701 100.625 470.101 102.125 470.101 103.725C470.201 107.525 475.301 104.925 476.401 107.325C477.101 108.725 480.101 108.825 480.101 110.225C480.101 111.625 480.101 111.625 480.301 112.325C480.601 113.425 481.701 113.325 482.101 114.525C482.501 115.925 481.801 117.225 482.701 118.725C483.601 120.225 485.301 121.625 483.201 123.225C482.601 123.825 481.501 124.225 481.801 125.325C482.001 126.025 481.801 127.225 482.301 127.725C482.901 128.425 484.501 128.025 485.401 128.125C488.301 128.625 490.901 133.325 493.201 135.025C496.001 137.125 496.101 139.025 495.101 142.325C494.901 143.225 494.901 144.425 495.101 145.225C495.401 146.625 496.201 146.425 497.001 147.425C497.401 147.925 497.601 150.525 497.701 151.225C497.701 152.725 496.101 153.425 495.701 154.825C495.401 156.025 495.501 156.225 494.601 157.025C492.201 159.025 496.201 162.225 492.601 163.825C491.601 166.125 493.201 167.225 494.101 169.225C494.801 170.725 494.601 171.625 494.701 173.225C494.701 173.825 494.701 174.425 495.001 174.925C495.901 176.625 493.301 178.025 493.001 179.625C492.801 181.025 493.501 183.125 495.001 183.525C496.301 183.925 498.301 183.625 499.001 185.125C499.701 186.125 502.201 188.425 501.101 189.525C500.001 190.625 499.401 191.525 498.801 192.725C497.601 195.125 496.901 197.425 494.701 198.925C493.801 199.525 493.901 201.725 494.501 202.625C495.001 203.425 495.901 203.825 496.501 204.725L497.701 210.325C499.201 210.325 501.801 209.725 503.301 210.625C504.601 211.425 505.301 212.325 507.001 212.225C508.401 212.225 508.401 211.225 508.701 210.125C509.101 208.625 510.701 207.825 511.501 206.525C512.701 204.825 514.201 203.725 515.601 202.325C517.701 202.225 520.201 198.925 522.601 198.325C523.801 198.025 526.301 198.925 527.701 199.025C528.701 199.025 529.701 199.025 530.701 199.125C531.601 199.225 532.501 200.025 533.501 200.225C535.101 200.525 536.801 200.225 536.901 202.225C537.001 204.025 537.401 205.925 538.501 207.425C539.201 208.225 540.301 210.125 541.301 209.125C542.301 208.125 541.901 206.925 543.401 206.925C544.901 206.925 545.601 207.525 546.401 206.425C547.901 204.425 549.001 204.125 551.201 203.625C553.001 203.225 552.901 202.525 554.001 201.325C555.601 199.725 559.001 201.825 559.701 198.825C560.201 196.625 561.201 194.725 562.401 192.725C564.601 188.425 560.001 186.625 559.701 182.825C559.601 181.325 559.201 178.225 560.701 177.325C561.401 176.925 562.001 177.325 562.601 176.425C563.201 175.725 564.401 174.625 564.401 173.625C565.801 172.225 567.901 172.825 569.201 171.225C570.501 169.625 570.401 167.225 569.101 165.625C568.301 164.725 568.501 163.825 569.201 163.025C570.401 161.825 571.001 161.125 571.301 159.525L572.401 158.125L572.701 158.925Z" stroke="#5E83AF" stroke-opacity="0.3" stroke-miterlimit="10"/>
<path fill-rule="evenodd" clip-rule="evenodd" d="M589.801 352.526L585.901 348.226C585.401 347.626 583.801 346.726 584.501 345.726C584.901 345.126 586.301 345.226 587.001 344.326C587.701 343.426 587.201 342.926 587.001 342.026C586.301 339.226 587.301 335.426 589.201 333.426C589.601 333.026 589.901 332.226 590.601 332.226C593.501 332.226 593.501 329.726 594.101 327.426C595.301 326.326 596.901 325.426 596.201 323.526C595.701 322.326 595.001 321.726 595.201 320.326C595.401 318.126 594.901 315.226 596.801 313.826C598.801 312.326 600.101 311.326 599.901 308.526C600.501 307.326 599.501 305.326 601.801 306.226C602.301 306.426 603.101 306.526 603.501 306.326C604.201 306.026 603.701 304.426 604.901 303.826C606.101 303.226 608.501 302.826 609.201 304.226C609.701 305.326 610.401 305.526 611.501 305.326L613.401 304.626C616.001 305.626 618.201 303.626 619.901 301.826C621.601 300.026 622.401 299.226 624.301 299.026C625.701 298.926 627.201 298.726 628.301 297.726C629.401 296.726 629.301 294.126 631.501 295.326C632.401 295.826 633.501 295.826 634.501 295.926C635.401 296.026 635.901 296.926 636.701 297.326C638.301 297.726 642.301 298.026 643.801 297.326C645.201 296.726 645.401 293.926 646.901 293.226C647.801 292.826 649.601 293.026 650.601 292.926C653.101 292.726 655.101 290.826 657.501 290.326L665.801 288.626C666.901 288.926 670.801 288.026 671.401 287.026C672.101 286.026 672.601 284.326 673.601 283.626C674.501 283.026 674.301 282.026 674.401 281.026C674.801 277.926 679.801 274.926 682.201 273.426C684.101 272.426 685.401 270.926 687.601 270.326C689.301 269.826 690.701 270.326 692.401 270.426C694.001 270.626 694.401 270.726 695.601 269.526C696.701 268.326 699.501 269.826 700.701 270.326C703.601 271.626 701.901 265.526 701.901 264.126C701.901 261.026 702.701 258.126 702.701 255.126C702.701 253.026 701.701 250.726 703.201 248.926C704.101 247.926 705.601 247.726 707.001 247.926C709.701 248.426 708.001 251.026 708.401 252.826C708.801 255.026 709.801 256.726 710.301 258.826L711.601 261.026C713.501 264.226 716.401 264.526 719.901 264.226C721.301 264.126 722.601 264.126 723.901 264.226C725.001 264.226 726.601 265.426 727.801 265.426C727.201 265.726 726.701 266.026 726.301 266.526C724.201 269.126 725.701 272.626 725.901 275.526C726.101 277.626 725.001 279.826 723.801 281.526C723.301 283.826 725.101 286.026 725.301 288.426C725.501 291.126 726.201 293.026 726.901 295.626C727.401 297.426 729.001 297.426 730.401 297.926C731.801 298.126 733.201 298.626 734.601 299.126C735.601 299.526 735.401 301.726 735.501 302.626C735.501 303.326 735.001 303.826 735.101 304.626C735.201 305.526 736.701 306.026 737.301 306.426C738.801 307.326 739.701 307.826 740.501 309.426C740.501 310.426 741.101 311.326 741.101 312.326C741.101 313.326 740.101 313.726 740.801 314.526C742.101 316.026 744.101 316.226 744.001 318.826C744.001 320.326 741.501 321.026 742.601 322.326C743.601 323.526 743.001 327.326 742.301 328.626C742.101 329.726 742.801 330.426 743.001 331.326C743.101 332.026 743.001 332.926 743.001 333.626C743.001 336.126 741.501 335.626 740.501 337.126C740.001 337.826 740.101 340.026 739.901 340.926C739.601 342.626 737.801 342.826 736.501 343.626C734.301 344.826 731.501 346.526 729.101 346.826C727.501 346.426 725.701 346.626 724.201 346.026C722.901 345.526 721.501 345.126 720.101 345.126C716.901 345.126 713.001 344.126 711.901 340.626C711.701 340.026 711.601 339.226 711.301 338.626C710.401 337.226 706.401 336.026 704.801 335.026C702.201 333.826 699.001 332.826 696.701 331.026C695.301 330.026 690.601 331.126 688.801 331.526C686.801 331.926 686.601 333.826 685.001 334.426C683.501 336.326 683.001 338.926 681.601 340.926C679.901 343.326 678.401 344.626 675.901 346.526C674.701 347.426 672.601 349.126 671.101 349.426C666.101 351.526 660.801 357.326 655.401 356.726C653.801 356.526 652.201 358.726 650.001 358.226L641.201 356.126C639.501 355.726 637.901 356.326 636.301 356.226C633.901 356.826 631.601 358.426 629.301 359.126C626.701 360.026 623.601 360.426 620.901 360.726C615.001 361.426 606.801 364.626 601.801 359.626C599.401 358.226 596.401 356.826 594.401 354.826C593.601 354.026 591.101 351.526 589.601 352.026L589.801 352.526Z" stroke="#5E83AF" stroke-opacity="0.3" stroke-miterlimit="10"/>
<path fill-rule="evenodd" clip-rule="evenodd" d="M593.201 205.826C598.901 208.026 602.601 211.626 608.901 212.026C612.401 212.226 614.101 213.526 617.001 215.226C619.701 216.726 622.301 215.826 624.801 214.726C627.501 213.826 629.301 211.026 631.101 208.926C632.401 207.326 633.101 205.726 635.401 205.826H640.601C643.401 206.026 643.201 201.726 645.601 202.026C646.701 202.126 647.601 202.726 648.601 201.826C649.301 201.126 650.501 200.726 651.501 200.626L653.401 200.426C654.801 200.326 655.801 198.726 657.401 198.526C659.501 198.226 661.101 199.626 663.201 198.526C664.501 197.826 665.901 195.026 667.001 193.926C667.901 194.326 667.301 195.726 668.301 195.926C669.101 196.126 670.601 195.926 671.301 195.526C672.701 195.026 675.501 193.326 677.001 193.726C679.001 194.226 680.201 196.026 682.001 194.526C682.901 193.826 684.301 193.026 684.901 192.026C686.101 190.026 685.901 190.226 688.001 191.026C689.001 191.326 689.301 192.426 689.701 193.326C691.101 195.926 693.401 193.326 695.301 193.726C697.201 194.126 700.101 193.126 701.601 193.726C703.101 194.326 704.201 196.326 705.601 196.626C707.401 197.026 710.101 197.426 711.901 196.626C713.101 196.126 712.601 194.726 714.101 195.926C715.101 196.726 717.301 195.226 717.701 194.326C718.501 192.326 717.901 191.826 720.301 192.826L720.501 192.626C721.401 192.426 723.801 191.726 724.001 192.726C724.201 194.226 724.001 195.826 724.201 197.326C724.301 198.426 723.901 199.526 724.101 200.426C724.301 201.526 726.201 202.026 727.101 202.326C729.001 202.826 728.601 204.726 727.801 206.226C726.401 208.426 729.201 209.526 730.601 210.526C731.201 210.926 730.401 216.626 730.301 217.426C730.301 218.526 729.701 220.826 730.301 221.726C731.601 223.526 733.901 225.026 733.701 227.426C734.101 229.726 734.501 230.026 736.001 231.626C737.301 233.026 738.101 234.326 739.801 235.426C740.801 236.026 742.001 235.726 743.001 236.226C744.201 236.826 745.001 238.326 746.001 239.326C747.001 240.326 746.301 243.426 745.201 243.826C743.301 244.526 739.601 245.226 738.301 243.226C737.201 241.626 735.801 241.626 734.001 242.426C733.201 242.726 727.301 245.926 729.001 247.126C730.401 248.126 733.501 247.526 733.901 249.526C734.101 250.626 735.101 251.126 735.501 252.426C736.001 254.826 734.801 256.226 733.601 258.026C732.801 259.226 732.601 260.426 732.601 261.926C732.601 265.026 730.001 264.926 728.001 265.926C726.901 265.926 725.301 264.826 724.101 264.726C722.701 264.626 721.401 264.626 720.101 264.726C716.601 265.026 713.701 264.726 711.801 261.526L710.501 259.326C710.001 257.226 709.001 255.526 708.601 253.326C708.201 251.526 709.901 248.826 707.201 248.426C705.801 248.126 704.401 248.426 703.401 249.426C701.801 251.226 702.901 253.526 702.901 255.626C702.901 258.626 702.101 261.526 702.101 264.626C702.101 267.726 703.801 272.126 700.901 270.826C699.701 270.326 696.901 268.826 695.801 270.026C694.701 271.226 694.201 271.126 692.601 270.926C690.901 270.726 689.501 270.326 687.801 270.826C685.701 271.426 684.401 273.026 682.401 273.926C680.001 275.326 675.101 278.426 674.601 281.526C674.501 282.426 674.601 283.526 673.801 284.126C672.801 284.826 672.201 286.426 671.601 287.526C671.001 288.526 667.101 289.426 666.001 289.126L657.701 290.826C655.301 291.326 653.301 293.226 650.801 293.426C649.801 293.426 648.001 293.226 647.101 293.726C645.701 294.426 645.501 297.226 644.001 297.826C642.501 298.426 638.501 298.226 636.901 297.826C636.001 297.426 635.601 296.526 634.701 296.426C633.701 296.326 632.501 296.426 631.701 295.826C629.501 294.526 629.701 296.926 628.501 298.226C627.301 299.526 625.901 299.426 624.501 299.526C622.501 299.726 621.401 301.026 620.101 302.326C618.801 303.626 616.201 306.126 613.601 305.126C613.901 304.126 613.601 303.526 614.301 302.626C615.001 301.726 615.701 301.026 616.201 300.026C617.001 298.626 619.201 294.826 619.201 293.326C617.901 292.226 615.701 293.326 614.601 291.926C613.301 290.226 611.801 292.426 610.601 291.426C609.401 290.426 610.201 289.026 609.701 288.126C609.501 287.626 608.501 287.326 608.101 286.926C607.501 285.726 608.301 283.026 607.401 282.326C606.001 281.126 604.401 280.526 603.101 279.026C602.001 277.826 601.101 272.926 601.901 271.426C602.201 270.926 602.801 270.726 602.401 270.026C602.101 269.326 600.801 269.326 600.801 268.326C600.701 267.926 600.801 266.926 600.201 266.926C599.401 266.926 598.601 267.126 597.801 267.226C595.901 267.526 593.601 268.326 591.701 268.026C589.801 267.726 589.701 266.726 588.201 266.726C585.801 266.726 583.501 267.226 581.101 267.026V264.126C581.501 263.726 581.601 263.126 582.001 262.926C582.601 262.426 584.501 261.626 584.701 260.926C584.901 260.126 584.301 259.526 584.101 258.926C583.801 257.726 584.001 256.326 584.201 255.126C584.501 253.926 583.701 252.226 583.701 250.826C584.801 249.626 586.201 248.826 587.201 247.526C588.601 245.726 590.101 242.626 592.301 241.926C593.201 241.626 594.201 241.926 595.001 241.526C596.101 240.926 597.401 239.326 598.501 238.526C602.001 235.926 606.601 236.926 607.401 231.426C607.301 230.026 607.401 228.826 606.301 227.726C605.301 226.726 605.301 226.626 605.301 225.226C605.301 223.526 603.501 221.326 601.801 221.326C600.101 221.326 599.401 221.826 597.601 220.326C596.101 219.026 595.701 216.626 593.801 215.826C591.001 214.726 590.301 214.526 592.301 211.926L593.301 206.126L593.201 205.826Z" stroke="#5E83AF" stroke-opacity="0.3" stroke-miterlimit="10"/>
<path fill-rule="evenodd" clip-rule="evenodd" d="M580.801 266.526C583.201 266.726 585.501 266.226 587.901 266.226C590.301 266.226 590.101 267.326 591.401 267.526C593.301 267.826 595.601 267.026 597.501 266.726C598.201 266.626 599.101 266.426 599.901 266.426C600.401 266.426 600.301 267.426 600.501 267.826C600.501 268.826 601.801 268.826 602.101 269.526C602.401 270.226 601.801 270.426 601.601 270.926C600.801 272.426 601.601 277.326 602.801 278.526C604.101 280.026 605.701 280.526 607.101 281.826C608.001 282.626 607.101 285.326 607.801 286.426C608.201 286.826 609.101 287.226 609.401 287.626C609.901 288.526 609.301 290.126 610.301 290.926C611.501 291.926 613.001 289.826 614.301 291.426C615.401 292.826 617.601 291.726 618.901 292.826C618.901 294.226 616.601 298.126 615.901 299.526C615.401 300.526 614.601 301.226 614.001 302.126C613.401 303.026 613.601 303.626 613.301 304.626L611.401 305.326C610.301 305.526 609.601 305.326 609.101 304.226C608.401 302.726 606.001 303.226 604.801 303.826C603.601 304.426 604.101 306.026 603.401 306.326C602.901 306.526 602.101 306.326 601.701 306.226C599.401 305.326 600.401 307.326 599.801 308.526C600.001 311.226 598.701 312.326 596.701 313.826C594.801 315.226 595.301 318.126 595.101 320.326C595.001 321.726 595.701 322.326 596.101 323.526C596.801 325.526 595.201 326.326 594.001 327.426C593.301 329.826 593.301 332.126 590.501 332.226C589.801 332.226 589.501 333.026 589.101 333.426C587.201 335.426 586.301 339.226 586.901 342.026C587.101 342.926 587.601 343.426 586.901 344.326C586.201 345.226 584.801 345.126 584.401 345.726C583.701 346.726 585.301 347.526 585.801 348.226L589.701 352.526C589.601 352.526 589.401 352.626 589.301 352.826C586.301 355.626 584.801 359.926 581.701 362.926C578.901 365.726 573.101 365.226 569.501 365.426C566.101 365.426 562.901 362.826 559.601 361.626C555.901 360.226 552.501 357.826 548.501 358.126L538.701 359.026C535.501 359.626 531.401 359.526 528.201 358.726C525.501 358.026 522.301 356.526 519.501 356.526C518.601 358.026 516.701 359.226 515.501 360.526L511.101 365.526C509.601 367.226 508.901 365.926 507.201 366.226C504.801 366.226 502.601 365.426 500.301 365.026L499.801 360.726C500.101 358.626 497.101 354.626 498.101 352.726C498.401 352.126 499.401 352.026 499.901 351.426C500.301 350.926 499.601 350.326 499.401 349.826C499.101 348.926 501.201 347.826 501.601 346.726C502.801 343.426 504.401 345.226 506.901 345.126C508.901 345.126 513.601 342.426 515.001 341.126C515.701 341.126 516.901 340.026 517.301 340.626C518.701 343.126 520.201 338.426 522.801 341.426C523.901 342.726 527.201 343.926 528.101 341.726C528.901 339.826 529.001 339.726 530.901 339.926C533.501 340.226 534.401 336.526 533.801 334.526C533.301 332.926 535.401 329.126 536.401 328.326C537.001 327.826 538.301 327.826 537.801 326.726C537.601 326.326 537.401 326.026 537.101 325.726C536.801 325.426 536.401 325.126 536.201 324.526C537.901 323.726 534.601 320.026 537.101 319.426C539.801 318.726 540.801 318.426 540.301 315.526C539.601 311.126 542.001 312.726 544.001 309.926C544.901 308.626 543.901 307.726 544.401 306.826C544.701 306.326 545.601 305.926 546.001 305.526C546.701 304.926 546.701 303.226 546.801 302.426C547.101 302.126 547.301 301.226 547.801 301.226C550.601 301.226 547.501 298.026 551.501 297.626C553.601 297.426 555.401 295.626 557.701 295.126C561.501 294.326 564.001 289.726 567.801 290.226C571.401 290.726 574.001 287.626 574.201 284.026C574.701 283.226 574.401 282.426 575.101 281.626C575.801 280.826 577.901 279.226 577.801 278.126C577.601 276.526 576.501 275.326 576.801 273.726C577.101 272.226 578.401 271.326 578.401 269.726C578.401 268.526 579.801 267.226 580.701 266.526H580.801Z" stroke="#5E83AF" stroke-opacity="0.3" stroke-miterlimit="10"/>
</svg>
