<svg width="362" height="189" viewBox="0 0 362 189" fill="none" xmlns="http://www.w3.org/2000/svg">
<path d="M181.627 23.7482C181.627 23.7482 181.613 23.724 181.608 23.7095C181.362 23.2994 180.961 23.0243 180.561 22.7733C179.721 22.2425 178.746 21.8226 177.742 21.7889C177.284 21.7744 176.912 21.8661 176.488 22.0398C176.135 22.1798 175.764 22.3438 175.378 22.3294C174.649 22.2956 174.239 21.5283 173.949 20.954C173.771 20.6065 173.602 20.2446 173.51 19.8633C173.394 19.3856 173.356 18.8933 173.225 18.4204C172.979 17.5228 172.231 16.9534 171.541 16.3936C171.237 16.1474 170.952 15.8627 170.624 15.6456C170.325 15.4477 170.002 15.2884 169.678 15.1485C168.525 14.6466 167.087 14.2654 166.71 12.89C166.619 12.5522 166.604 12.1951 166.599 11.8428C166.599 11.6497 166.638 11.4229 166.459 11.2975C166.189 11.1093 165.702 11.1044 165.388 11.0851C164.949 11.061 164.495 11.0706 164.061 11.1575C163.651 11.2396 163.342 11.4326 163.043 11.7221C162.758 11.9972 162.483 12.3061 162.121 12.4846C161.296 12.89 160.557 12.2675 159.8 12.0165C159.023 11.7559 158.164 11.9055 157.363 11.8621C156.528 11.8138 155.814 11.4953 155.177 10.9597C154.405 10.313 153.42 9.86419 152.74 9.11618C152.469 8.81698 152.223 8.45986 151.832 8.30544C151.485 8.17031 151.079 8.14618 150.713 8.1317C149.854 8.10275 148.966 8.20892 148.15 8.48882C147.484 8.71563 146.649 9.18857 146.616 9.98001C146.587 10.6363 146.881 11.2685 146.842 11.9345C146.818 12.3929 146.712 13.0879 146.196 13.2471C145.771 13.3774 145.337 13.0734 145.023 12.8224C144.598 12.4846 144.227 12.0793 143.841 11.698C143.71 11.5677 143.575 11.4229 143.416 11.3216C143.054 11.0948 142.572 11.0369 142.152 11.0513C141.206 11.0803 140.274 11.4857 139.502 12.0165C139.348 12.1227 139.218 12.2095 139.145 12.3833C139.102 12.4894 139.078 12.6004 139 12.6873C138.793 12.9238 138.412 12.8273 138.166 12.7066C137.847 12.5522 137.799 12.2771 137.712 11.9683C137.644 11.7318 137.475 11.5388 137.335 11.3409C137.171 11.1141 137.007 10.8921 136.834 10.6749C136.24 9.94622 135.511 9.32369 134.778 8.73976C134.097 8.19927 133.325 7.62499 132.471 7.41265C131.728 7.22927 130.883 7.2341 130.15 7.47056C129.836 7.57191 129.465 7.74081 129.271 8.02071C129.136 8.21374 129.064 8.45504 128.943 8.65772C128.63 9.17409 128.133 9.35747 127.645 8.9328C127.433 8.74941 127.278 8.51295 127.254 8.22822C127.245 8.09792 127.351 7.7939 127.293 7.6829C127.201 7.50434 126.559 7.58638 126.386 7.59604C126.053 7.61534 125.729 7.67807 125.406 7.75046C124.938 7.85181 124.47 7.93385 124.031 7.69255C123.418 7.35474 123.017 6.65017 122.675 6.07107C122.255 5.36167 121.878 4.60401 121.309 4.00078C120.72 3.38307 119.972 3.13212 119.137 3.05009C118.708 3.00665 118.264 2.997 117.834 3.05974C117.419 3.12247 117.168 3.33481 116.864 3.60023C116.652 3.78361 116.415 3.9863 116.121 4.00078C115.783 4.01525 115.503 3.75466 115.33 3.48441C114.929 2.86188 115.359 2.02218 114.89 1.46721C114.268 2.07526 112.68 0.362087 111.956 1.86293C111.57 2.73158 111.522 3.50372 110.509 3.88978C109.881 4.13108 109.254 4.37237 110.171 4.99973C111.184 5.62709 110.605 6.15793 109.978 6.93007C108.916 8.23305 109.736 9.29473 107.661 8.57086C105.586 7.84698 105.055 11.2251 103.704 10.0669C102.787 9.29473 101.87 9.53603 100.857 9.00518C100.23 8.66737 100.085 9.43951 99.6987 9.6808C99.2643 10.0186 99.3126 10.3564 98.7335 10.5012C98.2992 10.5977 97.9131 10.5012 97.4788 10.5977C96.5619 10.839 96.1275 9.97035 95.3071 10.5977C94.9693 10.8873 94.3902 11.3216 93.9076 11.0803C92.8942 10.5977 92.9425 11.0803 91.9773 11.2251C90.8674 11.4181 91.4465 12.6246 90.7708 13.3484C90.1917 14.0241 88.2614 16.9196 87.634 16.7265C87.1515 16.5818 86.6206 16.0992 86.4758 17.0644C86.2345 18.4638 86.4758 18.6086 85.0763 19.6703C84.3525 20.539 83.339 20.2494 82.4704 19.8151C81.5052 19.2842 81.457 20.9733 81.1191 21.4559C80.6848 22.035 80.0092 22.2763 79.6231 22.8554L77.7893 25.6061C76.8241 27.0539 75.859 26.523 77.355 28.1638C77.8376 28.6947 76.6794 29.5633 76.3416 29.8529H78.4167C79.3818 29.7081 79.9609 29.8529 80.4918 30.7215C80.8296 31.3006 80.8779 31.7349 81.6017 31.9762C82.5669 32.2658 83.9181 31.9762 84.7385 32.4106C85.5589 32.8449 85.4624 34.2444 85.4624 35.0648C85.3659 35.9817 84.9798 38.7324 86.0898 39.0702C87.3445 39.408 88.5027 39.7941 89.7574 39.9871C90.3848 40.0837 91.0604 40.1319 91.2534 40.8558C91.3499 41.3866 90.2883 41.5314 89.9505 41.5797C89.1783 41.7727 88.3579 42.1588 88.0684 42.9792C87.7306 43.8961 86.9102 44.6682 86.0898 45.1991C84.9798 45.9712 83.7734 48.2876 83.7734 49.6388C83.7734 50.9901 85.1729 53.1617 84.5455 54.8508C84.2077 55.1886 83.9664 55.6229 83.5321 55.9124C82.6634 56.395 81.7948 56.395 82.7117 57.505C83.4838 58.4219 85.4142 60.0144 85.8967 57.9876C85.9933 57.5532 85.8967 56.9741 86.3793 56.8294C87.5375 56.4915 87.441 55.4781 88.5992 55.5746C89.7092 55.6712 89.4679 55.3816 89.8539 56.395L90.5296 58.1323C90.8674 59.0975 91.6395 58.8562 91.5912 60.0144C91.5912 61.1244 91.736 61.5104 92.7977 61.993C93.1355 62.0895 93.4733 61.993 93.8111 62.0895C94.3902 62.2343 94.6798 62.5239 95.1141 62.8617C95.6932 63.3443 95.9345 63.6338 96.7066 63.8268C96.8997 63.2477 96.6584 62.5721 96.8514 62.0413C96.9962 61.6069 99.7952 61.3657 100.326 61.3657C100.857 61.3657 101.87 62.3791 102.546 62.7651C103.318 63.1995 105.055 64.6472 106.021 64.2612C106.986 63.8751 106.889 63.9234 106.889 63.296C106.889 63.0547 106.6 62.9099 106.551 62.7169C106.503 62.5239 107.034 62.1861 107.179 62.0413C107.613 61.7035 107.758 61.2691 108.144 60.9796C108.82 60.4487 109.736 61.2209 110.605 60.304C111.136 59.7249 111.232 59.2423 112.005 58.808C112.487 58.5184 113.018 58.3736 113.501 57.9876C114.031 57.5532 113.838 56.6846 114.176 56.0572C114.611 55.3333 115.334 54.9955 115.769 54.2234C116.444 53.4513 116.251 53.6443 117.217 53.3065C117.747 53.1135 118.278 50.4592 118.616 49.8319C119.147 48.8667 120.015 48.2876 121.029 47.8533C121.849 47.5155 122.621 47.7085 123.49 47.805C124.6 47.8533 125.179 46.7916 126.193 46.4538C127.447 46.0677 127.64 46.9846 128.557 47.5155C129.233 48.1428 130.15 48.6254 130.922 49.108C132.177 49.8319 133.528 50.0732 134.783 50.9418C135.888 51.7091 137.036 52.2834 138.426 52.2931C138.778 50.9949 137.755 49.1804 138.981 48.1428C139.367 47.805 140.236 47.9981 140.767 47.8533C141.635 47.612 142.359 47.612 143.276 47.5637C144.145 47.612 144.772 48.2876 145.592 48.0463C146.895 47.7085 147.378 46.6951 147.909 45.5369C148.15 44.9578 148.343 44.3304 148.585 43.703C148.874 43.0757 149.26 42.4966 149.55 41.8692C150.225 41.4349 150.949 39.6011 151.528 38.8772C152.687 37.526 153.796 36.223 153.796 34.3892C153.796 32.2658 156.065 32.7001 157.512 32.4106C158.912 32.314 160.553 31.1076 161.759 32.2658C162.821 33.2792 165.041 32.3623 164.413 34.6787C162.531 37.0916 166.392 39.9389 167.936 41.3866C169.577 42.9792 169.094 40.0837 170.735 39.7941C171.218 39.6976 171.797 40.4697 172.038 40.7593C172.762 41.4832 173.052 41.2419 173.775 40.6145C173.92 40.4215 174.355 39.6011 174.692 40.1319C175.465 41.2419 176.044 41.0006 176.188 39.6976C176.285 38.9737 175.899 38.5394 175.899 37.912C175.899 37.2847 176.285 36.9469 176.333 36.416C176.333 36.0299 176.333 35.7887 176.092 35.4508C175.754 35.0165 175.368 34.8717 175.754 34.3409C176.237 33.7618 176.092 33.4722 175.706 32.8449C175.32 32.5553 174.451 32.2658 174.306 31.7832C174.306 31.6867 174.644 30.7215 174.644 30.432C174.644 29.0325 174.982 28.9842 176.14 29.129C177.25 29.2738 180.049 30.2872 180.049 28.2121C180.049 26.1369 181.738 26.33 182.655 25.4131C182.298 25.2345 181.777 24.3852 181.637 23.7482H181.627Z" stroke="#808080" stroke-opacity="0.55" stroke-width="2" stroke-miterlimit="10"/>
<path fill-rule="evenodd" clip-rule="evenodd" d="M186.506 24.694V26.9139C186.844 27.3482 187.568 27.686 187.713 28.0721C187.954 28.6995 187.713 30.292 187.52 30.9194C187.278 31.6915 187.182 32.1258 186.603 32.7049C185.155 34.2492 187.278 33.8149 187.23 35.1178C187.23 35.6487 186.989 36.1795 187.375 36.6139C187.809 37.193 188.581 36.9999 189.16 37.3377C189.981 37.8686 190.126 38.0134 190.126 38.9785C190.126 39.9437 190.463 39.9437 190.801 40.4263C191.622 41.5845 191.38 44.5765 191.187 45.9278C191.043 46.5069 190.753 47.086 190.608 47.6168C190.27 48.8715 190.126 49.6919 188.726 49.8367C188.147 49.8849 187.664 49.8367 187.085 49.9815C186.41 50.2228 186.844 51.9601 187.134 52.3944C187.423 52.8287 187.906 53.07 188.051 53.6008C188.195 54.0834 188.051 54.6625 188.195 55.1451V56.8824H188.147L187.568 58.0406C187.182 59.3436 187.278 60.8879 186.892 62.2874C186.603 63.3008 186.313 65.4724 185.348 66.0515C184.383 66.5341 182.983 66.0515 182.115 66.6306C181.101 67.3063 181.536 68.0301 180.136 68.0301C178.737 68.0301 178.93 68.2714 178.495 67.7888C177.144 66.4859 177.82 67.4028 175.938 67.7888C174.635 68.0784 173.573 67.6441 172.704 66.7272C171.401 66.7272 171.836 68.754 171.45 69.2849L170.726 71.4565C170.581 71.8426 170.629 72.2286 170.484 72.6147C170.05 73.6764 169.905 73.5799 168.892 74.159C167.299 75.0276 170.388 77.1027 170.002 78.3575C170.002 79.7087 170.629 80.7704 171.401 81.8321C172.125 82.8455 172.27 84.245 172.946 85.1619C173.428 85.8375 174.393 85.6927 175.117 85.741C176.662 85.934 176.275 87.044 175.407 87.7196C174.924 88.2987 174.104 89.5534 173.428 88.8778C172.994 88.4435 172.56 87.3818 172.077 88.54C171.884 88.9743 171.064 88.8778 170.629 88.9743C169.761 89.1191 168.94 88.54 168.409 89.6982C167.927 90.7599 167.975 91.8698 166.72 92.1111C165.176 92.4007 163.921 91.8216 162.908 93.1728C163.149 93.9932 162.811 94.331 163.535 95.0549L164.693 96.2614C165.659 97.2265 165.61 97.8056 165.562 99.1569C165.562 99.5429 165.128 100.267 165.224 100.556C165.562 101.377 166.189 101.715 166.624 102.39C167.203 102.969 166.962 103.983 167.541 104.562C168.12 105.141 168.265 105.817 168.361 106.637C168.361 107.168 168.216 107.699 168.361 108.229C168.506 108.567 169.423 108.953 169.712 109.146C170.533 109.629 172.077 110.932 172.318 111.801C172.946 112.621 172.608 113.683 173.235 114.407C173.766 115.034 173.09 116.096 173.766 116.626C174.104 116.916 174.393 117.061 174.393 117.592C174.393 118.364 174.731 119.618 174.586 120.342C174.442 121.066 173.428 122.08 172.753 122.417L172.463 124.01C172.318 124.251 171.98 124.348 171.787 124.589C171.643 124.734 171.546 124.879 171.353 124.975C170.919 125.216 170.484 125.554 170.195 125.94C169.326 127.002 169.857 128.015 169.471 129.222L168.844 129.463C168.409 129.946 167.878 130.38 167.203 130.428C166.672 130.428 165.948 130.428 165.707 130.959C164.886 132.697 163.149 129.849 162.908 132.455C162.811 133.613 161.894 132.841 161.171 133.227C160.784 133.42 160.833 134.144 160.35 133.469C160.157 133.179 159.626 132.6 159.626 132.262C159.626 131.924 159.481 131.345 159.24 131.104C158.951 130.766 158.42 130.67 158.082 130.332C157.937 130.139 157.455 129.656 157.213 129.656C156.779 129.656 156.2 129.946 155.766 130.042L152.05 130.139C151.085 130.139 150.747 130.911 150.071 131.442C149.54 131.876 146.645 129.27 146.21 128.884C145.535 128.353 144.087 126.712 143.363 127.388C142.881 127.822 142.205 127.726 142.253 128.546C142.301 129.946 142.591 132.069 142.205 133.42L142.543 136.847C142.301 136.75 142.06 136.702 141.771 136.605C141.626 136.605 141.433 136.509 141.288 136.412C140.998 136.268 140.854 135.93 140.661 135.64C139.84 134.53 139.116 134.723 137.765 134.82C136.414 134.916 135.835 134.675 134.87 133.613C134.242 132.938 134.098 132.697 133.036 132.89C132.071 133.034 131.395 132.503 130.623 132.648C130.285 132.697 129.513 132.938 129.272 132.697C128.837 132.31 128.837 131.49 128.451 131.201C128.065 130.863 127.197 130.718 127.39 129.994C127.39 129.415 127.197 128.546 126.714 128.16C126.087 127.581 125.845 127.388 125.652 126.519C125.459 125.747 124.687 122.948 123.963 122.707C122.709 122.369 122.226 122.369 121.164 121.452C120.392 120.97 120.199 120.005 119.861 119.232C119.427 118.267 118.317 118.991 118.076 118.122C117.979 117.736 117.834 117.013 117.304 117.157C116.628 117.35 115.808 117.881 115.084 118.122C114.118 118.46 112.671 117.688 112.574 116.675C111.899 116.289 110.499 116.771 109.679 116.675C108.472 116.868 107.748 117.399 107.266 118.509C107.169 118.75 106.976 118.991 106.687 119.088C106.011 119.232 105.818 118.702 105.432 118.364L105.963 116.047V111.608L105.818 108.181C105.287 107.795 103.888 106.83 103.888 106.058C103.888 105.286 105.094 104.948 105.384 104.707C106.638 103.645 108.231 102.825 109.389 101.666C110.451 100.508 110.065 100.363 109.389 99.2534C109.1 98.7708 109.293 98.0952 109.293 97.5643L109.872 94.3793C110.692 94.2828 110.885 94.3793 111.657 93.9932C112.381 93.6554 113.25 92.4972 114.07 93.028C114.891 93.5589 114.698 93.6554 115.566 93.0763C116.435 92.4972 117.352 93.6554 118.365 93.028C118.751 92.7868 118.607 92.2559 118.993 92.0629C119.427 91.8216 119.861 91.6286 120.344 91.6286C121.212 91.6286 121.406 91.8698 122.274 91.3873C122.709 91.146 123.191 91.146 123.577 90.9529C124.108 90.7116 122.467 89.843 123.095 89.2639C123.722 88.6848 124.542 89.3121 124.977 89.3121C125.411 89.3121 125.99 89.1674 126.424 88.7813C126.762 88.4435 128.017 87.9609 128.017 87.5266C128.017 86.7544 127.534 86.2719 128.017 85.4032C128.5 85.1136 130.044 84.2933 130.189 83.7624C130.478 82.7007 129.947 82.7972 130.768 81.8803C132.457 79.8535 134.677 78.5988 136.269 76.5236C136.414 75.9445 136.703 75.462 136.848 74.8346C137.041 73.8694 138.634 74.4968 139.406 74.159C140.178 73.8212 140.033 73.0973 140.516 72.5182C141.143 71.746 142.35 70.8774 141.433 69.864C140.805 69.1401 139.551 68.2714 139.213 67.3545C138.875 66.9685 138.875 66.6789 138.296 66.6306C138.055 66.6306 137.524 66.5824 137.283 66.6789C136.945 66.8719 136.945 67.1615 136.462 67.1615C135.883 67.1615 134.87 66.8719 134.387 66.5341C133.47 65.8585 133.808 64.7486 133.904 63.6869C134.001 62.5287 133.904 61.1292 135.063 60.4536C136.076 60.2123 136.317 59.5849 136.848 58.8128C137.186 58.3302 137.958 58.0406 138.296 57.558C139.213 56.3033 138.586 54.4212 138.537 53.0217V52.2496H138.489C138.923 50.9466 137.813 49.0646 139.068 48.0029C139.454 47.6651 140.323 47.8581 140.854 47.7133C141.722 47.472 142.446 47.472 143.363 47.4238C144.232 47.472 144.859 48.1476 145.68 47.9063C146.983 47.5685 147.465 46.5551 147.996 45.3969C148.237 44.8178 148.43 44.1904 148.672 43.5631C148.961 42.9357 149.347 42.3566 149.637 41.7293C150.312 41.2949 151.036 39.4611 151.615 38.7372C152.774 37.386 153.883 36.083 153.883 34.2492C153.883 32.1258 156.152 32.5601 157.599 32.2706C158.999 32.1741 160.64 30.9676 161.846 32.1258C162.908 33.1392 165.128 32.2223 164.5 34.5387C162.618 36.9517 166.479 39.7989 168.023 41.2467C169.664 42.8392 169.181 39.9437 170.822 39.6541C171.305 39.5576 171.884 40.3298 172.125 40.6193C172.849 41.3432 173.139 41.1019 173.863 40.4745C174.007 40.2815 174.442 39.4611 174.779 39.992C175.552 41.1019 176.131 40.8606 176.275 39.5576C176.372 38.8337 175.986 38.3994 175.986 37.7721C175.986 37.1447 176.372 36.8069 176.42 36.2761C176.42 35.89 176.42 35.6487 176.179 35.3109C175.841 34.8766 175.455 34.7318 175.841 34.2009C176.324 33.6218 176.179 33.3323 175.793 32.7049C175.407 32.4154 174.538 32.1258 174.393 31.6432C174.393 31.5467 174.731 30.5815 174.731 30.292C174.731 28.8925 175.069 28.8442 176.227 28.989C177.337 29.1338 180.136 30.1472 180.136 28.0721C180.136 25.997 181.825 26.19 182.742 25.2731C183.176 25.4661 183.514 25.1283 183.9 25.0801C184.672 24.9353 185.203 25.0801 185.975 24.8388C186.217 24.7423 186.41 24.6458 186.651 24.501V24.5492L186.506 24.694Z" stroke="#808080" stroke-opacity="0.55" stroke-width="2" stroke-miterlimit="10"/>
<path fill-rule="evenodd" clip-rule="evenodd" d="M96.6972 63.9282C96.8902 63.3491 96.6489 62.6735 96.842 62.1427C96.9867 61.7083 99.7857 61.467 100.317 61.467C100.847 61.467 101.861 62.4805 102.536 62.8665C103.309 63.3009 105.046 64.7486 106.011 64.3626C106.976 63.9765 106.88 64.0247 106.88 63.3974C106.88 63.1561 106.59 63.0113 106.542 62.8183C106.494 62.6252 107.025 62.2874 107.169 62.1427C107.604 61.8049 107.748 61.3705 108.134 61.081C108.81 60.5501 109.727 61.3223 110.596 60.4054C111.126 59.8263 111.223 59.3437 111.995 58.9093C112.478 58.6198 113.009 58.475 113.491 58.0889C114.022 57.6546 113.829 56.786 114.167 56.1586C114.601 55.4347 115.325 55.0969 115.759 54.3248C116.435 53.5526 116.242 53.7457 117.207 53.4079C117.738 53.2148 118.269 50.5606 118.607 49.9333C119.137 48.9681 120.006 48.389 121.019 47.9547C121.84 47.6169 122.612 47.8099 123.481 47.9064C124.591 47.9547 125.17 46.893 126.183 46.5552C127.438 46.1691 127.631 47.086 128.548 47.6169C129.223 48.2442 130.14 48.7268 130.912 49.2094C132.167 49.9333 133.518 50.1746 134.773 51.0432C135.883 51.8153 137.041 52.3944 138.441 52.3944V53.1666C138.586 54.5661 139.213 56.4964 138.296 57.7029C137.91 58.1855 137.186 58.475 136.848 58.9576C136.317 59.7297 136.076 60.3571 135.063 60.5984C133.904 61.274 134.001 62.6735 133.904 63.8317C133.808 64.8934 133.47 66.0033 134.387 66.679C134.87 67.0168 135.883 67.3063 136.462 67.3063C136.945 67.3063 136.897 67.0168 137.283 66.8237C137.524 66.679 138.006 66.7272 138.296 66.7755C138.875 66.8237 138.875 67.1133 139.213 67.4994C139.551 68.4645 140.805 69.2849 141.433 70.0088C142.301 71.0705 141.143 71.8909 140.516 72.663C140.033 73.2421 140.178 73.966 139.406 74.3038C138.634 74.6416 137.041 74.0143 136.848 74.9794C136.703 75.6068 136.414 76.0894 136.269 76.6685C134.677 78.7436 132.457 79.9983 130.768 82.0252C129.947 82.9903 130.478 82.8938 130.189 83.9072C130.044 84.3898 128.548 85.2102 128.017 85.548C127.534 86.4167 128.017 86.851 128.017 87.6714C128.017 88.4918 126.762 88.5883 126.424 88.9261C125.99 89.3605 125.556 89.457 124.977 89.457C124.398 89.457 123.432 89.0226 123.095 89.4087C122.515 89.9878 124.108 90.8565 123.577 91.0978C123.143 91.2908 122.66 91.339 122.274 91.5321C121.454 92.0147 121.213 91.7734 120.344 91.7734C119.475 91.7734 119.427 91.9664 118.993 92.2077C118.607 92.449 118.751 92.9798 118.365 93.1729C117.4 93.8002 116.483 92.6903 115.566 93.2211C114.698 93.8002 114.891 93.6555 114.07 93.1729C113.202 92.642 112.381 93.8002 111.657 94.138C110.885 94.4759 110.692 94.4276 109.872 94.5241L106.976 91.7734C106.156 91.0978 105.287 90.3739 104.708 89.457C104.081 88.4435 104.322 87.6231 103.984 86.6097C103.839 86.1271 103.357 85.5963 103.26 85.1137C103.067 84.1485 103.019 84.052 102.054 83.859C101.089 83.666 100.703 82.0252 100.799 81.1565C100.461 79.757 98.724 78.8401 98.0967 77.4406C97.4693 76.0894 98.6275 74.8346 98.0967 73.4351C97.7106 72.4217 98.2415 72.2287 98.338 71.3118C98.4345 70.6844 98.338 70.0088 98.338 69.3814C98.338 68.7541 98.4345 68.7058 98.4345 68.3198C98.4345 67.9337 98.6275 66.872 98.2897 66.5342C97.9519 66.1964 97.5176 66.0516 97.1315 65.7138C96.5524 65.1347 96.7937 64.5073 96.6489 63.7834L96.6972 63.9282Z" stroke="#808080" stroke-opacity="0.55" stroke-width="2" stroke-miterlimit="10"/>
<path fill-rule="evenodd" clip-rule="evenodd" d="M65.0877 124.879H68.1763C70.1066 124.975 72.8574 124.01 74.6429 124.879C76.4768 125.747 77.8762 127.099 80.0961 126.761C81.0613 126.857 81.93 127.678 82.9434 127.533C83.3777 127.485 84.3911 126.471 84.1499 125.989C83.9086 125.554 83.426 125.409 83.2812 124.879C83.1847 124.493 83.0882 123.238 83.1847 122.9C83.2812 122.562 83.8603 122.61 84.0533 122.224C84.2464 121.838 84.2464 121.452 84.2946 121.163V119.474C84.2946 118.605 85.7906 117.785 86.0319 116.916C86.3215 115.951 86.0319 114.986 86.1767 114.069L86.9006 112.959C86.9006 112.09 87.5279 111.221 87.4314 110.353C87.2867 109.243 86.0319 108.809 85.1633 108.326C84.5359 107.988 83.8603 107.457 83.426 106.878C83.1364 106.106 82.9434 105.527 83.1847 104.707C83.426 103.983 84.1981 103.597 84.5842 103.018C85.6459 101.377 82.2678 100.653 81.3991 100.315C79.9996 99.7842 79.9514 99.1568 79.9514 97.7574L79.8066 94.8136C79.8066 93.8484 80.5305 93.1728 80.5305 92.3041C80.5305 90.4703 80.5305 88.733 81.93 87.3818C82.6056 86.8509 84.9702 86.8992 85.2598 86.1271C85.5494 85.3549 84.729 83.5211 84.1499 82.9902C83.8603 82.7007 83.5708 82.6042 83.1847 82.4111C81.6404 82.0733 79.8548 82.9903 79.5653 80.7704C79.324 78.8883 78.0693 78.647 76.9593 77.344C76.4285 76.7166 75.6081 75.7515 75.3668 74.9311C75.029 74.2555 74.4499 72.6629 73.8708 72.2286C73.0987 71.6978 71.4096 73.2903 71.0718 72.6147C70.8788 72.2286 71.3131 71.4565 71.5544 71.1669C72.0852 70.3948 72.6161 70.3465 73.3882 69.9122C73.726 69.7192 73.5812 68.947 73.5812 68.6092C73.5812 67.8853 73.0021 67.7406 72.6643 67.1132C72.2783 66.2928 72.1335 66.0998 72.5196 65.2311C72.8574 64.3625 72.5678 64.3142 72.23 63.5903C72.037 63.156 72.4713 62.963 72.5196 62.5769C72.5678 62.1426 72.5196 61.4187 72.4713 60.9844C72.2783 60.1157 72.23 60.0675 71.3131 60.2122C70.541 60.357 69.431 61.1774 68.8519 61.7565C68.3693 62.2391 68.128 62.9147 67.3076 62.6734C66.2459 62.4804 67.3076 61.2257 65.5221 61.66C64.4604 61.9013 63.4952 61.9013 63.833 63.2525C64.2191 64.9416 58.6211 63.2525 57.9455 62.3839C57.5594 61.9495 57.2699 61.5635 56.6908 61.4187C56.1117 61.3222 55.436 61.3704 55.0017 60.8396L53.747 59.2953L51.2858 57.7993C51.0445 58.2336 51.2858 58.7645 50.8997 59.2953C50.0311 60.4053 52.251 61.2257 51.141 62.1426C50.0794 62.963 51.9132 62.8182 51.141 63.9281C50.2241 65.3276 48.8729 64.0247 48.1008 65.2311C48.0525 66.8237 47.5699 67.8371 46.46 68.9953C45.9774 69.4779 46.46 69.5744 46.3634 70.057C46.2187 70.7326 45.5913 71.1187 45.0122 71.4565C44.047 72.0356 43.1301 73.0007 42.2615 73.6764C42.1167 73.9659 42.2615 74.2072 42.2615 74.4485C41.7789 74.738 40.9585 74.6415 40.9585 75.4137V77.0062C40.9585 77.2958 40.8137 77.4888 40.6689 77.5853L42.4545 78.3092C43.4679 78.8883 44.3849 78.8883 44.964 80.0947C46.1704 82.6042 48.2455 80.7221 50.0794 81.5908C50.5619 81.832 50.8515 82.7007 51.2376 83.0868C51.6236 83.4728 52.5405 82.5077 53.0231 82.3146C53.8435 82.3146 54.1331 82.4111 54.0848 83.3281C54.0365 85.6445 55.7256 87.0922 55.7256 89.3121C55.9669 90.1808 56.0634 91.532 56.5942 92.2559C57.1251 92.9798 57.6559 93.4623 58.3798 93.9932C59.6828 94.9584 59.6828 95.0549 59.6828 96.6474C59.6828 98.2399 61.034 97.8539 61.034 98.9638C61.0823 100.026 62.1922 100.025 62.5783 100.942C63.3022 102.631 64.0743 104.948 65.1843 106.396C66.1012 107.554 67.6454 107.168 67.5489 108.905C67.6454 109.725 67.742 110.449 68.4658 110.98C68.8037 111.221 69.5275 111.608 69.7688 111.897C70.0101 112.138 68.7071 113.779 68.4176 114.02C67.7902 114.6 67.3076 115.613 66.4872 115.903C66.0529 116.047 65.4256 115.758 65.0877 116.047C63.6883 117.157 64.2674 118.412 64.3639 119.908V123.865C64.3156 123.865 65.0395 125.072 65.0395 125.072L65.0877 124.879Z" stroke="#808080" stroke-opacity="0.55" stroke-width="2" stroke-miterlimit="10"/>
<path fill-rule="evenodd" clip-rule="evenodd" d="M76.3321 30.0504H78.4072C79.3723 29.9056 79.9514 30.0504 80.4823 30.919C80.8201 31.4981 80.8683 31.9325 81.5922 32.1737C82.5574 32.4633 83.9086 32.1737 84.729 32.6081C85.5494 33.0424 85.4529 34.4419 85.4529 35.2623C85.3564 36.1792 84.9703 38.9299 86.0803 39.2677C87.335 39.6056 88.4932 39.9916 89.7479 40.1847C90.3753 40.2812 91.0509 40.3294 91.2439 41.0533C91.3404 41.5842 90.2788 41.7289 89.9409 41.7772C89.1688 41.9702 88.3484 42.3563 88.0589 43.1767C87.7211 44.0936 86.9007 44.8657 86.0803 45.3966C84.9703 46.1687 83.7639 48.4851 83.7639 49.8364C83.7639 51.1876 85.1634 53.3592 84.536 55.0483C84.1982 55.3861 83.9569 55.8204 83.5226 56.11C82.6539 56.5925 81.7853 56.5925 82.7022 57.7025C83.4743 58.6194 85.4046 60.2119 85.8872 58.1851C85.9837 57.7508 85.8872 57.1717 86.3698 57.0269C87.528 56.6891 87.4315 55.6756 88.5897 55.7722C89.6997 55.8687 89.4584 55.5791 89.8444 56.5925L90.52 58.3299C90.8579 59.295 91.63 59.0537 91.5817 60.2119C91.5817 61.3219 91.7265 61.7079 92.7882 62.1905C93.126 62.2871 93.4638 62.1905 93.8016 62.287C94.3807 62.4318 94.6703 62.7214 95.1046 63.0592C95.6837 63.5418 95.925 63.8313 96.6971 64.0244C96.8419 64.7482 96.6006 65.3273 97.1797 65.9547C97.5175 66.2925 98.0001 66.4373 98.3379 66.7751C98.6757 67.1129 98.4827 68.0781 98.4827 68.5607C98.4827 69.0432 98.3862 69.2363 98.3862 69.6223C98.3862 70.2497 98.4827 70.9253 98.3862 71.5527C98.2897 72.4213 97.8071 72.6626 98.1449 73.6761C98.6757 75.0756 97.5175 76.3303 98.1449 77.6815C98.7723 79.081 100.461 79.9979 100.847 81.3974C100.751 82.2661 101.089 83.8586 102.102 84.0999C103.067 84.3412 103.116 84.4377 103.309 85.3546C103.502 86.2715 103.888 86.368 104.032 86.8506C104.37 87.8641 104.177 88.6845 104.756 89.6979C105.287 90.5665 106.204 91.3387 107.024 92.0143L109.92 94.765L109.341 97.9501C109.341 98.5292 109.148 99.1565 109.437 99.6391C110.065 100.797 110.499 100.942 109.437 102.052C108.279 103.21 106.735 104.031 105.432 105.092C105.142 105.334 103.936 106.106 103.936 106.444C103.936 107.216 105.287 108.229 105.866 108.567L106.059 111.993V116.433L105.48 118.749C105.094 119.087 104.612 119.425 104.418 119.908C104.225 120.439 104.225 120.969 103.791 121.404C102.922 122.224 102.006 123.045 100.944 123.575C100.268 123.913 99.3514 123.575 98.724 124.058C98.3862 124.299 98.2414 124.782 97.9036 124.975C97.7588 125.892 97.8071 126.905 97.5175 127.774C97.3245 128.449 96.6006 128.642 96.7454 129.463C96.7936 129.897 97.1797 130.042 97.3245 130.38C97.5658 130.911 96.9867 131.441 96.6971 131.876V133.131H96.6489C95.9733 133.131 95.3942 133.468 94.7185 133.42C93.9947 133.372 93.319 133.034 92.933 132.407C92.3056 131.731 91.9678 131.683 91.1474 131.345C90.2788 131.007 90.4718 130.476 90.0857 129.849C89.1688 128.401 90.8579 128.305 91.0509 126.857C91.1957 125.892 91.0992 125.023 91.2922 124.058C91.5335 122.755 93.4156 122.9 94.0429 122.079C94.3807 121.645 95.5389 121.162 95.4424 120.487C95.2976 119.715 94.3807 119.618 93.7534 119.57C92.9812 119.473 93.1743 119.28 92.5952 118.991C92.3056 118.846 91.9195 118.846 91.5817 118.846C90.4235 118.991 90.134 118.991 89.8927 117.784C89.6997 116.771 89.5549 115.034 88.8793 114.213C88.3484 113.586 87.7211 113.441 87.0454 113.007C87.0454 112.138 87.6728 111.269 87.5763 110.401C87.4315 109.291 86.1768 108.857 85.3081 108.374C84.6808 108.036 84.0052 107.505 83.5708 106.926C83.2813 106.154 83.0882 105.575 83.3295 104.755C83.5708 104.031 84.343 103.645 84.729 103.065C85.7907 101.425 82.4126 100.701 81.544 100.363C80.1445 99.8322 80.0962 99.2048 80.0962 97.8053L79.9514 94.8615C79.9514 93.8964 80.6753 93.2208 80.6753 92.3521C80.6753 90.5183 80.6753 88.781 82.0748 87.4297C82.7504 86.8989 85.1151 86.9471 85.4046 86.175C85.6942 85.4029 84.8738 83.5691 84.2947 83.0382C84.0052 82.7487 83.7156 82.6521 83.3295 82.4591C81.7853 82.1213 79.9997 83.0382 79.7101 80.8183C79.4689 78.9362 78.2141 78.6949 77.1042 77.392C76.5733 76.7646 75.7529 75.7994 75.5117 74.979C75.1738 74.3034 74.5947 72.7109 74.0156 72.2766C73.2435 71.7457 71.5545 73.3382 71.2166 72.6626C71.0236 72.2766 71.4579 71.5044 71.6992 71.2149C72.2301 70.4427 72.7609 70.3945 73.5331 69.9602C73.8709 69.7671 73.7261 68.995 73.7261 68.6572C73.7261 67.9333 73.147 67.7885 72.8092 67.1612C72.4231 66.3408 72.2783 66.1477 72.6644 65.2791C73.0022 64.4104 72.7127 64.3622 72.3748 63.6383C72.1818 63.204 72.6161 63.0109 72.6644 62.6249C72.7127 62.1905 72.6644 61.4667 72.6161 61.0323C72.4231 60.1637 72.3749 60.1154 71.4579 60.2602C70.6858 60.405 69.5759 61.2254 68.9968 61.8045C68.5142 62.287 68.2729 62.9627 67.4525 62.7214C66.3908 62.5283 67.4525 61.2736 65.6669 61.7079C64.6052 61.9492 63.6401 61.9492 63.9779 63.3005C64.3639 64.9895 58.766 63.3005 58.0903 62.4318C57.7043 61.9975 57.4147 61.6114 56.8356 61.4667C56.2565 61.3701 55.5809 61.4184 55.1466 60.8876L53.8918 59.3433L51.4307 57.8473C51.5754 57.6542 51.7685 57.4612 51.9615 57.3164C52.2028 57.0751 52.2993 56.7373 52.4441 56.4478C52.5406 56.0134 52.4924 55.5791 52.6371 55.1931C52.6371 55.1931 52.6854 55.1931 52.6854 55.1448C53.2645 54.9518 55.967 54.807 55.967 53.6488C55.967 51.7667 56.4495 52.5871 57.3182 51.2359C57.9456 50.2224 59.5863 48.4369 60.8893 48.7264C61.8062 48.9677 62.2888 49.1607 63.0127 48.3403C63.447 47.8578 64.8465 47.5682 65.4256 47.1821C66.9216 47.0374 66.7769 45.9274 67.7903 45.3001C69.2863 44.2866 69.1898 43.5628 69.7689 42.0185C70.1067 41.2463 70.3963 41.1016 71.1684 40.8603C71.5545 40.7155 71.7958 39.7021 71.4579 39.4608C71.6992 38.8817 71.9405 38.5439 72.5196 38.2061C73.2918 37.7235 74.2569 37.7717 74.2569 36.5653C74.2569 35.3588 74.5947 35.4071 75.2221 35.021C75.8977 34.5867 75.753 33.332 75.6082 32.6081C75.4151 31.4016 75.7047 31.0638 76.4768 30.1952L76.3321 30.0504Z" stroke="#808080" stroke-opacity="0.55" stroke-width="2" stroke-miterlimit="10"/>
<path fill-rule="evenodd" clip-rule="evenodd" d="M142.591 136.991L142.253 133.565C142.639 132.214 142.35 130.139 142.301 128.691C142.301 127.822 142.929 127.919 143.411 127.533C144.135 126.857 145.583 128.498 146.259 129.029C146.741 129.415 149.589 132.021 150.119 131.586C150.795 131.056 151.133 130.283 152.098 130.283L155.814 130.187C156.248 130.09 156.876 129.801 157.262 129.801C157.648 129.801 157.937 130.283 158.13 130.476C158.468 130.814 158.999 130.911 159.288 131.249C159.53 131.49 159.626 132.069 159.675 132.407C159.675 132.745 160.157 133.324 160.398 133.613C160.929 134.289 160.833 133.613 161.219 133.372C161.943 132.986 162.86 133.758 162.956 132.6C163.197 129.994 164.935 132.841 165.755 131.104C166.045 130.525 166.72 130.621 167.251 130.573C167.927 130.525 168.458 130.09 168.892 129.608L169.519 129.367C170.147 129.656 170.919 129.463 171.257 130.235C171.594 131.104 171.16 132.021 171.015 132.889C170.919 133.613 170.871 133.806 170.098 133.324C169.326 132.793 168.747 132.938 168.023 133.468C167.685 133.71 167.106 134.434 166.72 134.434L165.707 135.881C165.466 136.219 164.886 136.412 164.5 136.605C163.101 137.377 164.259 138.584 164.163 139.694C164.066 140.659 163.197 141.045 162.956 141.865C162.667 142.831 163.39 143.796 162.329 144.471C160.398 146.016 161.653 148.043 161.026 149.973C160.833 150.6 160.35 150.842 159.964 151.276C159.723 151.517 159.723 151.903 159.482 152.145C159.192 152.434 158.709 152.482 158.323 152.627C157.841 152.82 157.841 153.11 157.551 153.448C157.31 154.22 157.069 154.316 156.489 154.799C156.055 155.185 156.152 155.716 156.2 156.247C156.2 157.598 157.069 158.225 155.283 158.659C154.366 158.901 154.077 158.997 153.497 159.769C153.063 160.348 152.098 162.086 151.278 162.182C150.94 162.761 150.409 163.244 150.457 163.968C150.457 164.547 150.698 164.692 150.312 165.223C149.492 166.236 150.312 167.877 149.782 168.697C149.444 169.228 148.286 168.842 147.755 169.18C147.224 169.518 146.886 170 146.259 169.518C145.873 169.228 145.631 168.938 145.149 169.276C144.811 169.566 144.28 170.338 144.087 170.772C143.556 172.027 142.35 173.62 140.805 172.365L139.551 171.882C139.02 171.882 138.151 172.172 137.669 171.882C137.234 171.641 136.8 170.386 136.752 169.904C136.752 169.421 136.366 169.325 136.317 168.938C136.269 168.649 136.221 168.263 136.317 167.973C136.655 167.491 137.524 166.96 136.317 166.67C135.063 166.333 135.931 165.946 135.401 165.174C135.014 164.595 136.124 164.45 136.317 164.209C136.703 163.727 135.738 162.81 136.076 162.375C136.317 162.038 136.559 162.038 136.752 161.603C137.234 160.348 138.537 161.844 138.972 160.735C139.261 160.011 139.261 159.432 139.744 158.756C140.178 158.08 141.24 157.549 141.529 156.777C141.867 155.909 141.626 154.944 142.06 154.171C142.398 153.592 142.012 153.013 142.06 152.482C141.964 150.745 142.253 149.104 142.253 147.415C142.253 145.726 142.398 146.498 142.543 146.016C142.688 145.533 142.977 144.954 142.929 144.471C142.929 144.134 142.398 144.23 142.205 144.085C141.915 143.844 142.06 143.217 142.06 142.879C142.205 142.348 142.736 142.203 142.929 141.721C143.122 141.19 142.929 140.852 142.591 140.418C141.915 139.356 142.591 138.246 142.591 137.088V136.991Z" stroke="#808080" stroke-opacity="0.55" stroke-width="2" stroke-miterlimit="10"/>
<path fill-rule="evenodd" clip-rule="evenodd" d="M105.384 118.653C105.77 118.991 105.963 119.522 106.638 119.377C106.928 119.329 107.073 119.039 107.218 118.798C107.7 117.688 108.424 117.206 109.63 116.964C110.451 117.061 111.85 116.627 112.526 116.964C112.671 118.026 114.119 118.798 115.035 118.412C115.759 118.123 116.58 117.64 117.255 117.447C117.786 117.302 117.883 118.026 118.027 118.412C118.269 119.281 119.427 118.557 119.813 119.522C120.151 120.294 120.344 121.259 121.116 121.742C122.178 122.611 122.66 122.611 123.915 122.997C124.639 123.238 125.411 126.037 125.604 126.809C125.797 127.678 126.038 127.919 126.666 128.45C127.1 128.836 127.341 129.705 127.341 130.284C127.197 131.008 128.017 131.152 128.403 131.49C128.837 131.828 128.789 132.648 129.223 132.986C129.513 133.227 130.285 132.986 130.575 132.938C131.347 132.745 132.022 133.324 132.988 133.179C134.049 132.986 134.194 133.179 134.821 133.903C135.787 134.965 136.366 135.206 137.717 135.11C139.02 135.013 139.792 134.82 140.612 135.93C140.805 136.171 140.95 136.509 141.24 136.702C141.385 136.799 141.578 136.847 141.722 136.895C141.964 136.943 142.205 137.04 142.495 137.136C142.495 138.295 141.819 139.405 142.495 140.466C142.784 140.901 143.025 141.238 142.832 141.769C142.639 142.252 142.108 142.397 141.964 142.927C141.964 143.265 141.819 143.893 142.108 144.134C142.301 144.279 142.784 144.182 142.832 144.52C142.832 145.003 142.591 145.63 142.446 146.064C142.301 146.547 142.157 146.933 142.157 147.464C142.157 149.201 141.867 150.794 141.964 152.531C141.867 153.062 142.253 153.641 141.964 154.22C141.529 154.992 141.771 156.005 141.433 156.826C141.143 157.55 140.033 158.081 139.647 158.804C139.165 159.48 139.165 160.059 138.875 160.783C138.441 161.845 137.186 160.397 136.655 161.652C136.51 162.038 136.221 162.086 135.98 162.424C135.69 162.858 136.607 163.727 136.221 164.258C135.835 164.789 134.918 164.692 135.304 165.223C135.835 165.995 134.966 166.381 136.221 166.719C137.427 167.057 136.559 167.539 136.221 168.022C136.173 168.311 136.221 168.697 136.221 168.987C136.269 169.373 136.655 169.47 136.655 169.952C136.655 170.435 137.138 171.689 137.572 171.931C138.055 172.22 138.923 171.931 139.454 171.931C139.599 172.269 139.502 172.799 139.502 173.186C139.502 173.765 140.033 174.151 140.082 174.73C140.226 175.791 139.985 176.805 139.985 177.818C140.371 178.735 139.696 179.652 138.779 178.928C138.199 178.446 137.862 177.867 137.524 178.928C137.379 179.314 137.331 179.893 137.09 180.231C136.221 181.293 135.835 183.127 135.594 184.478H134.966C133.856 184.526 132.891 185.105 131.781 185.154L128.596 185.25H123.722C122.805 185.154 121.985 184.912 121.116 184.575C120.682 184.381 119.813 183.609 119.475 183.609C118.317 184.285 120.489 187.663 118.317 187.373C115.759 187.036 114.167 186.312 111.561 187.132C110.596 187.422 110.306 187.373 109.92 187.036C109.727 186.891 109.679 186.601 109.486 186.36C109.293 186.119 108.955 185.877 108.762 185.491C108.279 184.961 107.652 184.43 107.314 184.092C107.459 183.513 107.555 182.258 107.507 181.679C107.411 180.955 106.928 180.376 106.783 179.652C106.687 179.121 106.928 178.639 106.88 178.156C107.266 177.384 107.652 176.371 108.086 175.647C108.424 175.116 109.486 176.129 109.293 174.682C109.196 173.813 109.968 174.585 110.258 174.199C110.451 173.958 110.403 173.523 110.354 173.234C110.161 172.124 110.499 171.979 111.32 171.4C111.995 170.917 110.451 169.47 111.609 168.553C111.85 168.36 111.754 168.215 111.85 167.974C112.043 167.298 112.092 166.719 112.092 166.043C112.092 165.561 111.754 164.982 112.429 165.03C112.96 165.078 116.145 165.609 116.194 164.789C116.194 164.161 115.373 163.244 114.939 162.81C114.263 162.086 113.539 160.88 113.636 159.818C113.684 159.094 114.118 158.998 113.636 158.225C112.767 157.019 111.464 156.44 111.32 154.751C111.223 153.737 111.609 151.373 111.126 150.601C110.692 149.925 109.968 149.249 109.437 148.574C109.196 148.043 108.955 146.209 108.617 146.112C107.652 145.775 106.059 146.016 104.998 145.871C104.081 145.775 103.839 146.499 103.067 146.692C102.054 146.933 101.378 146.402 101.571 145.34C101.716 144.279 102.536 143.555 102.247 142.445C101.62 140.128 99.5444 142.879 98.9653 141.335C98.5793 140.37 98.8206 139.163 98.3862 138.198C98.1449 137.667 98.1449 136.992 97.9519 136.413C97.7106 135.737 97.3245 135.206 96.9867 134.627C96.7454 134.193 96.6489 133.71 96.3594 133.324V132.069C96.6972 131.635 97.2763 131.152 97.0833 130.573C96.9385 130.235 96.6007 130.042 96.5041 129.656C96.3594 128.788 97.0832 128.595 97.2763 127.967C97.4693 127.34 97.4693 126.085 97.6624 125.168C98.0002 124.975 98.1449 124.493 98.4827 124.251C99.1101 123.769 99.9788 124.107 100.703 123.769C101.764 123.238 102.681 122.369 103.55 121.597C103.984 121.163 103.984 120.68 104.177 120.101C104.37 119.619 104.853 119.281 105.239 118.943L105.384 118.653Z" stroke="#808080" stroke-opacity="0.55" stroke-width="2" stroke-miterlimit="10"/>
<path fill-rule="evenodd" clip-rule="evenodd" d="M190.946 134C191.718 133.469 191.67 132.455 192.876 132.455C194.083 132.455 194.517 132.938 194.517 132.021C194.517 131.104 194.614 130.525 195.241 130.332C196.061 130.091 196.061 130.332 196.785 129.656C197.895 128.691 198.667 129.849 199.343 130.621C200.356 131.78 200.743 130.67 201.804 130.573C202.19 130.525 205.327 131.056 204.748 130.187L202.866 127.34C202.576 126.278 201.273 125.603 200.984 124.541C200.694 123.479 204.941 121.742 205.858 121.597C207.161 121.404 208.03 121.694 209.188 120.97C209.863 120.584 210.973 119.425 211.408 118.798C212.083 118.074 211.697 116.723 211.552 115.854C211.456 115.179 211.263 114.648 211.794 114.117C212.469 113.393 213.531 112.187 213.724 111.173C213.917 110.015 213.821 108.905 213.821 107.747L213.241 105.624C214.014 105.479 213.917 105.286 214.207 104.707C214.448 104.224 218.116 104.176 218.743 104.176L220.48 105.961C221.011 106.492 220.818 106.782 221.059 107.409C221.349 108.085 221.928 109.388 222.652 109.726C223.617 110.112 224.244 109.388 225.258 109.726C226.995 111.028 226.947 108.567 228.346 108.374C229.746 108.181 231.29 108.809 231.483 107.892C231.918 106.299 232.014 107.264 232.979 107.264C233.944 107.264 233.607 105.913 234.186 105.189C234.765 104.417 236.116 104.707 237.081 104.61C237.274 105.624 237.033 107.071 237.033 108.133C237.033 109.195 238.046 108.374 238.046 108.905C238.046 109.774 238.046 111.077 238.288 111.897C238.384 112.283 238.722 112.814 238.915 113.152C239.156 113.586 239.156 114.021 239.253 114.503C239.253 114.937 239.832 115.227 239.88 115.758C239.88 116.192 240.121 116.82 240.363 117.157C240.894 117.978 241.907 117.929 242.197 118.991C242.341 119.474 242.583 120.149 242.39 120.584C242.052 121.356 241.569 122.176 242.39 122.804C243.162 123.431 243.934 123.672 243.741 124.83C243.596 126.616 244.127 128.739 242.727 129.994C241.231 131.345 241.666 132.648 241.473 134.434C241.473 135.206 241.521 135.158 241.231 135.785C240.797 136.702 242.004 137.281 242.679 137.522C244.32 138.102 244.32 139.742 244.513 141.238C244.561 141.817 244.272 142.541 244.754 143.024C245.333 143.603 246.25 143.555 246.974 143.893C247.553 144.134 250.401 145.823 250.497 146.305C250.642 147.126 250.594 147.994 250.594 148.815C250.594 149.635 251.269 149.828 251.124 150.6C250.545 154.461 253.923 151.662 255.275 153.834C255.468 154.172 255.661 154.461 255.805 154.847C256.143 155.668 257.012 156.15 257.784 156.391C258.17 156.536 258.46 157.019 258.798 157.26L259.473 157.501C259.521 157.791 259.714 157.887 259.907 158.081C260.052 158.225 260.149 158.37 260.245 158.563C260.438 159.046 259.811 159.094 259.57 159.335C259.087 159.721 258.122 161.555 258.315 162.327C258.604 163.244 258.17 165.03 256.915 164.933C255.999 164.837 255.95 164.837 255.564 165.802C255.13 166.864 253.537 166.284 253.006 165.657C251.752 164.258 251.028 166.526 250.352 165.271C250.207 164.981 249.58 165.512 249.242 165.512C248.567 166.14 246.347 167.394 245.333 167.443C244.127 167.443 243.355 166.622 242.776 168.215C242.583 168.697 241.569 169.276 241.714 169.711C241.811 169.952 242.148 170.193 241.955 170.483C241.714 170.773 241.28 170.821 241.087 171.11C240.604 172.075 242.052 173.958 241.907 174.971L242.148 177.046C241.617 176.95 241.087 176.901 240.556 176.901C238.963 177.046 237.66 178.06 236.261 177.384L236.406 174.874C236.406 174.44 236.213 173.958 235.971 173.62C235.489 173.041 234.813 173.861 234.427 173.62C233.993 173.33 234.379 172.799 234.427 172.413C234.427 172.027 234.137 171.641 234.427 171.303C234.91 170.724 235.054 170.772 235.054 169.952C234.62 169.518 233.027 170.193 232.545 170.386C231.387 170.869 230.228 170.821 228.974 170.821C227.719 170.821 226.995 171.014 226.271 170.676C225.306 170.676 224.437 170.338 223.617 170.338C222.797 170.338 221.638 171.159 221.349 171.641C221.059 172.172 220.963 172.51 220.432 172.799C219.467 173.33 218.502 173.041 217.44 173.234C216.234 173.475 215.751 173.137 215.558 171.834C214.834 171.834 214.448 172.413 213.821 172.655C212.952 172.992 212.083 173.089 211.166 173.041C208.367 173.427 207.981 169.276 204.941 169.276C201.901 169.276 202.769 169.035 201.708 168.794C200.887 168.601 200.839 166.284 200.936 165.657C200.936 164.547 201.322 164.644 202.19 164.258C203.397 163.775 202.721 163.196 203.348 162.569C203.735 162.134 204.121 161.941 204.555 161.603C205.086 161.169 204.7 160.204 204.893 159.673C205.231 158.708 206.051 157.887 206.823 157.26C207.499 156.729 209.14 155.523 208.319 154.654C207.837 153.882 207.161 153.592 207.354 152.483C207.499 151.517 208.174 151.517 208.512 150.793C208.802 150.166 208.367 150.021 208.174 149.491C207.885 148.815 208.03 147.946 208.03 147.222C208.03 146.161 206.147 146.402 206.389 145.292C206.147 144.423 207.209 143.506 206.63 142.734C205.954 141.866 205.761 141.48 204.507 141.335C203.542 141.238 203.542 140.418 202.432 140.659C201.032 140.949 201.225 142.203 199.633 141.528C199.15 141.335 198.716 141.624 198.233 141.142C197.702 140.563 197.075 140.659 196.351 140.563C195.482 140.418 195.482 139.984 194.952 139.453C194.662 139.163 193.166 139.26 193.262 138.536C193.166 137.957 193.407 137.378 192.78 137.04C191.863 136.557 191.477 136.364 191.043 135.351C190.608 134.337 191.139 134.144 190.801 133.758L190.946 134Z" stroke="#808080" stroke-opacity="0.55" stroke-width="2" stroke-miterlimit="10"/>
<path fill-rule="evenodd" clip-rule="evenodd" d="M190.946 134C191.284 134.386 190.946 135.11 191.187 135.592C191.622 136.606 192.008 136.799 192.925 137.281C193.552 137.619 193.311 138.198 193.407 138.777C193.311 139.501 194.807 139.405 195.096 139.694C195.627 140.177 195.627 140.659 196.496 140.804C197.171 140.901 197.847 140.804 198.378 141.383C198.812 141.866 199.246 141.576 199.777 141.769C201.37 142.445 201.177 141.19 202.576 140.901C203.686 140.659 203.734 141.48 204.651 141.576C205.906 141.721 206.099 142.107 206.775 142.976C207.354 143.748 206.34 144.665 206.533 145.534C206.244 146.643 208.174 146.402 208.174 147.464C208.174 148.526 208.029 149.056 208.319 149.732C208.56 150.263 208.946 150.408 208.657 151.035C208.319 151.759 207.643 151.711 207.499 152.724C207.306 153.834 207.981 154.124 208.464 154.896C209.284 155.764 207.643 156.971 206.968 157.502C206.196 158.177 205.375 158.949 205.037 159.915C204.844 160.445 205.23 161.411 204.7 161.845C204.265 162.183 203.879 162.376 203.493 162.81C202.866 163.486 203.541 164.017 202.335 164.499C201.466 164.837 201.08 164.789 201.08 165.899C200.984 166.526 201.08 168.842 201.852 169.035C202.914 169.277 204.024 169.518 205.086 169.518C208.126 169.518 208.464 173.62 211.311 173.282C212.228 173.282 213.097 173.234 213.965 172.896C214.593 172.655 215.027 172.027 215.703 172.027C215.847 173.33 216.378 173.717 217.585 173.427C218.646 173.186 219.611 173.523 220.577 172.993C221.107 172.703 221.204 172.317 221.494 171.834C221.783 171.352 223.134 170.531 223.762 170.531C224.389 170.531 225.402 170.918 226.416 170.869C227.14 171.207 228.346 171.014 229.118 171.014C230.373 171.014 231.531 171.062 232.69 170.58C233.124 170.387 234.765 169.711 235.199 170.145C235.199 170.966 235.006 170.918 234.572 171.497C234.282 171.834 234.572 172.22 234.572 172.607C234.572 172.993 234.186 173.523 234.572 173.813C235.006 174.103 235.633 173.234 236.116 173.813C236.357 174.151 236.55 174.633 236.55 175.068L236.405 177.577C236.068 177.432 235.585 177.577 235.247 177.577L230.47 178.108L227.429 178.542L223.183 178.88L214.544 179.121C212.904 179.459 210.153 179.894 208.512 179.459C207.113 179.073 207.547 177.577 205.858 178.06C205.279 178.205 203.686 178.639 203.155 178.542C202.094 178.398 202.576 176.853 201.225 176.564L198.088 175.888C196.11 175.502 193.938 174.923 192.297 173.668L186.989 169.711C186.12 169.035 184.093 167.877 183.466 167.105C182.645 166.285 181.729 165.706 180.812 165.03C180.329 164.644 179.316 163.63 178.737 163.63H176.372C175.358 163.727 173.959 163.727 172.994 163.968C171.16 164.74 172.222 166.574 170.774 167.491C169.423 168.408 167.348 170.194 165.658 169.904C164.307 169.711 162.859 168.939 161.508 168.939C159.53 168.939 158.323 170.049 156.779 171.062C155.621 171.786 154.269 174.44 154.076 175.792C153.883 177.095 155.814 178.88 154.125 179.942L142.88 183.272C141.626 183.658 140.516 184.14 139.213 184.14L135.835 184.285C136.076 182.982 136.414 181.1 137.331 180.038C137.572 179.701 137.669 179.121 137.765 178.735C138.151 177.674 138.441 178.253 139.02 178.735C139.937 179.459 140.564 178.542 140.226 177.625C140.226 176.612 140.419 175.55 140.323 174.537C140.275 173.91 139.744 173.572 139.744 172.993C139.744 172.414 139.792 172.076 139.695 171.738L140.95 172.22C142.494 173.475 143.701 171.883 144.232 170.628C144.425 170.194 144.907 169.422 145.293 169.132C145.776 168.746 146.017 169.084 146.403 169.373C147.079 169.856 147.417 169.373 147.899 169.035C148.43 168.698 149.588 169.132 149.926 168.553C150.409 167.732 149.637 166.092 150.457 165.078C150.891 164.547 150.65 164.403 150.602 163.824C150.602 163.148 151.084 162.617 151.422 162.038C152.194 161.99 153.208 160.252 153.642 159.625C154.221 158.853 154.511 158.708 155.428 158.515C157.213 158.081 156.393 157.502 156.345 156.102C156.345 155.571 156.2 155.04 156.634 154.654C157.213 154.172 157.455 154.075 157.696 153.303C157.985 152.965 157.985 152.676 158.468 152.483C158.806 152.338 159.337 152.29 159.626 152C159.819 151.759 159.867 151.421 160.109 151.132C160.495 150.649 160.977 150.456 161.17 149.829C161.798 147.898 160.543 145.871 162.473 144.327C163.535 143.651 162.811 142.686 163.101 141.721C163.342 140.901 164.211 140.466 164.307 139.549C164.404 138.44 163.246 137.233 164.645 136.461C165.031 136.268 165.61 136.075 165.852 135.737L166.865 134.289C167.251 134.289 167.83 133.614 168.168 133.324C168.892 132.793 169.471 132.649 170.243 133.179C171.015 133.662 171.063 133.469 171.16 132.745C171.256 131.876 171.739 130.959 171.401 130.091C171.063 129.319 170.34 129.512 169.664 129.222C170.002 127.967 169.471 127.002 170.388 125.941C170.677 125.555 171.112 125.265 171.546 124.975C171.739 124.879 171.836 124.734 171.98 124.589C172.173 124.348 172.511 124.203 172.656 124.01C173.525 124.638 174.49 124.686 175.31 125.265L177.144 126.713C177.964 127.34 179.074 127.581 179.991 128.209C180.956 128.884 181.729 130.043 182.597 130.863C183.225 131.587 184.19 131.925 184.962 132.359C185.348 132.6 185.927 133.614 186.506 133.421C186.94 133.276 187.085 132.89 187.664 132.842C188.823 132.793 189.739 134.434 191.091 133.903L190.946 134Z" stroke="#808080" stroke-opacity="0.55" stroke-width="2" stroke-miterlimit="10"/>
<path fill-rule="evenodd" clip-rule="evenodd" d="M172.56 124.107L172.849 122.514C173.525 122.225 174.538 121.163 174.683 120.439C174.828 119.715 174.49 118.509 174.49 117.688C174.49 117.157 174.2 117.061 173.863 116.723C173.187 116.144 173.863 115.082 173.332 114.503C172.704 113.779 172.994 112.766 172.415 111.897C172.174 111.029 170.629 109.726 169.809 109.243C169.471 109.05 168.554 108.712 168.458 108.326C168.265 107.795 168.458 107.264 168.458 106.734C168.409 105.913 168.216 105.238 167.637 104.658C167.058 104.079 167.348 103.066 166.72 102.487C166.238 101.763 165.659 101.473 165.321 100.653C165.176 100.363 165.61 99.6395 165.659 99.2535C165.659 97.9505 165.755 97.3714 164.79 96.3579L163.632 95.1515C162.908 94.4276 163.246 94.0898 163.004 93.2694C164.018 91.9664 165.321 92.4973 166.817 92.2077C168.072 91.9664 168.023 90.8565 168.506 89.7948C169.037 88.6366 169.857 89.2157 170.726 89.0709C171.16 88.9744 171.98 89.0709 172.174 88.6366C172.656 87.4784 173.09 88.5401 173.525 88.9744C174.2 89.65 174.972 88.3953 175.503 87.8162C176.372 87.0923 176.758 85.9824 175.214 85.8376C174.538 85.7411 173.525 85.8858 173.042 85.2585C172.367 84.3416 172.222 82.9421 171.498 81.9287C170.774 80.867 170.098 79.8053 170.098 78.454C170.484 77.1993 167.396 75.1242 168.988 74.2556C170.002 73.7247 170.147 73.773 170.581 72.7113C170.726 72.3252 170.726 71.9391 170.822 71.5531L171.546 69.3814C171.884 68.8506 171.546 66.8237 172.801 66.8237C173.67 67.6924 174.731 68.1267 176.034 67.8854C177.965 67.4511 177.241 66.5824 178.592 67.8854C179.074 68.3198 179.702 68.1267 180.233 68.1267C181.632 68.1267 181.198 67.3546 182.211 66.7272C183.08 66.1481 184.479 66.6307 185.445 66.1481C186.458 65.569 186.748 63.3974 186.989 62.384C187.375 60.9845 187.278 59.4884 187.664 58.1372L188.244 56.979C189.354 57.172 190.56 56.979 191.67 57.1238C192.78 57.2203 193.89 59.4884 194.276 60.4054C194.758 61.7083 195.145 63.4939 195.241 64.8934C195.145 65.5208 194.855 65.7138 194.421 66.0999C193.793 66.6307 195.627 67.5959 194.228 67.8854C193.407 68.0302 193.118 67.9819 193.262 68.9954C193.407 69.864 193.649 71.6979 193.069 72.4217C192.828 72.7595 192.49 73.966 193.069 74.0143C193.649 74.0143 193.745 74.2555 193.89 74.7864C193.697 75.4138 193.938 76.572 193.938 77.2958C193.938 78.0197 193.986 78.9366 194.324 79.4675C194.71 79.6605 194.807 79.6122 195.241 79.6122C195.434 79.757 195.338 81.6874 195.386 82.0734C195.386 82.8938 195.965 83.5694 195.965 84.3416C195.965 84.8242 196.013 85.548 196.158 86.0306C196.303 86.7062 197.22 86.8028 197.22 87.6232C197.22 88.154 197.123 88.8296 197.268 89.3122C197.364 89.65 197.847 89.8913 197.895 90.2774C197.944 90.7117 198.088 91.7734 197.702 92.1112C197.316 92.4973 197.461 93.5107 197.509 94.0415C197.654 95.7306 198.523 96.4545 200.212 96.3579C201.804 96.2614 201.708 96.2132 202.48 97.5644C203.011 98.5296 204.169 97.9022 204.989 98.4331L208.126 100.412C208.946 100.943 209.67 102.101 210.394 102.825L213.241 105.72L213.821 107.843C213.821 109.002 213.917 110.112 213.724 111.27C213.579 112.283 212.469 113.49 211.794 114.214C211.263 114.793 211.456 115.275 211.552 115.951C211.697 116.82 212.083 118.171 211.408 118.895C210.973 119.57 209.863 120.68 209.188 121.066C208.03 121.742 207.161 121.501 205.858 121.694C204.893 121.838 200.694 123.576 200.984 124.637C201.273 125.699 202.576 126.423 202.866 127.436L204.748 130.284C205.327 131.152 202.19 130.621 201.804 130.67C200.743 130.815 200.356 131.876 199.343 130.718C198.619 129.946 197.895 128.739 196.785 129.753C196.061 130.38 196.013 130.187 195.241 130.428C194.565 130.621 194.517 131.538 194.517 132.117C194.517 132.986 193.359 132.552 192.876 132.552C191.67 132.552 191.766 133.565 190.946 134.096C189.595 134.627 188.726 132.938 187.52 133.034C186.941 133.034 186.796 133.469 186.362 133.614C185.782 133.807 185.203 132.793 184.817 132.552C183.997 132.117 183.032 131.78 182.453 131.056C181.584 130.187 180.86 129.077 179.847 128.402C178.978 127.774 177.82 127.533 176.999 126.906L175.166 125.458C174.393 124.83 173.38 124.83 172.511 124.203H172.56V124.107Z" stroke="#808080" stroke-opacity="0.55" stroke-width="2" stroke-miterlimit="10"/>
<path fill-rule="evenodd" clip-rule="evenodd" d="M186.506 24.6941V26.914C186.844 27.3483 187.568 27.6861 187.713 28.0722C187.954 28.6995 187.713 30.2921 187.52 30.9194C187.278 31.6916 187.182 32.1259 186.603 32.705C185.155 34.2493 187.278 33.8149 187.23 35.1179C187.23 35.6488 186.989 36.1796 187.375 36.6139C187.809 37.193 188.581 37 189.16 37.3378C189.981 37.8687 190.126 38.0134 190.126 38.9786C190.126 39.9438 190.463 39.9438 190.801 40.4264C191.622 41.5846 191.38 44.5766 191.187 45.9278C191.043 46.5069 190.753 47.086 190.608 47.6169C190.27 48.8716 190.126 49.692 188.726 49.8368C188.147 49.885 187.664 49.8368 187.085 49.9815C186.41 50.2228 186.844 51.9601 187.134 52.3945C187.423 52.8288 187.906 53.0701 188.051 53.6009C188.195 54.0835 188.051 54.6626 188.195 55.1452V56.8825H188.147C189.257 57.0755 190.463 56.8825 191.573 57.0273C192.683 57.1238 193.793 59.3919 194.179 60.3089C194.662 61.6118 195.048 63.3974 195.145 64.7969C195.048 65.4243 194.758 65.6173 194.324 66.0034C193.697 66.5342 195.531 67.4994 194.131 67.7889C193.311 67.9337 193.021 67.8854 193.166 68.8989C193.311 69.7675 193.552 71.6013 192.973 72.3252C192.732 72.663 192.394 73.8695 192.973 73.9178C193.552 73.9178 193.649 74.159 193.793 74.6899C193.6 75.3173 193.842 76.4755 193.842 77.1993C193.842 77.9232 193.89 78.8401 194.228 79.371C194.614 79.564 194.71 79.5157 195.145 79.5157C195.338 79.6605 195.241 81.5909 195.289 81.9769C195.289 82.7973 195.868 83.4729 195.868 84.2451C195.868 84.7277 195.917 85.4515 196.061 85.9341C196.206 86.6097 197.123 86.7063 197.123 87.5267C197.123 88.0575 197.027 88.7331 197.171 89.2157C197.268 89.5535 197.751 89.7948 197.799 90.1809C197.847 90.6152 197.992 91.6769 197.606 92.0147C197.22 92.4008 197.364 93.4142 197.413 93.945C197.557 95.6341 198.426 96.358 200.115 96.2614C201.708 96.1649 201.611 96.1167 202.383 97.4679C202.914 98.4331 204.072 97.8057 204.893 98.3366L208.03 100.315C208.85 100.846 209.574 102.004 210.298 102.728L213.145 105.624C213.917 105.479 213.821 105.286 214.11 104.707C214.351 104.224 218.019 104.176 218.646 104.176L220.384 105.961C220.915 106.492 220.722 106.782 220.963 107.409C221.252 108.085 221.832 109.388 222.555 109.726C223.521 110.112 224.148 109.388 225.161 109.726C226.899 111.029 226.85 108.567 228.25 108.374C229.649 108.181 231.194 108.809 231.387 107.892C231.821 106.299 231.918 107.264 232.883 107.264C233.848 107.264 233.51 105.913 234.089 105.189C234.668 104.417 236.019 104.707 236.985 104.61C237.322 104.465 237.612 104.321 237.805 103.983C237.853 103.838 237.95 103.693 238.046 103.597C238.336 103.404 238.529 103.355 238.818 103.307C239.156 103.307 239.494 103.307 239.88 103.259L240.749 102.825L240.17 100.122C239.88 99.6878 239.494 99.4948 239.205 99.1087C238.915 98.6744 238.867 97.6609 239.301 97.3231C240.363 96.5992 240.749 95.441 241.28 94.3311C241.569 93.752 241.907 93.2694 242.39 92.7868C242.872 92.3042 241.714 91.1943 241.376 90.6635C240.99 89.9396 240.073 90.0361 239.446 89.8913C238.722 89.6983 238.384 88.6366 238.481 88.0092C238.625 87.2371 239.88 86.5615 239.446 85.7411C239.301 85.4998 239.301 85.2102 239.301 84.9207C239.253 84.1486 239.301 83.7142 239.012 82.9904C238.577 82.0252 237.757 81.4943 238.288 80.3844C240.073 79.6123 238.143 78.068 239.253 77.1028C239.687 76.7167 239.687 76.6202 239.784 76.0411C239.928 75.3655 240.749 75.0277 240.749 74.3038C240.749 74.0143 240.604 72.7113 240.411 72.47C240.025 71.9874 239.639 72.0839 239.494 71.4083C239.398 70.974 239.349 70.3949 239.494 70.0088C239.977 68.4163 239.928 67.4994 238.577 66.4859C237.467 65.6173 236.213 63.3974 234.813 63.1561C234.379 63.0596 233.607 63.2526 233.317 62.9631C233.076 62.6735 233.172 62.1427 233.076 61.8049C232.931 61.274 233.462 61.081 233.751 60.7914C234.717 60.0193 233.896 59.3437 233.51 58.6198C233.124 57.8959 233.462 57.3168 233.221 56.593C232.979 55.8691 232.497 56.1104 232.352 55.5313C232.255 55.1935 232.255 54.8556 232.255 54.5178C232.255 53.8422 230.759 53.8422 230.47 53.1183C229.939 51.9601 227.478 53.2149 227.429 51.381C227.429 50.6572 227.236 49.885 226.513 49.5472C225.547 49.1129 225.837 48.7268 225.74 47.8582C225.692 47.3273 225.017 47.1825 225.306 46.5552C225.451 46.3139 225.354 45.3487 225.354 45.0109C225.065 44.8661 224.679 44.9144 224.341 44.8179C223.955 44.7214 223.714 44.4801 223.424 44.2388C222.7 43.6114 222.652 43.0323 222.748 42.1154C222.845 41.5363 222.893 41.1985 222.362 40.9572C221.783 40.6676 221.011 40.4746 220.384 40.3298C219.274 40.0885 217.247 39.5094 217.102 38.2065C217.006 37.3378 217.971 36.8552 217.778 36.1314C217.585 35.4557 217.633 35.504 218.019 34.9249C218.309 34.394 218.453 34.201 219.081 34.008C219.612 33.8632 219.949 33.8632 220.287 33.3324C221.252 32.1742 219.322 30.7747 220.335 29.8577C221.011 29.2786 220.866 29.1339 220.335 28.5548C219.805 27.9757 219.901 27.9274 219.756 27.3966L220.239 25.5145H220.191C218.888 25.5145 217.054 27.4931 216.764 25.1767C216.33 24.9354 215.751 26.2384 214.786 25.7075L212.904 24.6941C211.552 23.9702 211.07 22.9085 209.526 22.9085C207.981 22.9085 208.85 21.0264 207.885 21.7021C207.306 22.0881 206.968 22.812 206.341 23.1016C205.858 23.4876 205.568 23.7772 205.182 24.1632C204.796 24.5493 204.362 24.2598 203.976 24.4528C202.769 25.0802 202.335 25.9488 200.839 25.5627C199.777 25.2732 199.633 26.0453 198.86 26.6244C198.426 26.9622 196.737 28.7961 196.158 28.3135C195.145 27.4448 194.662 25.9005 193.359 25.4662C192.442 25.1767 191.429 25.1767 190.56 24.6941C189.981 24.4528 189.402 24.2115 188.967 23.7772C188.63 23.4876 188.437 23.2946 188.051 23.4876C187.375 23.7772 186.892 24.308 186.265 24.6458L186.506 24.6941Z" stroke="#808080" stroke-opacity="0.55" stroke-width="2" stroke-miterlimit="10"/>
<path fill-rule="evenodd" clip-rule="evenodd" d="M63.5918 144.52C64.2674 145.775 64.2674 146.692 63.3987 147.85C62.2405 149.394 61.5649 151.228 60.3585 152.772C59.8759 153.4 59.2968 153.979 58.4281 154.075C57.656 154.172 56.8838 154.413 56.8838 155.33C57.2217 156.681 57.0769 158.274 58.0903 159.287C58.2351 159.48 58.7177 160.011 58.959 160.059C59.6346 160.204 59.4898 158.081 60.455 159.094C60.9858 159.673 61.5649 160.204 62.2888 160.542C63.3022 161.024 63.8813 160.928 63.5918 162.134C63.3505 163.293 65.0878 162.81 64.2674 164.499C64.0744 165.271 64.0261 166.381 65.1843 165.947C65.7634 165.705 67.9833 163.679 68.3694 164.885C68.5141 165.319 68.4176 165.947 68.3694 166.381C68.2729 166.912 68.3694 167.636 68.3694 168.167C67.8868 168.167 67.3077 168.36 66.8734 168.504L63.4953 169.614C62.3371 170 62.6749 168.939 61.3236 169.518C59.2968 170.387 57.2699 171.545 55.7739 173.282C55.4843 173.62 52.1545 172.606 51.3824 172.606C50.0794 172.703 48.7282 174.102 47.6665 173.041C46.6048 171.979 44.1436 173.282 43.468 173.379C42.0685 173.523 42.3098 173.716 41.4411 172.655C40.8138 171.834 39.4143 171.641 38.7386 170.724C38.7386 169.759 39.0765 168.167 38.6904 167.25C38.063 166.767 37.4357 166.622 37.7735 165.609C37.8217 165.271 38.1113 164.161 37.7735 163.968C37.2909 163.727 36.2292 163.775 35.8914 163.341C35.6018 162.955 35.6984 162.665 35.1675 162.665C34.6367 162.665 33.7198 163.099 33.2854 163.051C32.8994 163.003 33.0924 161.603 33.0441 161.266C32.9959 160.88 32.7546 160.542 32.7063 160.156C32.1272 159.866 31.2103 160.059 30.5347 159.77C29.666 159.094 30.2452 157.743 28.3631 159.191C27.6875 159.673 26.0467 160.783 25.3228 160.349L23.1029 159.142C22.0412 158.563 22.7651 158.225 22.9581 157.115C23.1029 156.343 22.7168 153.979 22.0895 153.593C21.3656 153.158 20.883 152.531 20.3522 151.904C19.7731 151.228 16.395 155.523 15.8641 156.247C15.7193 156.44 15.0437 156.392 14.8989 156.343C14.8989 155.812 14.8024 155.282 14.7059 154.751C14.2716 152.579 13.982 150.456 14.4646 148.284C14.8989 146.402 14.4646 143.893 14.3681 141.914C14.3681 140.659 13.6925 139.163 13.4029 138.005C13.2099 138.005 12.9204 138.15 12.6308 138.102L11.3278 137.957C10.99 137.716 10.99 137.474 10.5557 137.281L9.44574 136.847C8.77012 136.606 7.61191 136.123 7.22585 135.496C7.03281 135.206 6.98455 134.579 6.79152 134.337C6.55023 134.048 5.15073 134.53 4.76466 134.579C3.60646 134.723 2.88258 134 1.72438 134C0.662691 134 0.903983 133.034 1.5796 132.6C2.44826 132.021 1.77264 131.635 2.06219 131.008C2.20696 130.38 2.68955 129.512 3.31691 129.222C3.94427 128.932 4.81292 129.415 5.05421 128.739C5.63332 127.195 6.45371 125.747 6.50197 124.058C6.50197 123.624 6.50197 121.404 6.64674 121.211C6.98455 120.873 7.66017 120.97 8.04624 120.535C8.86664 120.342 8.96315 120.342 9.20445 119.619C9.30096 119.281 10.4109 119.426 10.6522 119.377C11.7139 119.233 13.596 119.956 14.4646 119.57C15.1402 119.233 15.5263 118.653 16.2984 118.364C16.6363 118.267 17.1671 117.736 17.5049 117.254L20.1591 117.736C21.1726 117.833 22.8616 118.509 23.489 119.281C24.1646 120.149 24.4059 121.452 25.178 122.321C25.7571 123.962 27.784 124.637 27.8322 126.664C27.8322 127.581 27.5909 128.402 27.5427 129.319L27.3979 132.359C27.1083 132.841 27.2049 135.061 27.2049 135.737C27.2049 136.799 27.5909 137.522 28.7009 137.619C30.583 137.86 31.4516 138.777 32.9476 139.742C34.0093 140.418 35.4088 141.19 35.7949 142.445C36.1327 143.844 38.6421 144.761 39.8003 145.437C40.2829 145.726 40.669 145.919 40.862 146.499C41.3446 148.091 40.4277 148.188 42.6476 148.188C44.8675 148.188 45.6879 148.381 45.8809 147.078C46.0257 146.064 46.3152 144.472 47.3769 144.037C48.7764 144.037 48.8729 144.52 49.8864 145.389C50.562 145.968 51.0928 146.112 51.2859 147.029C51.5271 148.091 51.7684 149.008 52.6371 149.684C53.9883 150.745 54.5674 146.788 54.857 146.112C56.2565 142.879 57.5595 145.099 60.1654 144.81L63.4953 144.52H63.5918Z" stroke="#808080" stroke-opacity="0.55" stroke-width="2" stroke-miterlimit="10"/>
<path fill-rule="evenodd" clip-rule="evenodd" d="M86.949 113.007C87.6246 113.441 88.2037 113.538 88.7828 114.213C89.4584 115.034 89.6032 116.723 89.7962 117.784C90.0375 118.991 90.2788 118.943 91.4853 118.846C91.8231 118.846 92.2092 118.846 92.4987 118.991C93.0778 119.28 92.8848 119.473 93.6569 119.57C94.2843 119.618 95.2012 119.763 95.346 120.487C95.4908 121.163 94.2843 121.645 93.9465 122.079C93.2709 122.948 91.437 122.755 91.1957 124.058C91.0027 125.023 91.0992 125.892 90.9545 126.857C90.7614 128.305 89.0724 128.401 89.9893 129.849C90.4236 130.476 90.1823 130.959 91.051 131.345C91.8714 131.683 92.2092 131.731 92.8365 132.407C93.2226 133.034 93.8982 133.324 94.6221 133.42C95.2977 133.468 95.9251 133.131 96.5524 133.131C96.7937 133.517 96.9385 134.048 97.1798 134.434C97.5176 135.013 97.9037 135.592 98.145 136.219C98.338 136.798 98.3863 137.474 98.5793 138.005C99.0136 138.97 98.7723 140.128 99.1584 141.142C99.7375 142.734 101.813 139.887 102.44 142.251C102.73 143.361 101.909 144.134 101.764 145.147C101.62 146.16 102.247 146.74 103.26 146.498C104.033 146.305 104.274 145.581 105.191 145.678C106.252 145.823 107.845 145.581 108.81 145.919C109.148 146.016 109.389 147.849 109.63 148.38C110.161 149.056 110.885 149.732 111.32 150.407C111.802 151.179 111.416 153.544 111.513 154.557C111.657 156.246 112.96 156.826 113.829 158.032C114.312 158.804 113.925 158.901 113.829 159.625C113.732 160.686 114.408 161.844 115.132 162.617C115.518 163.051 116.387 163.968 116.387 164.595C116.387 165.416 113.153 164.885 112.623 164.836C111.995 164.788 112.285 165.367 112.285 165.85C112.285 166.526 112.285 167.105 112.043 167.78C111.899 168.022 112.043 168.215 111.802 168.359C110.644 169.276 112.236 170.724 111.513 171.207C110.692 171.786 110.354 171.882 110.547 173.04C110.596 173.33 110.644 173.764 110.451 174.006C110.161 174.392 109.389 173.668 109.486 174.488C109.679 175.984 108.617 174.922 108.279 175.453C107.797 176.177 107.459 177.191 107.073 177.963C107.073 178.445 106.88 178.928 106.976 179.459C107.073 180.183 107.604 180.762 107.7 181.486C107.748 182.065 107.7 183.319 107.507 183.899C106.542 183.899 106.301 184.574 105.432 184.815C104.805 185.009 103.164 184.14 102.633 183.754C101.861 183.175 101.62 183.947 100.751 183.754C99.834 183.513 99.3997 182.692 98.8206 183.802C98.2415 184.912 97.4211 185.974 96.0699 185.202C94.3808 184.236 91.2923 184.671 93.4639 183.126L95.3942 181.727C95.8768 181.341 96.4077 179.604 96.3594 179.024L95.2012 178.059C95.0564 177.721 93.0296 178.059 92.4022 177.673L88.252 176.177C87.142 175.791 87.6729 174.054 86.2251 174.44C85.3082 174.681 84.9221 174.247 83.957 174.247C82.3644 174.247 81.7853 174.681 80.3376 175.309C79.3242 175.743 76.0908 175.309 75.9461 173.861C75.2704 173.378 75.2704 172.654 75.367 171.882C75.4152 171.303 74.45 171.303 74.064 171.014C73.6779 170.724 73.3884 171.207 73.0506 171.351C72.1819 171.737 72.0854 170.821 71.4098 170.676C70.7341 170.531 70.4446 170.627 70.0103 170.676C68.6108 170.869 68.3695 169.566 68.3695 168.408H68.3212C68.3212 167.828 68.1764 167.105 68.3212 166.574C68.4177 166.139 68.466 165.512 68.3212 165.078C67.9351 163.871 65.7153 165.898 65.1362 166.139C63.9779 166.574 64.0262 165.464 64.2192 164.692C65.0396 163.003 63.3506 163.485 63.5436 162.327C63.7849 161.121 63.2058 161.217 62.2406 160.734C61.5168 160.397 60.9377 159.866 60.4068 159.287C59.4417 158.273 59.6347 160.397 58.9108 160.252C58.6695 160.252 58.2352 159.673 58.0422 159.48C57.0287 158.418 57.1735 156.826 56.8357 155.523C56.8357 154.606 57.6561 154.364 58.38 154.268C59.2486 154.171 59.7795 153.592 60.3103 152.965C61.565 151.421 62.2406 149.587 63.3506 148.043C64.171 146.884 64.2192 145.967 63.5436 144.713L63.0128 143.458C63.0128 142.686 63.0128 141.576 62.7715 140.852C62.5302 140.08 62.1924 139.549 62.2889 138.68C62.4337 136.847 63.8814 136.75 65.0879 135.881C65.474 135.592 64.8949 133.855 65.3292 133.179C65.8118 132.214 68.5143 130.476 67.5008 129.27C66.7287 128.353 64.9431 126.374 65.1362 125.023H68.2247C70.155 125.12 72.9058 124.155 74.6913 125.023C76.5252 125.892 77.9247 127.243 80.1445 126.905C81.1097 127.002 81.9784 127.822 82.9918 127.677C83.4261 127.629 84.4396 126.616 84.1983 126.133C83.957 125.699 83.4744 125.554 83.3296 125.023C83.2331 124.637 83.1366 123.382 83.2331 123.045C83.3296 122.707 83.9087 122.755 84.1017 122.369C84.2948 121.983 84.2948 121.597 84.343 121.307V119.618C84.343 118.75 85.8391 117.929 86.0803 117.061C86.3699 116.095 86.0803 115.13 86.2251 114.213L86.949 113.103H86.9007L86.949 113.007Z" stroke="#808080" stroke-opacity="0.55" stroke-width="2" stroke-miterlimit="10"/>
<path fill-rule="evenodd" clip-rule="evenodd" d="M40.669 77.4408C40.1382 77.7786 38.9317 76.9582 38.4974 76.717C38.1596 76.5239 37.8218 76.6204 37.5322 76.4757C36.5671 75.9931 35.1676 77.103 34.2024 77.5373C32.1755 78.406 31.886 79.8055 30.8726 81.4946C30.6313 82.508 29.5213 82.0736 28.7975 82.1702C28.3149 82.2184 27.3497 83.9075 27.4945 84.2935C27.6875 84.8244 28.0253 85.1139 27.6392 85.693C27.2532 86.2239 26.4328 87.3338 25.8054 87.5269C25.4194 87.6716 24.8885 87.8164 24.6472 88.1542C24.3094 88.6368 24.3094 89.1676 24.3577 89.7467C24.5024 90.5189 25.6607 91.6288 25.5159 92.3045C25.2263 93.3661 23.5855 93.9452 23.5855 94.9587C23.5855 95.9721 23.8751 96.3582 23.5855 97.082C23.0547 98.4333 22.1378 98.192 23.1995 99.5432C23.1995 99.9776 23.5855 100.122 23.5373 100.653C23.5373 101.088 23.3925 101.232 23.0547 101.474C22.6204 101.811 22.4756 101.956 22.4756 102.149C23.4408 102.97 24.4059 103.838 24.4059 104.852C24.4059 105.672 24.8403 106.299 24.8885 106.975C25.0333 109.002 25.4676 108.664 27.0601 109.774C27.5427 110.112 27.8805 111.029 27.784 111.656C27.784 111.897 27.7358 112.139 27.6875 112.38C27.5427 112.477 27.4945 112.573 27.3497 112.573C26.5776 112.814 25.8054 113.2 25.1781 113.731C24.5507 114.262 24.5507 114.552 24.4059 114.503C23.6821 114.31 22.5721 113.007 22.0413 112.477C21.3174 111.801 21.6552 111.463 20.5452 111.222C19.2423 110.98 19.4836 111.415 18.4701 112.042L17.9875 113.249C17.6015 114.021 17.4567 113.973 17.4567 114.938C17.4567 115.903 17.7463 116.048 17.7463 116.578C17.7463 117.109 17.6015 117.061 17.4084 117.399L20.0627 117.881C21.0761 117.978 22.7651 118.654 23.3925 119.426C24.0681 120.294 24.3094 121.597 25.0815 122.466C25.6607 124.107 27.6875 124.782 27.7358 126.809C27.7358 127.726 27.4945 128.547 27.4462 129.463L27.3014 132.504C27.0119 132.986 27.1084 135.206 27.1084 135.882C27.1084 136.944 27.4945 137.667 28.6044 137.764C30.4865 138.005 31.3552 138.922 32.8512 139.887C33.9129 140.563 35.3124 141.335 35.6984 142.59C36.0362 143.989 38.5457 144.906 39.7039 145.582C40.1865 145.871 40.5725 146.064 40.7656 146.644C41.2481 148.236 40.3312 148.333 42.5511 148.333C44.771 148.333 45.5914 148.526 45.7844 147.223C45.9292 146.209 46.2188 144.617 47.2805 144.182C48.68 144.182 48.7765 144.665 49.7899 145.534C50.4655 146.113 50.9964 146.257 51.1894 147.174C51.4307 148.236 51.672 149.153 52.5406 149.829C53.8919 150.89 54.471 146.933 54.7605 146.257C56.16 143.024 57.463 145.244 60.069 144.954L63.3988 144.665L62.868 143.41C62.868 142.638 62.868 141.528 62.6267 140.804C62.3854 140.032 62.0476 139.501 62.1441 138.633C62.2888 136.799 63.7366 136.702 64.9431 135.834C65.3291 135.544 64.75 133.807 65.1844 133.131C65.6669 132.166 68.3694 130.429 67.356 129.222C66.5839 128.305 64.7983 126.327 64.9913 124.975L64.2192 123.769V119.812C64.2192 118.316 63.5918 117.013 64.9913 115.951C65.3291 115.662 65.9565 115.951 66.3908 115.806C67.2112 115.517 67.6938 114.503 68.3212 113.924C68.6107 113.683 69.9137 112.042 69.6724 111.801C69.4311 111.511 68.7072 111.125 68.3694 110.884C67.6455 110.353 67.549 109.629 67.4525 108.809C67.549 107.12 66.0048 107.506 65.0878 106.299C63.9779 104.9 63.2058 102.535 62.4819 100.846C62.0958 99.9293 60.9859 99.9776 60.9376 98.8676C60.9376 97.7094 59.5864 97.6611 59.5864 96.5512C59.5864 95.4413 59.5864 94.8622 58.2834 93.897C57.5595 93.3661 57.0769 92.8836 56.4978 92.1597C55.967 91.4358 55.8705 90.0846 55.6292 89.2159C55.6292 86.996 53.9401 85.5 53.9884 83.2319C53.9884 82.3149 53.6988 82.2667 52.9267 82.2184C52.4924 82.4115 51.5272 83.3766 51.1411 82.9906C50.7551 82.5562 50.4655 81.7358 49.9829 81.4946C48.1974 80.5776 46.074 82.4597 44.8675 79.9985C44.2884 78.7921 43.3715 78.7921 42.3581 78.213L40.5725 77.4891L40.669 77.4408Z" stroke="#808080" stroke-opacity="0.55" stroke-width="2" stroke-miterlimit="10"/>
<path fill-rule="evenodd" clip-rule="evenodd" d="M286.69 100.351C289.441 101.413 291.227 103.15 294.267 103.343C295.956 103.44 296.776 104.067 298.176 104.887C299.479 105.611 300.733 105.177 301.94 104.646C303.243 104.212 304.112 102.861 304.98 101.847C305.608 101.075 305.945 100.303 307.055 100.351H309.565C310.916 100.448 310.82 98.3725 311.978 98.5173C312.509 98.5656 312.943 98.8551 313.425 98.4208C313.763 98.083 314.342 97.8899 314.825 97.8417L315.742 97.7452C316.418 97.6969 316.9 96.9248 317.672 96.8283C318.686 96.6835 319.458 97.3591 320.471 96.8283C321.099 96.4905 321.774 95.1392 322.305 94.6084C320.761 93.981 318.686 95.4288 316.9 94.8979C315.742 94.5601 317.431 92.4367 316.417 91.7129C316.224 91.5681 315.694 91.7129 315.404 91.6646C314.439 91.4233 314.584 90.6994 313.715 91.7611C313.088 92.5333 311.254 93.5949 310.289 93.5949C309.323 93.5949 309.806 92.0024 309.082 91.375C308.165 90.2651 307.055 90.5547 306.814 88.8656C306.718 88.2382 306.669 86.694 306.042 86.4044C305.415 86.1149 304.787 86.5492 304.305 86.5009C303.967 86.5009 302.857 85.2462 302.809 84.8601C302.809 84.5223 302.953 84.0398 302.809 83.7502C302.519 83.2676 302.181 82.9298 301.892 82.4472C301.747 81.9646 301.409 81.3855 301.361 80.903C301.264 80.3721 302.664 79.3104 303.05 78.9726C303.629 78.4418 302.712 78.2487 302.423 77.9109C301.843 77.2836 300.83 76.3667 300.878 75.498C300.878 75.1602 301.264 74.6776 301.361 74.3398L301.795 72.7955C302.374 72.3612 302.76 71.8786 303.484 71.6856C303.774 71.6373 304.739 71.396 304.835 71.0582C304.98 70.5756 304.835 70.3826 305.077 69.9C305.318 69.4657 306.138 68.8383 306.476 68.4523C306.862 68.0179 307.683 68.0662 308.069 67.6319C308.744 66.9562 307.634 66.2324 308.165 65.4602C308.358 65.1707 308.744 64.8811 308.889 64.5916C309.082 64.2055 308.937 63.6264 308.986 63.2403C308.889 62.9025 308.744 62.4199 308.841 62.0821C308.937 61.6961 309.13 61.31 309.275 60.9722L309.42 60.007L309.517 58.7523C308.889 57.8354 308.551 56.9185 308.551 55.8085C308.551 54.6986 307.49 53.4921 306.476 53.0578C305.752 52.6235 305.511 52.7682 304.98 53.2991C304.449 53.7817 304.208 52.8648 303.629 53.4921C303.388 53.7334 303.146 54.216 302.712 54.0712C301.65 53.6369 300.685 51.0309 300.347 50.0175C299.865 48.5215 301.023 49.1006 301.699 49.6314C302.326 50.0658 302.278 48.6663 302.278 48.3767C302.278 47.5081 303.146 48.3285 303.677 48.2319C304.16 48.3767 304.884 48.9076 305.077 48.0872C305.222 47.5081 305.415 47.2668 305.752 47.8459C306.525 49.1006 307.055 47.4116 307.248 46.7842C307.441 46.2051 307.055 45.3847 307.49 44.8539C307.683 44.6126 307.972 44.13 307.441 44.13C306.911 44.13 306.235 44.0817 305.752 43.6474C305.27 43.3578 304.546 42.3927 303.967 42.5374C303.195 42.6822 302.471 42.8753 301.892 43.3096C299.479 44.9986 300.154 40.7036 298.61 40.8967C297.307 41.0414 296.535 39.835 295.666 39.0146C294.798 38.1942 294.219 39.0146 293.639 38.7733C292.723 38.339 292.916 37.3255 293.157 36.5534C293.784 35.4434 293.591 35.2987 293.157 34.3335C292.674 33.3201 291.709 33.8992 291.371 32.8857C291.371 32.7892 291.275 32.6927 291.227 32.5962C290.889 32.8857 289.779 33.8027 289.393 33.9957C288.958 34.1887 288.717 33.7544 288.331 33.7061C286.352 33.3201 286.159 35.7813 284.856 36.4086C284.036 37.422 283.167 38.6768 281.72 38.532C280.417 38.3872 280.658 39.6419 280.803 40.5588C280.996 41.5723 280.754 41.9101 280.658 42.8753C280.658 43.5026 280.851 44.8539 280.61 45.3847C280.465 45.7225 279.934 46.0121 279.645 46.3499C279.307 47.4116 279.548 48.3767 280.031 49.2936C280.61 50.4518 279.934 51.3688 279.741 52.4787C279.645 53.0578 279.114 53.4921 278.969 54.0712C278.776 54.7951 279.5 55.2777 279.451 56.0498C279.451 56.7254 279.307 57.208 278.969 57.8354C278.631 58.4145 277.714 59.2349 277.714 59.8622C277.714 60.7792 277.521 62.6612 277.907 63.4334C278.342 64.2538 278.631 64.8329 278.1 65.7015C277.811 65.8946 277.666 67.0045 277.618 67.3906C277.521 67.9697 277.666 68.404 277.859 68.9831C278.1 69.9 278.438 71.0582 278.197 72.0234C277.955 72.9886 278.438 72.9886 278.583 73.8572C278.728 74.7741 277.762 75.4015 277.376 76.1736L277.039 77.9592C277.521 78.2487 277.859 78.8761 278.342 79.2139C279.355 79.8895 279.258 80.3721 279.258 81.4338C279.258 82.4955 280.031 83.0263 280.754 83.7502C281.43 84.6671 281.575 85.6323 282.444 86.4527C283.747 87.6109 284.663 88.5761 285.291 90.2651C285.532 90.989 286.015 91.8094 286.642 92.2437C287.076 92.5815 287.366 92.8711 287.125 93.4502C287.366 94.1258 287.221 94.1258 287.897 94.3188C288.379 94.4636 288.09 94.9944 288.09 95.3322C288.09 95.9113 288.379 96.5387 288.621 97.0696C288.717 97.3108 289.151 98.1795 288.717 98.3243C288.138 98.5656 287.414 98.2278 287.221 98.9999C287.076 99.4342 286.98 100.11 286.98 100.544L286.69 100.351Z" stroke="#808080" stroke-opacity="0.55" stroke-width="2" stroke-miterlimit="10"/>
<path fill-rule="evenodd" clip-rule="evenodd" d="M237.178 104.562C237.371 105.575 237.129 107.023 237.129 108.085C237.129 109.146 238.143 108.326 238.143 108.857C238.143 109.725 238.143 111.028 238.384 111.849C238.481 112.235 238.818 112.766 239.011 113.104C239.253 113.538 239.253 113.972 239.349 114.455C239.349 114.889 239.928 115.179 239.977 115.709C239.977 116.144 240.218 116.771 240.459 117.109C240.99 117.929 242.004 117.881 242.293 118.943C242.438 119.425 242.679 120.101 242.486 120.535C242.148 121.307 241.666 122.128 242.486 122.755C243.258 123.383 244.03 123.624 243.837 124.782C243.693 126.568 244.223 128.691 242.824 129.946C241.328 131.297 241.762 132.6 241.569 134.386C241.569 135.158 241.617 135.109 241.328 135.737C240.894 136.654 242.1 137.233 242.776 137.474C244.416 138.053 244.416 139.694 244.609 141.19C244.658 141.769 244.368 142.493 244.851 142.976C245.43 143.555 246.347 143.506 247.071 143.844C247.65 144.085 250.497 145.775 250.594 146.257C250.738 147.078 250.69 147.946 250.69 148.767C250.69 149.587 251.366 149.78 251.221 150.552C250.642 154.413 254.02 151.614 255.371 153.785C255.564 154.123 255.757 154.413 255.902 154.799C256.24 155.619 257.108 156.102 257.881 156.343C258.267 156.488 258.556 156.971 258.894 157.212L259.57 157.453C260.39 157.067 258.797 155.281 260.004 154.992C261.307 154.654 261.79 154.509 261.548 153.11C261.21 150.986 262.369 151.759 263.334 150.407C263.768 149.78 263.286 149.346 263.527 148.911C263.672 148.67 264.106 148.477 264.299 148.284C264.637 147.994 264.637 147.174 264.685 146.788C264.83 146.643 264.926 146.209 265.168 146.209C266.519 146.209 265.023 144.665 266.953 144.472C267.967 144.375 268.835 143.506 269.945 143.265C271.779 142.879 272.985 140.659 274.819 140.9C276.557 141.142 277.811 139.646 277.908 137.908C278.149 137.522 278.004 137.136 278.342 136.75C278.68 136.364 279.693 135.592 279.645 135.061C279.549 134.289 279.018 133.71 279.163 132.938C279.307 132.214 279.935 131.78 279.935 131.007C279.935 130.428 280.61 129.801 281.045 129.463V128.064C281.238 127.871 281.286 127.581 281.479 127.485C281.769 127.243 282.685 126.857 282.782 126.519C282.878 126.133 282.589 125.844 282.492 125.554C282.348 124.975 282.444 124.3 282.541 123.72C282.685 123.141 282.299 122.321 282.299 121.645C282.83 121.066 283.506 120.68 283.988 120.053C284.664 119.184 285.388 117.688 286.45 117.35C286.884 117.206 287.367 117.35 287.753 117.157C288.283 116.868 288.911 116.096 289.442 115.709C291.131 114.455 293.351 114.937 293.737 112.283C293.688 111.608 293.737 111.028 293.206 110.498C292.723 110.015 292.723 109.967 292.723 109.291C292.723 108.471 291.855 107.409 291.034 107.409C290.214 107.409 289.876 107.65 289.007 106.926C288.283 106.299 288.09 105.141 287.173 104.755C285.822 104.224 285.484 104.127 286.45 102.873L286.932 100.074C286.932 99.5912 287.077 98.9638 287.173 98.5295C287.366 97.7091 288.09 98.0469 288.669 97.8539C289.104 97.6608 288.669 96.8404 288.573 96.5991C288.332 96.0683 287.994 95.4409 288.042 94.8618C288.042 94.524 288.38 93.9449 287.849 93.8484C287.173 93.7036 287.27 93.7036 287.077 92.9797C287.27 92.4006 286.98 92.1111 286.594 91.7733C285.967 91.2907 285.533 90.4703 285.243 89.7947C284.616 88.1056 283.699 87.1405 282.396 85.9823C281.527 85.1619 281.382 84.1967 280.707 83.2798C279.983 82.5559 279.211 82.1216 279.211 80.9634C279.211 79.8052 279.307 79.4191 278.294 78.7435C277.811 78.4057 277.474 77.7783 276.991 77.4888L276.46 78.1644C276.315 78.9848 276.026 79.2743 275.447 79.8534C274.868 80.4325 275.012 80.6256 275.398 81.1082C276.074 81.8803 276.122 83.0385 275.447 83.8106C274.771 84.5828 273.806 84.2932 273.13 84.9688C273.13 85.4514 272.551 85.9823 272.262 86.3201C271.972 86.7061 271.682 86.5614 271.345 86.7544C270.573 87.1887 270.766 88.6847 270.862 89.4086C271.007 91.2424 273.227 92.1111 272.165 94.1862C271.586 95.1514 271.103 96.0683 270.862 97.13C270.573 98.5777 268.883 97.5643 268.111 98.3364C267.339 99.1086 267.629 99.2051 266.76 99.4464C265.65 99.6877 265.168 99.8325 264.444 100.798C264.058 101.328 263.575 101.039 262.996 101.039C262.417 101.039 262.369 101.715 261.983 102.101C261.5 102.583 261.017 101.666 260.631 101.28C260.1 100.556 259.907 99.6394 259.859 98.7708C259.811 97.7573 258.991 97.9504 258.218 97.8056C257.736 97.7091 257.253 97.323 256.867 97.2748C256.385 97.2265 255.902 97.2748 255.419 97.2265C254.744 97.1782 253.586 96.7439 252.958 96.8887C251.752 97.13 250.594 98.7708 249.58 98.819C248.904 99.4946 248.132 100.025 247.601 100.846C247.167 101.473 246.443 101.859 246.25 102.583C246.105 103.114 246.105 103.597 245.43 103.597C244.609 103.597 244.272 103.211 243.644 102.824C242.92 102.342 241.666 102.631 240.942 102.68L240.073 103.114C239.735 103.162 239.398 103.114 239.011 103.162C238.674 103.162 238.529 103.259 238.239 103.452C237.95 103.645 238.095 103.741 237.998 103.838C237.805 104.176 237.515 104.32 237.178 104.465V104.562Z" stroke="#808080" stroke-opacity="0.55" stroke-width="2" stroke-miterlimit="10"/>
<path fill-rule="evenodd" clip-rule="evenodd" d="M277.136 77.6816L277.473 75.896C277.86 75.1239 278.825 74.4965 278.68 73.5796C278.535 72.711 278.004 72.711 278.294 71.7458C278.535 70.7806 278.246 69.6224 277.956 68.7055C277.811 68.1264 277.618 67.7404 277.715 67.113C277.763 66.7752 277.908 65.617 278.197 65.4239C278.68 64.5553 278.439 63.9762 278.004 63.1558C277.57 62.3837 277.811 60.5016 277.811 59.5847C277.811 58.6678 278.728 58.1852 279.066 57.5578C279.404 56.9787 279.549 56.4961 279.549 55.7722C279.597 55.0001 278.873 54.5658 279.066 53.7936C279.211 53.2145 279.742 52.7802 279.838 52.2011C280.031 51.0912 280.707 50.126 280.128 49.0161C279.645 48.0991 279.452 47.134 279.742 46.0723C279.983 45.6862 280.562 45.4449 280.707 45.1071C280.948 44.5763 280.707 43.225 280.755 42.5977C280.803 41.6808 281.093 41.2947 280.9 40.2813C280.707 39.3644 280.466 38.1096 281.817 38.2544C283.216 38.4474 284.133 37.1445 284.954 36.131C286.257 35.5037 286.45 33.0425 288.428 33.4286C288.814 33.4768 289.056 33.9111 289.49 33.7181C289.876 33.5733 291.034 32.6082 291.324 32.3186C291.082 31.8843 290.745 31.4982 290.745 31.0639C290.745 30.6296 290.986 30.3883 290.889 30.1952C290.359 30.147 289.635 30.2918 289.152 30.0022C288.332 29.5679 288.573 30.7261 288.09 30.7261C287.753 30.7261 287.463 30.1952 287.366 29.9057C287.125 29.037 287.173 29.1818 286.45 28.844C285.919 28.5062 285.147 28.6027 284.519 28.3614C283.844 28.1201 283.554 27.5893 282.927 27.2997C282.444 27.0584 281.962 27.2997 281.527 27.0584C280.948 26.7689 280.466 26.1898 280.031 25.7072C279.693 25.3694 279.307 25.3211 278.921 25.1281C278.39 25.1281 277.763 25.4177 277.473 24.8385C277.232 24.356 277.473 23.8734 277.329 23.4391C277.232 23.1012 274.819 23.6803 274.433 23.6803C273.565 23.7286 273.516 22.9565 272.744 23.1978C271.489 23.6321 270.573 23.7286 269.511 22.8117C268.787 22.2326 266.664 23.8734 267.339 24.5007C267.918 25.0316 267.774 25.6107 267.098 25.9968C266.422 26.5276 266.76 27.2032 266.181 27.6858C265.795 28.0236 265.119 28.5062 264.637 28.651C263.382 28.9888 264.588 31.4982 263.43 32.3669C262.61 32.9942 261.066 33.139 260.245 32.4151C258.556 30.9191 258.749 31.3052 256.964 32.4151C256.529 32.7047 255.371 31.9325 254.695 31.9808C253.827 32.0291 252.476 32.7529 252.234 31.45C251.993 30.147 251.173 31.5465 250.835 31.5465C249.628 31.7878 249.242 29.6161 248.76 31.7395C248.567 32.6564 246.685 31.3052 246.395 30.9191C245.816 30.1952 245.623 30.7261 245.044 30.1952C244.368 29.5679 243.934 28.4097 242.872 28.5545C241.28 28.844 240.411 28.1201 239.591 29.9057C238.577 32.0773 236.261 29.4231 235.344 28.3132C234.958 27.9271 235.537 27.4445 235.151 27.0584C234.765 26.7206 234.186 26.5759 233.8 26.1898C232.593 24.9351 232.593 27.3962 232.062 27.7341C231.435 28.1684 230.47 27.9754 229.842 27.6375C229.36 27.3963 229.842 26.9619 229.794 26.6724C229.601 26.0933 226.995 25.1764 226.416 24.8385C225.499 24.356 225.596 24.4525 225.258 25.3211C225.113 25.7072 223.617 25.0798 223.038 25.5624C222.073 26.3346 221.494 25.3694 220.384 25.2246H220.432L219.949 27.0584C220.094 27.6375 220.094 27.8306 220.528 28.2166C221.108 28.7957 221.252 28.9405 220.528 29.5196C219.515 30.4365 221.445 31.836 220.48 32.9942C220.142 33.5251 219.756 33.5251 219.274 33.6699C218.646 33.8629 218.502 34.0559 218.212 34.5868C217.874 35.1659 217.826 35.1176 217.971 35.7932C218.164 36.4688 217.199 36.9997 217.295 37.8683C217.44 39.2196 219.467 39.7504 220.577 39.9917C221.204 40.1365 221.976 40.3295 222.555 40.6191C223.086 40.8604 223.038 41.1982 222.941 41.7773C222.845 42.6942 222.893 43.2733 223.617 43.9007C223.907 44.1419 224.148 44.3832 224.534 44.4798C224.872 44.5763 225.258 44.4798 225.547 44.6728C225.547 45.0106 225.596 45.9758 225.499 46.2171C225.21 46.7962 225.885 46.9892 225.933 47.52C226.03 48.3887 225.74 48.7748 226.706 49.2091C227.429 49.5469 227.622 50.2708 227.622 51.0429C227.671 52.8767 230.132 51.622 230.663 52.7802C231.001 53.4558 232.448 53.5041 232.448 54.1797C232.448 54.8553 232.448 54.8553 232.545 55.1931C232.69 55.724 233.22 55.6757 233.413 56.2548C233.607 56.9304 233.269 57.5578 233.703 58.2817C234.137 59.0056 234.958 59.6812 233.944 60.4533C233.655 60.7429 233.124 60.9359 233.269 61.4667C233.365 61.8046 233.269 62.3837 233.51 62.625C233.8 62.9628 234.572 62.7697 235.006 62.818C236.405 63.0593 237.66 65.3274 238.77 66.1478C240.121 67.1613 240.17 68.0782 239.687 69.6707C239.591 70.105 239.591 70.6841 239.687 71.0702C239.832 71.7458 240.218 71.6493 240.604 72.1319C240.797 72.3732 240.894 73.6279 240.942 73.9657C240.942 74.6896 240.17 75.0274 239.977 75.703C239.832 76.2821 239.88 76.3786 239.446 76.7647C238.288 77.7299 240.218 79.2741 238.481 80.0463C237.998 81.1562 238.77 81.6871 239.204 82.6522C239.542 83.3761 239.446 83.8104 239.494 84.5826C239.494 84.8721 239.494 85.1617 239.639 85.403C240.073 86.2234 238.818 86.899 238.674 87.6711C238.577 88.3467 238.915 89.3602 239.639 89.5532C240.266 89.7462 241.231 89.6015 241.569 90.3253C241.907 90.8079 243.113 91.9179 242.583 92.4487C242.052 92.9796 241.762 93.4139 241.473 93.993C240.894 95.1512 240.556 96.2611 239.494 96.985C239.06 97.2746 239.108 98.3362 239.398 98.7706C239.639 99.1566 240.073 99.3497 240.363 99.784L240.942 102.486C241.666 102.486 242.92 102.197 243.644 102.631C244.272 103.017 244.609 103.452 245.43 103.403C246.105 103.403 246.105 102.921 246.25 102.39C246.443 101.666 247.215 101.28 247.601 100.653C248.181 99.8323 248.904 99.3014 249.58 98.6258C250.593 98.5775 251.8 96.985 252.958 96.6955C253.537 96.5507 254.744 96.985 255.419 97.0333C255.902 97.0333 256.385 97.0333 256.867 97.0815C257.301 97.1298 257.736 97.5158 258.218 97.6124C258.99 97.7571 259.811 97.6124 259.859 98.5775C259.907 99.4462 260.1 100.363 260.631 101.087C260.969 101.473 261.5 102.39 261.982 101.907C262.465 101.425 262.272 100.846 262.996 100.846C263.72 100.846 264.058 101.135 264.444 100.604C265.168 99.6392 265.698 99.4944 266.76 99.2532C267.629 99.0601 267.58 98.7223 268.111 98.1432C268.883 97.3711 270.524 98.3845 270.862 96.9367C271.103 95.8751 271.586 94.9581 272.165 93.993C273.227 91.9179 271.007 91.0492 270.862 89.2154C270.814 88.4915 270.621 86.9955 271.345 86.5612C271.682 86.3681 271.972 86.5612 272.262 86.1268C272.551 85.789 273.13 85.2582 273.13 84.7756C273.806 84.1 274.819 84.3895 275.447 83.6174C276.074 82.8453 276.026 81.6871 275.398 80.9149C275.012 80.4806 275.109 80.0463 275.447 79.6602C276.026 79.0811 276.315 78.7433 276.46 77.9712L276.991 77.2955L277.136 77.6816Z" stroke="#808080" stroke-opacity="0.55" stroke-width="2" stroke-miterlimit="10"/>
<path fill-rule="evenodd" clip-rule="evenodd" d="M285.388 171.11L283.506 169.035C283.265 168.746 282.492 168.311 282.83 167.829C283.023 167.539 283.699 167.587 284.037 167.153C284.375 166.719 284.133 166.477 284.037 166.043C283.699 164.692 284.182 162.858 285.098 161.893C285.291 161.7 285.436 161.314 285.774 161.314C287.174 161.314 287.174 160.107 287.463 158.997C288.042 158.466 288.814 158.032 288.477 157.115C288.235 156.536 287.897 156.247 287.994 155.571C288.09 154.509 287.849 153.11 288.766 152.434C289.731 151.71 290.359 151.228 290.262 149.876C290.552 149.297 290.069 148.332 291.179 148.766C291.42 148.863 291.806 148.911 291.999 148.815C292.337 148.67 292.096 147.898 292.675 147.608C293.254 147.319 294.412 147.126 294.75 147.801C294.991 148.332 295.329 148.429 295.86 148.332L296.777 147.994C298.032 148.477 299.093 147.512 299.914 146.643C300.734 145.774 301.12 145.388 302.037 145.292C302.713 145.244 303.437 145.147 303.967 144.665C304.498 144.182 304.45 142.927 305.512 143.506C305.946 143.748 306.477 143.748 306.96 143.796C307.394 143.844 307.635 144.278 308.021 144.471C308.793 144.665 310.724 144.809 311.448 144.471C312.123 144.182 312.22 142.831 312.944 142.493C313.378 142.3 314.247 142.396 314.729 142.348C315.936 142.252 316.901 141.335 318.059 141.093L322.064 140.273C322.595 140.418 324.477 139.983 324.767 139.501C325.105 139.018 325.346 138.198 325.829 137.86C326.263 137.571 326.166 137.088 326.215 136.605C326.408 135.109 328.821 133.662 329.979 132.938C330.896 132.455 331.523 131.731 332.585 131.442C333.405 131.2 334.081 131.442 334.901 131.49C335.673 131.586 335.866 131.635 336.445 131.056C336.976 130.477 338.328 131.2 338.907 131.442C340.306 132.069 339.486 129.125 339.486 128.45C339.486 126.954 339.872 125.554 339.872 124.106C339.872 123.093 339.389 121.983 340.113 121.114C340.547 120.632 341.271 120.535 341.947 120.632C343.25 120.873 342.43 122.128 342.623 122.996C342.816 124.058 343.298 124.879 343.539 125.892L344.167 126.954C345.084 128.498 346.483 128.643 348.172 128.498C348.848 128.45 349.475 128.45 350.103 128.498C350.633 128.498 351.406 129.077 351.985 129.077C351.695 129.222 351.454 129.367 351.261 129.608C350.247 130.863 350.971 132.552 351.068 133.951C351.164 134.965 350.633 136.026 350.054 136.847C349.813 137.957 350.682 139.018 350.778 140.176C350.875 141.479 351.213 142.396 351.55 143.651C351.792 144.52 352.564 144.52 353.239 144.761C353.915 144.858 354.591 145.099 355.266 145.34C355.749 145.533 355.652 146.595 355.701 147.029C355.701 147.367 355.459 147.608 355.508 147.994C355.556 148.429 356.28 148.67 356.569 148.863C357.293 149.297 357.727 149.539 358.114 150.311C358.114 150.793 358.403 151.228 358.403 151.71C358.403 152.193 357.92 152.386 358.258 152.772C358.886 153.496 359.851 153.592 359.803 154.847C359.803 155.571 358.596 155.909 359.127 156.536C359.61 157.115 359.32 158.949 358.982 159.576C358.886 160.107 359.223 160.445 359.32 160.879C359.368 161.217 359.32 161.652 359.32 161.989C359.32 163.196 358.596 162.954 358.114 163.678C357.872 164.016 357.92 165.078 357.824 165.512C357.679 166.333 356.811 166.429 356.183 166.815C355.121 167.394 353.77 168.215 352.612 168.359C351.84 168.166 350.971 168.263 350.247 167.973C349.62 167.732 348.944 167.539 348.269 167.539C346.724 167.539 344.842 167.056 344.312 165.367C344.215 165.078 344.167 164.692 344.022 164.402C343.588 163.727 341.657 163.148 340.885 162.665C339.631 162.086 338.086 161.603 336.976 160.735C336.301 160.252 334.033 160.783 333.164 160.976C332.199 161.169 332.102 162.086 331.33 162.375C330.606 163.292 330.365 164.547 329.689 165.512C328.869 166.67 328.145 167.298 326.939 168.215C326.359 168.649 325.346 169.469 324.622 169.614C322.209 170.628 319.652 173.427 317.046 173.137C316.273 173.041 315.501 174.102 314.44 173.861L310.193 172.847C309.372 172.654 308.6 172.944 307.828 172.896C306.67 173.185 305.56 173.957 304.45 174.295C303.195 174.73 301.699 174.923 300.396 175.067C297.549 175.405 293.592 176.949 291.179 174.537C290.021 173.861 288.573 173.185 287.608 172.22C287.222 171.834 286.015 170.628 285.291 170.869L285.388 171.11Z" stroke="#808080" stroke-opacity="0.55" stroke-width="2" stroke-miterlimit="10"/>
<path fill-rule="evenodd" clip-rule="evenodd" d="M287.029 100.315C289.779 101.377 291.565 103.114 294.605 103.307C296.294 103.404 297.115 104.031 298.514 104.852C299.817 105.575 301.072 105.141 302.278 104.61C303.581 104.176 304.45 102.825 305.319 101.811C305.946 101.039 306.284 100.267 307.394 100.315H309.903C311.254 100.412 311.158 98.3367 312.316 98.4815C312.847 98.5297 313.281 98.8193 313.764 98.385C314.102 98.0471 314.681 97.8541 315.163 97.8058L316.08 97.7093C316.756 97.6611 317.239 96.8889 318.011 96.7924C319.024 96.6476 319.796 97.3233 320.81 96.7924C321.437 96.4546 322.113 95.1034 322.644 94.5725C323.078 94.7656 322.788 95.4412 323.271 95.5377C323.657 95.6342 324.381 95.5377 324.719 95.3447C325.394 95.1034 326.745 94.283 327.469 94.476C328.435 94.7173 329.014 95.586 329.882 94.8621C330.317 94.5243 330.992 94.1382 331.282 93.6556C331.861 92.6905 331.764 92.787 332.778 93.173C333.26 93.3178 333.405 93.8487 333.598 94.283C334.274 95.5377 335.384 94.283 336.301 94.476C337.218 94.669 338.617 94.1865 339.341 94.476C340.065 94.7656 340.596 95.7307 341.271 95.8755C342.14 96.0685 343.443 96.2616 344.312 95.8755C344.891 95.6342 344.649 94.9586 345.373 95.5377C345.856 95.9238 346.918 95.1999 347.111 94.7656C347.497 93.8004 347.207 93.5591 348.365 94.0417L348.462 93.9452C348.896 93.8487 350.054 93.5108 350.151 93.9934C350.247 94.7173 350.151 95.4894 350.247 96.2133C350.296 96.7442 350.103 97.275 350.199 97.7093C350.296 98.2402 351.213 98.4815 351.647 98.6262C352.564 98.8675 352.371 99.7844 351.985 100.508C351.309 101.57 352.66 102.101 353.336 102.583C353.625 102.776 353.239 105.527 353.191 105.913C353.191 106.444 352.902 107.554 353.191 107.988C353.818 108.857 354.928 109.581 354.832 110.739C355.025 111.849 355.218 111.994 355.942 112.766C356.569 113.442 356.955 114.069 357.776 114.6C358.258 114.889 358.837 114.745 359.32 114.986C359.899 115.275 360.285 115.999 360.768 116.482C361.25 116.964 360.913 118.46 360.382 118.654C359.465 118.991 357.679 119.329 357.052 118.364C356.521 117.592 355.845 117.592 354.977 117.978C354.591 118.123 351.743 119.667 352.564 120.246C353.239 120.729 354.735 120.439 354.928 121.404C355.025 121.935 355.508 122.176 355.701 122.804C355.942 123.962 355.363 124.638 354.784 125.506C354.398 126.085 354.301 126.664 354.301 127.388C354.301 128.884 353.046 128.836 352.081 129.319C351.55 129.319 350.778 128.788 350.199 128.74C349.523 128.691 348.896 128.691 348.269 128.74C346.58 128.884 345.18 128.74 344.263 127.195L343.636 126.134C343.395 125.12 342.912 124.3 342.719 123.238C342.526 122.369 343.346 121.066 342.043 120.873C341.368 120.729 340.692 120.873 340.21 121.356C339.437 122.225 339.968 123.335 339.968 124.348C339.968 125.796 339.582 127.195 339.582 128.691C339.582 130.187 340.403 132.311 339.003 131.683C338.424 131.442 337.073 130.718 336.542 131.297C336.011 131.876 335.77 131.828 334.998 131.732C334.177 131.635 333.502 131.442 332.681 131.683C331.668 131.973 331.041 132.745 330.075 133.179C328.917 133.855 326.552 135.351 326.311 136.847C326.263 137.281 326.311 137.812 325.925 138.102C325.442 138.44 325.153 139.212 324.863 139.742C324.574 140.225 322.692 140.659 322.161 140.515L318.155 141.335C316.997 141.576 316.032 142.493 314.826 142.59C314.343 142.59 313.474 142.493 313.04 142.735C312.364 143.072 312.268 144.424 311.544 144.713C310.82 145.003 308.89 144.906 308.118 144.713C307.683 144.52 307.49 144.086 307.056 144.037C306.573 143.989 305.994 144.037 305.608 143.748C304.547 143.121 304.643 144.279 304.064 144.906C303.485 145.534 302.809 145.485 302.134 145.533C301.168 145.63 300.638 146.257 300.01 146.885C299.383 147.512 298.128 148.719 296.873 148.236C297.018 147.753 296.873 147.464 297.211 147.03C297.549 146.595 297.887 146.257 298.128 145.775C298.514 145.099 299.576 143.265 299.576 142.541C298.949 142.011 297.887 142.541 297.356 141.866C296.729 141.045 296.005 142.107 295.426 141.625C294.847 141.142 295.233 140.466 294.991 140.032C294.895 139.791 294.412 139.646 294.219 139.453C293.93 138.874 294.316 137.571 293.881 137.233C293.206 136.654 292.434 136.364 291.806 135.641C291.275 135.061 290.841 132.697 291.227 131.973C291.372 131.732 291.662 131.635 291.469 131.297C291.324 130.959 290.696 130.959 290.696 130.477C290.648 130.284 290.696 129.801 290.407 129.801C290.021 129.801 289.635 129.898 289.249 129.946C288.332 130.091 287.222 130.477 286.305 130.332C285.388 130.187 285.34 129.705 284.616 129.705C283.458 129.705 282.348 129.946 281.189 129.849V128.45C281.382 128.257 281.431 127.967 281.624 127.871C281.913 127.63 282.83 127.244 282.927 126.906C283.023 126.52 282.734 126.23 282.637 125.941C282.492 125.361 282.589 124.686 282.685 124.107C282.83 123.528 282.444 122.707 282.444 122.032C282.975 121.453 283.651 121.066 284.133 120.439C284.809 119.57 285.533 118.074 286.594 117.737C287.029 117.592 287.511 117.737 287.897 117.544C288.428 117.254 289.056 116.482 289.586 116.096C291.275 114.841 293.495 115.324 293.881 112.669C293.833 111.994 293.881 111.415 293.351 110.884C292.868 110.401 292.868 110.353 292.868 109.677C292.868 108.857 291.999 107.795 291.179 107.795C290.359 107.795 290.021 108.037 289.152 107.313C288.428 106.685 288.235 105.527 287.318 105.141C285.967 104.61 285.629 104.514 286.594 103.259L287.077 100.46L287.029 100.315Z" stroke="#808080" stroke-opacity="0.55" stroke-width="2" stroke-miterlimit="10"/>
<path fill-rule="evenodd" clip-rule="evenodd" d="M281.045 129.608C282.203 129.705 283.313 129.463 284.471 129.463C285.629 129.463 285.533 129.994 286.16 130.091C287.077 130.236 288.187 129.849 289.104 129.705C289.442 129.656 289.876 129.56 290.262 129.56C290.503 129.56 290.455 130.042 290.552 130.236C290.552 130.718 291.179 130.718 291.324 131.056C291.468 131.394 291.179 131.49 291.082 131.732C290.696 132.455 291.082 134.82 291.661 135.399C292.289 136.123 293.061 136.364 293.737 136.992C294.171 137.378 293.737 138.681 294.074 139.212C294.267 139.405 294.702 139.598 294.847 139.791C295.088 140.225 294.798 140.997 295.281 141.383C295.86 141.866 296.584 140.852 297.211 141.625C297.742 142.3 298.804 141.769 299.431 142.3C299.431 142.976 298.321 144.858 297.983 145.533C297.742 146.016 297.356 146.354 297.066 146.788C296.777 147.223 296.873 147.512 296.729 147.995L295.812 148.332C295.281 148.429 294.943 148.332 294.702 147.802C294.364 147.078 293.206 147.319 292.627 147.609C292.048 147.898 292.289 148.67 291.951 148.815C291.71 148.912 291.324 148.815 291.131 148.767C290.021 148.332 290.503 149.298 290.214 149.877C290.31 151.18 289.683 151.711 288.718 152.434C287.801 153.11 288.042 154.51 287.946 155.571C287.897 156.247 288.235 156.536 288.428 157.115C288.766 158.081 287.994 158.467 287.415 158.998C287.077 160.156 287.077 161.266 285.726 161.314C285.388 161.314 285.243 161.7 285.05 161.893C284.133 162.858 283.699 164.692 283.988 166.043C284.085 166.478 284.326 166.719 283.988 167.153C283.651 167.588 282.975 167.539 282.782 167.829C282.444 168.311 283.216 168.698 283.457 169.035L285.34 171.11C285.291 171.11 285.195 171.159 285.147 171.255C283.699 172.606 282.975 174.682 281.479 176.129C280.128 177.481 277.329 177.239 275.591 177.336C273.951 177.336 272.406 176.081 270.814 175.502C269.028 174.826 267.387 173.668 265.457 173.813L260.728 174.247C259.183 174.537 257.205 174.489 255.661 174.102C254.358 173.765 252.813 173.041 251.462 173.041C251.028 173.765 250.111 174.344 249.532 174.971L247.408 177.384C246.685 178.204 246.347 177.577 245.526 177.722C244.368 177.722 243.306 177.336 242.196 177.143L241.955 175.068C242.1 174.054 240.652 172.124 241.135 171.207C241.28 170.917 241.762 170.869 242.003 170.58C242.196 170.338 241.859 170.049 241.762 169.807C241.617 169.373 242.631 168.842 242.824 168.311C243.403 166.719 244.175 167.588 245.382 167.539C246.347 167.539 248.615 166.236 249.29 165.609C249.628 165.609 250.207 165.078 250.4 165.368C251.076 166.574 251.8 164.306 253.055 165.754C253.585 166.381 255.178 166.96 255.612 165.899C255.998 164.982 256.047 164.933 256.964 165.03C258.218 165.175 258.653 163.389 258.363 162.424C258.122 161.652 259.135 159.818 259.618 159.432C259.907 159.191 260.535 159.191 260.293 158.66C260.197 158.467 260.1 158.322 259.956 158.177C259.811 158.032 259.618 157.888 259.521 157.598C260.342 157.212 258.749 155.426 259.956 155.137C261.259 154.799 261.741 154.654 261.5 153.255C261.162 151.131 262.32 151.904 263.285 150.552C263.72 149.925 263.237 149.491 263.478 149.056C263.623 148.815 264.058 148.622 264.251 148.429C264.588 148.139 264.588 147.319 264.637 146.933C264.781 146.788 264.878 146.354 265.119 146.354C266.471 146.354 264.974 144.81 266.905 144.617C267.918 144.52 268.787 143.651 269.897 143.41C271.731 143.024 272.937 140.804 274.771 141.045C276.508 141.287 277.763 139.791 277.86 138.053C278.101 137.667 277.956 137.281 278.294 136.895C278.632 136.509 279.645 135.737 279.597 135.206C279.5 134.434 278.969 133.855 279.114 133.083C279.259 132.359 279.886 131.925 279.886 131.152C279.886 130.573 280.562 129.946 280.996 129.608H281.045Z" stroke="#808080" stroke-opacity="0.55" stroke-width="2" stroke-miterlimit="10"/>
<circle cx="91" cy="96.228" r="15" fill="#FD551D" fill-opacity="0.2"/>
<circle cx="91" cy="96.228" r="10" fill="#FD551D" fill-opacity="0.25"/>
<circle cx="91" cy="96.228" r="4.5" stroke="#FD551D"/>
</svg>
